%TF.GenerationSoftware,KiCad,Pcbnew,5.1.6*%
%TF.CreationDate,2020-06-14T13:39:51+02:00*%
%TF.ProjectId,pcb,7063622e-6b69-4636-9164-5f7063625858,rev?*%
%TF.SameCoordinates,Original*%
%TF.FileFunction,Legend,Top*%
%TF.FilePolarity,Positive*%
%FSLAX46Y46*%
G04 Gerber Fmt 4.6, Leading zero omitted, Abs format (unit mm)*
G04 Created by KiCad (PCBNEW 5.1.6) date 2020-06-14 13:39:51*
%MOMM*%
%LPD*%
G01*
G04 APERTURE LIST*
%ADD10C,0.150000*%
%ADD11C,0.010000*%
%ADD12C,0.120000*%
G04 APERTURE END LIST*
D10*
X161544047Y-120721428D02*
X162305952Y-120721428D01*
X161925000Y-121102380D02*
X161925000Y-120340476D01*
X168994642Y-129971571D02*
X168880357Y-129914428D01*
X168651785Y-129914428D01*
X168537500Y-129971571D01*
X168423214Y-130085857D01*
X168366071Y-130200142D01*
X168366071Y-130428714D01*
X168423214Y-130543000D01*
X168537500Y-130657285D01*
X168651785Y-130714428D01*
X168880357Y-130714428D01*
X168994642Y-130657285D01*
X168766071Y-129514428D02*
X168480357Y-129571571D01*
X168194642Y-129743000D01*
X168023214Y-130028714D01*
X167966071Y-130314428D01*
X168023214Y-130600142D01*
X168194642Y-130885857D01*
X168480357Y-131057285D01*
X168766071Y-131114428D01*
X169051785Y-131057285D01*
X169337500Y-130885857D01*
X169508928Y-130600142D01*
X169566071Y-130314428D01*
X169508928Y-130028714D01*
X169337500Y-129743000D01*
X169051785Y-129571571D01*
X168766071Y-129514428D01*
X170994642Y-130885857D02*
X170994642Y-129685857D01*
X171394642Y-130543000D01*
X171794642Y-129685857D01*
X171794642Y-130885857D01*
X172880357Y-130885857D02*
X172880357Y-130257285D01*
X172823214Y-130143000D01*
X172708928Y-130085857D01*
X172480357Y-130085857D01*
X172366071Y-130143000D01*
X172880357Y-130828714D02*
X172766071Y-130885857D01*
X172480357Y-130885857D01*
X172366071Y-130828714D01*
X172308928Y-130714428D01*
X172308928Y-130600142D01*
X172366071Y-130485857D01*
X172480357Y-130428714D01*
X172766071Y-130428714D01*
X172880357Y-130371571D01*
X173451785Y-130885857D02*
X173451785Y-130085857D01*
X173451785Y-130314428D02*
X173508928Y-130200142D01*
X173566071Y-130143000D01*
X173680357Y-130085857D01*
X173794642Y-130085857D01*
X174708928Y-130828714D02*
X174594642Y-130885857D01*
X174366071Y-130885857D01*
X174251785Y-130828714D01*
X174194642Y-130771571D01*
X174137500Y-130657285D01*
X174137500Y-130314428D01*
X174194642Y-130200142D01*
X174251785Y-130143000D01*
X174366071Y-130085857D01*
X174594642Y-130085857D01*
X174708928Y-130143000D01*
X175394642Y-130885857D02*
X175280357Y-130828714D01*
X175223214Y-130771571D01*
X175166071Y-130657285D01*
X175166071Y-130314428D01*
X175223214Y-130200142D01*
X175280357Y-130143000D01*
X175394642Y-130085857D01*
X175566071Y-130085857D01*
X175680357Y-130143000D01*
X175737500Y-130200142D01*
X175794642Y-130314428D01*
X175794642Y-130657285D01*
X175737500Y-130771571D01*
X175680357Y-130828714D01*
X175566071Y-130885857D01*
X175394642Y-130885857D01*
X177908928Y-130771571D02*
X177851785Y-130828714D01*
X177680357Y-130885857D01*
X177566071Y-130885857D01*
X177394642Y-130828714D01*
X177280357Y-130714428D01*
X177223214Y-130600142D01*
X177166071Y-130371571D01*
X177166071Y-130200142D01*
X177223214Y-129971571D01*
X177280357Y-129857285D01*
X177394642Y-129743000D01*
X177566071Y-129685857D01*
X177680357Y-129685857D01*
X177851785Y-129743000D01*
X177908928Y-129800142D01*
X178880357Y-130828714D02*
X178766071Y-130885857D01*
X178537500Y-130885857D01*
X178423214Y-130828714D01*
X178366071Y-130714428D01*
X178366071Y-130257285D01*
X178423214Y-130143000D01*
X178537500Y-130085857D01*
X178766071Y-130085857D01*
X178880357Y-130143000D01*
X178937500Y-130257285D01*
X178937500Y-130371571D01*
X178366071Y-130485857D01*
X179280357Y-130085857D02*
X179737500Y-130085857D01*
X179451785Y-129685857D02*
X179451785Y-130714428D01*
X179508928Y-130828714D01*
X179623214Y-130885857D01*
X179737500Y-130885857D01*
X180137500Y-130885857D02*
X180137500Y-130085857D01*
X180137500Y-129685857D02*
X180080357Y-129743000D01*
X180137500Y-129800142D01*
X180194642Y-129743000D01*
X180137500Y-129685857D01*
X180137500Y-129800142D01*
X181223214Y-130828714D02*
X181108928Y-130885857D01*
X180880357Y-130885857D01*
X180766071Y-130828714D01*
X180708928Y-130771571D01*
X180651785Y-130657285D01*
X180651785Y-130314428D01*
X180708928Y-130200142D01*
X180766071Y-130143000D01*
X180880357Y-130085857D01*
X181108928Y-130085857D01*
X181223214Y-130143000D01*
X182251785Y-130885857D02*
X182251785Y-130257285D01*
X182194642Y-130143000D01*
X182080357Y-130085857D01*
X181851785Y-130085857D01*
X181737500Y-130143000D01*
X182251785Y-130828714D02*
X182137500Y-130885857D01*
X181851785Y-130885857D01*
X181737500Y-130828714D01*
X181680357Y-130714428D01*
X181680357Y-130600142D01*
X181737500Y-130485857D01*
X181851785Y-130428714D01*
X182137500Y-130428714D01*
X182251785Y-130371571D01*
X183680357Y-129800142D02*
X183737500Y-129743000D01*
X183851785Y-129685857D01*
X184137500Y-129685857D01*
X184251785Y-129743000D01*
X184308928Y-129800142D01*
X184366071Y-129914428D01*
X184366071Y-130028714D01*
X184308928Y-130200142D01*
X183623214Y-130885857D01*
X184366071Y-130885857D01*
X185108928Y-129685857D02*
X185223214Y-129685857D01*
X185337500Y-129743000D01*
X185394642Y-129800142D01*
X185451785Y-129914428D01*
X185508928Y-130143000D01*
X185508928Y-130428714D01*
X185451785Y-130657285D01*
X185394642Y-130771571D01*
X185337500Y-130828714D01*
X185223214Y-130885857D01*
X185108928Y-130885857D01*
X184994642Y-130828714D01*
X184937500Y-130771571D01*
X184880357Y-130657285D01*
X184823214Y-130428714D01*
X184823214Y-130143000D01*
X184880357Y-129914428D01*
X184937500Y-129800142D01*
X184994642Y-129743000D01*
X185108928Y-129685857D01*
X185966071Y-129800142D02*
X186023214Y-129743000D01*
X186137500Y-129685857D01*
X186423214Y-129685857D01*
X186537500Y-129743000D01*
X186594642Y-129800142D01*
X186651785Y-129914428D01*
X186651785Y-130028714D01*
X186594642Y-130200142D01*
X185908928Y-130885857D01*
X186651785Y-130885857D01*
X187394642Y-129685857D02*
X187508928Y-129685857D01*
X187623214Y-129743000D01*
X187680357Y-129800142D01*
X187737500Y-129914428D01*
X187794642Y-130143000D01*
X187794642Y-130428714D01*
X187737500Y-130657285D01*
X187680357Y-130771571D01*
X187623214Y-130828714D01*
X187508928Y-130885857D01*
X187394642Y-130885857D01*
X187280357Y-130828714D01*
X187223214Y-130771571D01*
X187166071Y-130657285D01*
X187108928Y-130428714D01*
X187108928Y-130143000D01*
X187166071Y-129914428D01*
X187223214Y-129800142D01*
X187280357Y-129743000D01*
X187394642Y-129685857D01*
X168023214Y-132835857D02*
X168023214Y-131635857D01*
X168423214Y-132493000D01*
X168823214Y-131635857D01*
X168823214Y-132835857D01*
X169566071Y-132835857D02*
X169451785Y-132778714D01*
X169394642Y-132721571D01*
X169337500Y-132607285D01*
X169337500Y-132264428D01*
X169394642Y-132150142D01*
X169451785Y-132093000D01*
X169566071Y-132035857D01*
X169737500Y-132035857D01*
X169851785Y-132093000D01*
X169908928Y-132150142D01*
X169966071Y-132264428D01*
X169966071Y-132607285D01*
X169908928Y-132721571D01*
X169851785Y-132778714D01*
X169737500Y-132835857D01*
X169566071Y-132835857D01*
X170480357Y-132835857D02*
X170480357Y-132035857D01*
X170480357Y-132264428D02*
X170537500Y-132150142D01*
X170594642Y-132093000D01*
X170708928Y-132035857D01*
X170823214Y-132035857D01*
X171166071Y-132778714D02*
X171280357Y-132835857D01*
X171508928Y-132835857D01*
X171623214Y-132778714D01*
X171680357Y-132664428D01*
X171680357Y-132607285D01*
X171623214Y-132493000D01*
X171508928Y-132435857D01*
X171337500Y-132435857D01*
X171223214Y-132378714D01*
X171166071Y-132264428D01*
X171166071Y-132207285D01*
X171223214Y-132093000D01*
X171337500Y-132035857D01*
X171508928Y-132035857D01*
X171623214Y-132093000D01*
X172651785Y-132778714D02*
X172537500Y-132835857D01*
X172308928Y-132835857D01*
X172194642Y-132778714D01*
X172137500Y-132664428D01*
X172137500Y-132207285D01*
X172194642Y-132093000D01*
X172308928Y-132035857D01*
X172537500Y-132035857D01*
X172651785Y-132093000D01*
X172708928Y-132207285D01*
X172708928Y-132321571D01*
X172137500Y-132435857D01*
X174823214Y-132721571D02*
X174766071Y-132778714D01*
X174594642Y-132835857D01*
X174480357Y-132835857D01*
X174308928Y-132778714D01*
X174194642Y-132664428D01*
X174137500Y-132550142D01*
X174080357Y-132321571D01*
X174080357Y-132150142D01*
X174137500Y-131921571D01*
X174194642Y-131807285D01*
X174308928Y-131693000D01*
X174480357Y-131635857D01*
X174594642Y-131635857D01*
X174766071Y-131693000D01*
X174823214Y-131750142D01*
X175508928Y-132835857D02*
X175394642Y-132778714D01*
X175337500Y-132721571D01*
X175280357Y-132607285D01*
X175280357Y-132264428D01*
X175337500Y-132150142D01*
X175394642Y-132093000D01*
X175508928Y-132035857D01*
X175680357Y-132035857D01*
X175794642Y-132093000D01*
X175851785Y-132150142D01*
X175908928Y-132264428D01*
X175908928Y-132607285D01*
X175851785Y-132721571D01*
X175794642Y-132778714D01*
X175680357Y-132835857D01*
X175508928Y-132835857D01*
X176937500Y-132835857D02*
X176937500Y-131635857D01*
X176937500Y-132778714D02*
X176823214Y-132835857D01*
X176594642Y-132835857D01*
X176480357Y-132778714D01*
X176423214Y-132721571D01*
X176366071Y-132607285D01*
X176366071Y-132264428D01*
X176423214Y-132150142D01*
X176480357Y-132093000D01*
X176594642Y-132035857D01*
X176823214Y-132035857D01*
X176937500Y-132093000D01*
X177966071Y-132778714D02*
X177851785Y-132835857D01*
X177623214Y-132835857D01*
X177508928Y-132778714D01*
X177451785Y-132664428D01*
X177451785Y-132207285D01*
X177508928Y-132093000D01*
X177623214Y-132035857D01*
X177851785Y-132035857D01*
X177966071Y-132093000D01*
X178023214Y-132207285D01*
X178023214Y-132321571D01*
X177451785Y-132435857D01*
X179451785Y-132835857D02*
X179451785Y-131635857D01*
X179737500Y-131635857D01*
X179908928Y-131693000D01*
X180023214Y-131807285D01*
X180080357Y-131921571D01*
X180137500Y-132150142D01*
X180137500Y-132321571D01*
X180080357Y-132550142D01*
X180023214Y-132664428D01*
X179908928Y-132778714D01*
X179737500Y-132835857D01*
X179451785Y-132835857D01*
X181108928Y-132778714D02*
X180994642Y-132835857D01*
X180766071Y-132835857D01*
X180651785Y-132778714D01*
X180594642Y-132664428D01*
X180594642Y-132207285D01*
X180651785Y-132093000D01*
X180766071Y-132035857D01*
X180994642Y-132035857D01*
X181108928Y-132093000D01*
X181166071Y-132207285D01*
X181166071Y-132321571D01*
X180594642Y-132435857D01*
X182194642Y-132778714D02*
X182080357Y-132835857D01*
X181851785Y-132835857D01*
X181737500Y-132778714D01*
X181680357Y-132721571D01*
X181623214Y-132607285D01*
X181623214Y-132264428D01*
X181680357Y-132150142D01*
X181737500Y-132093000D01*
X181851785Y-132035857D01*
X182080357Y-132035857D01*
X182194642Y-132093000D01*
X182880357Y-132835857D02*
X182766071Y-132778714D01*
X182708928Y-132721571D01*
X182651785Y-132607285D01*
X182651785Y-132264428D01*
X182708928Y-132150142D01*
X182766071Y-132093000D01*
X182880357Y-132035857D01*
X183051785Y-132035857D01*
X183166071Y-132093000D01*
X183223214Y-132150142D01*
X183280357Y-132264428D01*
X183280357Y-132607285D01*
X183223214Y-132721571D01*
X183166071Y-132778714D01*
X183051785Y-132835857D01*
X182880357Y-132835857D01*
X184308928Y-132835857D02*
X184308928Y-131635857D01*
X184308928Y-132778714D02*
X184194642Y-132835857D01*
X183966071Y-132835857D01*
X183851785Y-132778714D01*
X183794642Y-132721571D01*
X183737500Y-132607285D01*
X183737500Y-132264428D01*
X183794642Y-132150142D01*
X183851785Y-132093000D01*
X183966071Y-132035857D01*
X184194642Y-132035857D01*
X184308928Y-132093000D01*
X185337500Y-132778714D02*
X185223214Y-132835857D01*
X184994642Y-132835857D01*
X184880357Y-132778714D01*
X184823214Y-132664428D01*
X184823214Y-132207285D01*
X184880357Y-132093000D01*
X184994642Y-132035857D01*
X185223214Y-132035857D01*
X185337500Y-132093000D01*
X185394642Y-132207285D01*
X185394642Y-132321571D01*
X184823214Y-132435857D01*
X185908928Y-132835857D02*
X185908928Y-132035857D01*
X185908928Y-132264428D02*
X185966071Y-132150142D01*
X186023214Y-132093000D01*
X186137500Y-132035857D01*
X186251785Y-132035857D01*
X128778095Y-124245714D02*
X128778095Y-124912380D01*
X128540000Y-123864761D02*
X128301904Y-124579047D01*
X128920952Y-124579047D01*
X129206666Y-123912380D02*
X129873333Y-123912380D01*
X129444761Y-124912380D01*
X130444761Y-123912380D02*
X130540000Y-123912380D01*
X130635238Y-123960000D01*
X130682857Y-124007619D01*
X130730476Y-124102857D01*
X130778095Y-124293333D01*
X130778095Y-124531428D01*
X130730476Y-124721904D01*
X130682857Y-124817142D01*
X130635238Y-124864761D01*
X130540000Y-124912380D01*
X130444761Y-124912380D01*
X130349523Y-124864761D01*
X130301904Y-124817142D01*
X130254285Y-124721904D01*
X130206666Y-124531428D01*
X130206666Y-124293333D01*
X130254285Y-124102857D01*
X130301904Y-124007619D01*
X130349523Y-123960000D01*
X130444761Y-123912380D01*
X128778095Y-119165714D02*
X128778095Y-119832380D01*
X128540000Y-118784761D02*
X128301904Y-119499047D01*
X128920952Y-119499047D01*
X129206666Y-118832380D02*
X129873333Y-118832380D01*
X129444761Y-119832380D01*
X130444761Y-118832380D02*
X130540000Y-118832380D01*
X130635238Y-118880000D01*
X130682857Y-118927619D01*
X130730476Y-119022857D01*
X130778095Y-119213333D01*
X130778095Y-119451428D01*
X130730476Y-119641904D01*
X130682857Y-119737142D01*
X130635238Y-119784761D01*
X130540000Y-119832380D01*
X130444761Y-119832380D01*
X130349523Y-119784761D01*
X130301904Y-119737142D01*
X130254285Y-119641904D01*
X130206666Y-119451428D01*
X130206666Y-119213333D01*
X130254285Y-119022857D01*
X130301904Y-118927619D01*
X130349523Y-118880000D01*
X130444761Y-118832380D01*
X109728095Y-129325714D02*
X109728095Y-129992380D01*
X109490000Y-128944761D02*
X109251904Y-129659047D01*
X109870952Y-129659047D01*
X110156666Y-128992380D02*
X110823333Y-128992380D01*
X110394761Y-129992380D01*
X111394761Y-128992380D02*
X111490000Y-128992380D01*
X111585238Y-129040000D01*
X111632857Y-129087619D01*
X111680476Y-129182857D01*
X111728095Y-129373333D01*
X111728095Y-129611428D01*
X111680476Y-129801904D01*
X111632857Y-129897142D01*
X111585238Y-129944761D01*
X111490000Y-129992380D01*
X111394761Y-129992380D01*
X111299523Y-129944761D01*
X111251904Y-129897142D01*
X111204285Y-129801904D01*
X111156666Y-129611428D01*
X111156666Y-129373333D01*
X111204285Y-129182857D01*
X111251904Y-129087619D01*
X111299523Y-129040000D01*
X111394761Y-128992380D01*
X109728095Y-124245714D02*
X109728095Y-124912380D01*
X109490000Y-123864761D02*
X109251904Y-124579047D01*
X109870952Y-124579047D01*
X110156666Y-123912380D02*
X110823333Y-123912380D01*
X110394761Y-124912380D01*
X111394761Y-123912380D02*
X111490000Y-123912380D01*
X111585238Y-123960000D01*
X111632857Y-124007619D01*
X111680476Y-124102857D01*
X111728095Y-124293333D01*
X111728095Y-124531428D01*
X111680476Y-124721904D01*
X111632857Y-124817142D01*
X111585238Y-124864761D01*
X111490000Y-124912380D01*
X111394761Y-124912380D01*
X111299523Y-124864761D01*
X111251904Y-124817142D01*
X111204285Y-124721904D01*
X111156666Y-124531428D01*
X111156666Y-124293333D01*
X111204285Y-124102857D01*
X111251904Y-124007619D01*
X111299523Y-123960000D01*
X111394761Y-123912380D01*
X109037619Y-118832380D02*
X109656666Y-118832380D01*
X109323333Y-119213333D01*
X109466190Y-119213333D01*
X109561428Y-119260952D01*
X109609047Y-119308571D01*
X109656666Y-119403809D01*
X109656666Y-119641904D01*
X109609047Y-119737142D01*
X109561428Y-119784761D01*
X109466190Y-119832380D01*
X109180476Y-119832380D01*
X109085238Y-119784761D01*
X109037619Y-119737142D01*
X110085238Y-119737142D02*
X110132857Y-119784761D01*
X110085238Y-119832380D01*
X110037619Y-119784761D01*
X110085238Y-119737142D01*
X110085238Y-119832380D01*
X110466190Y-118832380D02*
X111085238Y-118832380D01*
X110751904Y-119213333D01*
X110894761Y-119213333D01*
X110990000Y-119260952D01*
X111037619Y-119308571D01*
X111085238Y-119403809D01*
X111085238Y-119641904D01*
X111037619Y-119737142D01*
X110990000Y-119784761D01*
X110894761Y-119832380D01*
X110609047Y-119832380D01*
X110513809Y-119784761D01*
X110466190Y-119737142D01*
X111513809Y-119832380D02*
X111513809Y-118832380D01*
X111609047Y-119451428D02*
X111894761Y-119832380D01*
X111894761Y-119165714D02*
X111513809Y-119546666D01*
D11*
%TO.C,REF\u002A\u002A*%
G36*
X181241878Y-121255776D02*
G01*
X181347612Y-121256355D01*
X181424132Y-121257922D01*
X181476372Y-121260972D01*
X181509263Y-121265996D01*
X181527737Y-121273489D01*
X181536727Y-121283944D01*
X181541163Y-121297853D01*
X181541594Y-121299654D01*
X181548333Y-121332145D01*
X181560808Y-121396252D01*
X181577719Y-121485151D01*
X181597771Y-121592019D01*
X181619664Y-121710033D01*
X181620429Y-121714178D01*
X181642359Y-121829831D01*
X181662877Y-121932014D01*
X181680659Y-122014598D01*
X181694381Y-122071456D01*
X181702718Y-122096458D01*
X181703116Y-122096901D01*
X181727677Y-122109110D01*
X181778315Y-122129456D01*
X181844095Y-122153545D01*
X181844461Y-122153674D01*
X181927317Y-122184818D01*
X182025000Y-122224491D01*
X182117077Y-122264381D01*
X182121434Y-122266353D01*
X182271407Y-122334420D01*
X182603498Y-122107639D01*
X182705374Y-122038504D01*
X182797657Y-121976697D01*
X182875003Y-121925733D01*
X182932064Y-121889127D01*
X182963495Y-121870394D01*
X182966479Y-121869004D01*
X182989321Y-121875190D01*
X183031982Y-121905035D01*
X183096128Y-121959947D01*
X183183421Y-122041334D01*
X183272535Y-122127922D01*
X183358441Y-122213247D01*
X183435327Y-122291108D01*
X183498564Y-122356697D01*
X183543523Y-122405205D01*
X183565576Y-122431825D01*
X183566396Y-122433195D01*
X183568834Y-122451463D01*
X183559650Y-122481295D01*
X183536574Y-122526721D01*
X183497337Y-122591770D01*
X183439670Y-122680470D01*
X183362795Y-122794657D01*
X183294570Y-122895162D01*
X183233582Y-122985303D01*
X183183356Y-123059849D01*
X183147416Y-123113565D01*
X183129287Y-123141218D01*
X183128146Y-123143095D01*
X183130359Y-123169590D01*
X183147138Y-123221086D01*
X183175142Y-123287851D01*
X183185122Y-123309172D01*
X183228672Y-123404159D01*
X183275134Y-123511937D01*
X183312877Y-123605192D01*
X183340073Y-123674406D01*
X183361675Y-123727006D01*
X183374158Y-123754497D01*
X183375709Y-123756616D01*
X183398668Y-123760124D01*
X183452786Y-123769738D01*
X183530868Y-123784089D01*
X183625719Y-123801807D01*
X183730143Y-123821525D01*
X183836944Y-123841874D01*
X183938926Y-123861486D01*
X184028894Y-123878991D01*
X184099653Y-123893022D01*
X184144006Y-123902209D01*
X184154885Y-123904807D01*
X184166122Y-123911218D01*
X184174605Y-123925697D01*
X184180714Y-123953133D01*
X184184832Y-123998411D01*
X184187341Y-124066420D01*
X184188621Y-124162047D01*
X184189054Y-124290180D01*
X184189077Y-124342701D01*
X184189077Y-124769845D01*
X184086500Y-124790091D01*
X184029431Y-124801070D01*
X183944269Y-124817095D01*
X183841372Y-124836233D01*
X183731096Y-124856551D01*
X183700615Y-124862132D01*
X183598855Y-124881917D01*
X183510205Y-124901373D01*
X183442108Y-124918697D01*
X183402004Y-124932088D01*
X183395323Y-124936079D01*
X183378919Y-124964342D01*
X183355399Y-125019109D01*
X183329316Y-125089588D01*
X183324142Y-125104769D01*
X183289956Y-125198896D01*
X183247523Y-125305101D01*
X183205997Y-125400473D01*
X183205792Y-125400916D01*
X183136640Y-125550525D01*
X183591512Y-126219617D01*
X183299500Y-126512116D01*
X183211180Y-126599170D01*
X183130625Y-126675909D01*
X183062360Y-126738237D01*
X183010908Y-126782056D01*
X182980794Y-126803270D01*
X182976474Y-126804616D01*
X182951111Y-126794016D01*
X182899358Y-126764547D01*
X182826868Y-126719705D01*
X182739294Y-126662984D01*
X182644612Y-126599462D01*
X182548516Y-126534668D01*
X182462837Y-126478287D01*
X182393016Y-126433788D01*
X182344494Y-126404639D01*
X182322782Y-126394308D01*
X182296293Y-126403050D01*
X182246062Y-126426087D01*
X182182451Y-126458631D01*
X182175708Y-126462249D01*
X182090046Y-126505210D01*
X182031306Y-126526279D01*
X181994772Y-126526503D01*
X181975731Y-126506928D01*
X181975620Y-126506654D01*
X181966102Y-126483472D01*
X181943403Y-126428441D01*
X181909282Y-126345822D01*
X181865500Y-126239872D01*
X181813816Y-126114852D01*
X181755992Y-125975020D01*
X181699991Y-125839637D01*
X181638447Y-125690234D01*
X181581939Y-125551832D01*
X181532161Y-125428673D01*
X181490806Y-125325002D01*
X181459568Y-125245059D01*
X181440141Y-125193088D01*
X181434154Y-125173692D01*
X181449168Y-125151443D01*
X181488439Y-125115982D01*
X181540807Y-125076887D01*
X181689941Y-124953245D01*
X181806511Y-124811522D01*
X181889118Y-124654704D01*
X181936366Y-124485775D01*
X181946857Y-124307722D01*
X181939231Y-124225539D01*
X181897682Y-124055031D01*
X181826123Y-123904459D01*
X181728995Y-123775309D01*
X181610734Y-123669064D01*
X181475780Y-123587210D01*
X181328571Y-123531232D01*
X181173544Y-123502615D01*
X181015139Y-123502844D01*
X180857794Y-123533405D01*
X180705946Y-123595782D01*
X180564035Y-123691460D01*
X180504803Y-123745572D01*
X180391203Y-123884520D01*
X180312106Y-124036361D01*
X180266986Y-124196667D01*
X180255316Y-124361012D01*
X180276569Y-124524971D01*
X180330220Y-124684118D01*
X180415740Y-124834025D01*
X180532605Y-124970267D01*
X180663193Y-125076887D01*
X180717588Y-125117642D01*
X180756014Y-125152718D01*
X180769846Y-125173726D01*
X180762603Y-125196635D01*
X180742005Y-125251365D01*
X180709746Y-125333672D01*
X180667521Y-125439315D01*
X180617023Y-125564050D01*
X180559948Y-125703636D01*
X180503854Y-125839670D01*
X180441967Y-125989201D01*
X180384644Y-126127767D01*
X180333644Y-126251107D01*
X180290727Y-126354964D01*
X180257653Y-126435080D01*
X180236181Y-126487195D01*
X180228225Y-126506654D01*
X180209429Y-126526423D01*
X180173074Y-126526365D01*
X180114479Y-126505441D01*
X180028968Y-126462613D01*
X180028292Y-126462249D01*
X179963907Y-126429012D01*
X179911861Y-126404802D01*
X179882512Y-126394404D01*
X179881217Y-126394308D01*
X179859124Y-126404855D01*
X179810348Y-126434184D01*
X179740331Y-126478827D01*
X179654514Y-126535314D01*
X179559388Y-126599462D01*
X179462540Y-126664411D01*
X179375253Y-126720896D01*
X179303181Y-126765421D01*
X179251977Y-126794490D01*
X179227526Y-126804616D01*
X179205010Y-126791307D01*
X179159742Y-126754112D01*
X179096244Y-126697128D01*
X179019039Y-126624449D01*
X178932651Y-126540171D01*
X178904399Y-126512016D01*
X178612287Y-126219416D01*
X178834631Y-125893104D01*
X178902202Y-125792897D01*
X178961507Y-125702963D01*
X179009217Y-125628510D01*
X179042007Y-125574751D01*
X179056548Y-125546894D01*
X179056974Y-125544912D01*
X179049308Y-125518655D01*
X179028689Y-125465837D01*
X178998685Y-125395310D01*
X178977625Y-125348093D01*
X178938248Y-125257694D01*
X178901165Y-125166366D01*
X178872415Y-125089200D01*
X178864605Y-125065692D01*
X178842417Y-125002916D01*
X178820727Y-124954411D01*
X178808813Y-124936079D01*
X178782523Y-124924859D01*
X178725142Y-124908954D01*
X178644118Y-124890167D01*
X178546895Y-124870299D01*
X178503385Y-124862132D01*
X178392896Y-124841829D01*
X178286916Y-124822170D01*
X178195801Y-124805088D01*
X178129908Y-124792518D01*
X178117500Y-124790091D01*
X178014923Y-124769845D01*
X178014923Y-124342701D01*
X178015153Y-124202246D01*
X178016099Y-124095979D01*
X178018141Y-124019013D01*
X178021662Y-123966460D01*
X178027043Y-123933433D01*
X178034666Y-123915045D01*
X178044912Y-123906408D01*
X178049115Y-123904807D01*
X178074470Y-123899127D01*
X178130484Y-123887795D01*
X178209964Y-123872179D01*
X178305712Y-123853647D01*
X178410533Y-123833569D01*
X178517232Y-123813312D01*
X178618613Y-123794246D01*
X178707479Y-123777739D01*
X178776637Y-123765159D01*
X178818889Y-123757875D01*
X178828290Y-123756616D01*
X178836807Y-123739763D01*
X178855660Y-123694870D01*
X178881324Y-123630430D01*
X178891123Y-123605192D01*
X178930648Y-123507686D01*
X178977192Y-123399959D01*
X179018877Y-123309172D01*
X179049550Y-123239753D01*
X179069956Y-123182710D01*
X179076768Y-123147777D01*
X179075682Y-123143095D01*
X179061285Y-123120991D01*
X179028412Y-123071831D01*
X178980590Y-123000848D01*
X178921348Y-122913278D01*
X178854215Y-122814357D01*
X178840941Y-122794830D01*
X178763046Y-122679140D01*
X178705787Y-122591044D01*
X178666881Y-122526486D01*
X178644044Y-122481411D01*
X178634994Y-122451763D01*
X178637448Y-122433485D01*
X178637511Y-122433369D01*
X178656827Y-122409361D01*
X178699551Y-122362947D01*
X178761051Y-122298937D01*
X178836698Y-122222145D01*
X178921861Y-122137382D01*
X178931465Y-122127922D01*
X179038790Y-122023989D01*
X179121615Y-121947675D01*
X179181605Y-121897571D01*
X179220423Y-121872270D01*
X179237520Y-121869004D01*
X179262473Y-121883250D01*
X179314255Y-121916156D01*
X179387520Y-121964208D01*
X179476920Y-122023890D01*
X179577111Y-122091688D01*
X179600501Y-122107639D01*
X179932593Y-122334420D01*
X180082565Y-122266353D01*
X180173770Y-122226685D01*
X180271669Y-122186791D01*
X180355831Y-122154983D01*
X180359538Y-122153674D01*
X180425369Y-122129576D01*
X180476116Y-122109200D01*
X180500842Y-122096936D01*
X180500884Y-122096901D01*
X180508729Y-122074734D01*
X180522066Y-122020217D01*
X180539570Y-121939480D01*
X180559917Y-121838650D01*
X180581782Y-121723856D01*
X180583571Y-121714178D01*
X180605504Y-121595904D01*
X180625640Y-121488542D01*
X180642680Y-121398917D01*
X180655328Y-121333851D01*
X180662284Y-121300168D01*
X180662406Y-121299654D01*
X180666639Y-121285325D01*
X180674871Y-121274507D01*
X180692033Y-121266706D01*
X180723058Y-121261429D01*
X180772878Y-121258182D01*
X180846424Y-121256472D01*
X180948629Y-121255807D01*
X181084425Y-121255693D01*
X181102000Y-121255692D01*
X181241878Y-121255776D01*
G37*
X181241878Y-121255776D02*
X181347612Y-121256355D01*
X181424132Y-121257922D01*
X181476372Y-121260972D01*
X181509263Y-121265996D01*
X181527737Y-121273489D01*
X181536727Y-121283944D01*
X181541163Y-121297853D01*
X181541594Y-121299654D01*
X181548333Y-121332145D01*
X181560808Y-121396252D01*
X181577719Y-121485151D01*
X181597771Y-121592019D01*
X181619664Y-121710033D01*
X181620429Y-121714178D01*
X181642359Y-121829831D01*
X181662877Y-121932014D01*
X181680659Y-122014598D01*
X181694381Y-122071456D01*
X181702718Y-122096458D01*
X181703116Y-122096901D01*
X181727677Y-122109110D01*
X181778315Y-122129456D01*
X181844095Y-122153545D01*
X181844461Y-122153674D01*
X181927317Y-122184818D01*
X182025000Y-122224491D01*
X182117077Y-122264381D01*
X182121434Y-122266353D01*
X182271407Y-122334420D01*
X182603498Y-122107639D01*
X182705374Y-122038504D01*
X182797657Y-121976697D01*
X182875003Y-121925733D01*
X182932064Y-121889127D01*
X182963495Y-121870394D01*
X182966479Y-121869004D01*
X182989321Y-121875190D01*
X183031982Y-121905035D01*
X183096128Y-121959947D01*
X183183421Y-122041334D01*
X183272535Y-122127922D01*
X183358441Y-122213247D01*
X183435327Y-122291108D01*
X183498564Y-122356697D01*
X183543523Y-122405205D01*
X183565576Y-122431825D01*
X183566396Y-122433195D01*
X183568834Y-122451463D01*
X183559650Y-122481295D01*
X183536574Y-122526721D01*
X183497337Y-122591770D01*
X183439670Y-122680470D01*
X183362795Y-122794657D01*
X183294570Y-122895162D01*
X183233582Y-122985303D01*
X183183356Y-123059849D01*
X183147416Y-123113565D01*
X183129287Y-123141218D01*
X183128146Y-123143095D01*
X183130359Y-123169590D01*
X183147138Y-123221086D01*
X183175142Y-123287851D01*
X183185122Y-123309172D01*
X183228672Y-123404159D01*
X183275134Y-123511937D01*
X183312877Y-123605192D01*
X183340073Y-123674406D01*
X183361675Y-123727006D01*
X183374158Y-123754497D01*
X183375709Y-123756616D01*
X183398668Y-123760124D01*
X183452786Y-123769738D01*
X183530868Y-123784089D01*
X183625719Y-123801807D01*
X183730143Y-123821525D01*
X183836944Y-123841874D01*
X183938926Y-123861486D01*
X184028894Y-123878991D01*
X184099653Y-123893022D01*
X184144006Y-123902209D01*
X184154885Y-123904807D01*
X184166122Y-123911218D01*
X184174605Y-123925697D01*
X184180714Y-123953133D01*
X184184832Y-123998411D01*
X184187341Y-124066420D01*
X184188621Y-124162047D01*
X184189054Y-124290180D01*
X184189077Y-124342701D01*
X184189077Y-124769845D01*
X184086500Y-124790091D01*
X184029431Y-124801070D01*
X183944269Y-124817095D01*
X183841372Y-124836233D01*
X183731096Y-124856551D01*
X183700615Y-124862132D01*
X183598855Y-124881917D01*
X183510205Y-124901373D01*
X183442108Y-124918697D01*
X183402004Y-124932088D01*
X183395323Y-124936079D01*
X183378919Y-124964342D01*
X183355399Y-125019109D01*
X183329316Y-125089588D01*
X183324142Y-125104769D01*
X183289956Y-125198896D01*
X183247523Y-125305101D01*
X183205997Y-125400473D01*
X183205792Y-125400916D01*
X183136640Y-125550525D01*
X183591512Y-126219617D01*
X183299500Y-126512116D01*
X183211180Y-126599170D01*
X183130625Y-126675909D01*
X183062360Y-126738237D01*
X183010908Y-126782056D01*
X182980794Y-126803270D01*
X182976474Y-126804616D01*
X182951111Y-126794016D01*
X182899358Y-126764547D01*
X182826868Y-126719705D01*
X182739294Y-126662984D01*
X182644612Y-126599462D01*
X182548516Y-126534668D01*
X182462837Y-126478287D01*
X182393016Y-126433788D01*
X182344494Y-126404639D01*
X182322782Y-126394308D01*
X182296293Y-126403050D01*
X182246062Y-126426087D01*
X182182451Y-126458631D01*
X182175708Y-126462249D01*
X182090046Y-126505210D01*
X182031306Y-126526279D01*
X181994772Y-126526503D01*
X181975731Y-126506928D01*
X181975620Y-126506654D01*
X181966102Y-126483472D01*
X181943403Y-126428441D01*
X181909282Y-126345822D01*
X181865500Y-126239872D01*
X181813816Y-126114852D01*
X181755992Y-125975020D01*
X181699991Y-125839637D01*
X181638447Y-125690234D01*
X181581939Y-125551832D01*
X181532161Y-125428673D01*
X181490806Y-125325002D01*
X181459568Y-125245059D01*
X181440141Y-125193088D01*
X181434154Y-125173692D01*
X181449168Y-125151443D01*
X181488439Y-125115982D01*
X181540807Y-125076887D01*
X181689941Y-124953245D01*
X181806511Y-124811522D01*
X181889118Y-124654704D01*
X181936366Y-124485775D01*
X181946857Y-124307722D01*
X181939231Y-124225539D01*
X181897682Y-124055031D01*
X181826123Y-123904459D01*
X181728995Y-123775309D01*
X181610734Y-123669064D01*
X181475780Y-123587210D01*
X181328571Y-123531232D01*
X181173544Y-123502615D01*
X181015139Y-123502844D01*
X180857794Y-123533405D01*
X180705946Y-123595782D01*
X180564035Y-123691460D01*
X180504803Y-123745572D01*
X180391203Y-123884520D01*
X180312106Y-124036361D01*
X180266986Y-124196667D01*
X180255316Y-124361012D01*
X180276569Y-124524971D01*
X180330220Y-124684118D01*
X180415740Y-124834025D01*
X180532605Y-124970267D01*
X180663193Y-125076887D01*
X180717588Y-125117642D01*
X180756014Y-125152718D01*
X180769846Y-125173726D01*
X180762603Y-125196635D01*
X180742005Y-125251365D01*
X180709746Y-125333672D01*
X180667521Y-125439315D01*
X180617023Y-125564050D01*
X180559948Y-125703636D01*
X180503854Y-125839670D01*
X180441967Y-125989201D01*
X180384644Y-126127767D01*
X180333644Y-126251107D01*
X180290727Y-126354964D01*
X180257653Y-126435080D01*
X180236181Y-126487195D01*
X180228225Y-126506654D01*
X180209429Y-126526423D01*
X180173074Y-126526365D01*
X180114479Y-126505441D01*
X180028968Y-126462613D01*
X180028292Y-126462249D01*
X179963907Y-126429012D01*
X179911861Y-126404802D01*
X179882512Y-126394404D01*
X179881217Y-126394308D01*
X179859124Y-126404855D01*
X179810348Y-126434184D01*
X179740331Y-126478827D01*
X179654514Y-126535314D01*
X179559388Y-126599462D01*
X179462540Y-126664411D01*
X179375253Y-126720896D01*
X179303181Y-126765421D01*
X179251977Y-126794490D01*
X179227526Y-126804616D01*
X179205010Y-126791307D01*
X179159742Y-126754112D01*
X179096244Y-126697128D01*
X179019039Y-126624449D01*
X178932651Y-126540171D01*
X178904399Y-126512016D01*
X178612287Y-126219416D01*
X178834631Y-125893104D01*
X178902202Y-125792897D01*
X178961507Y-125702963D01*
X179009217Y-125628510D01*
X179042007Y-125574751D01*
X179056548Y-125546894D01*
X179056974Y-125544912D01*
X179049308Y-125518655D01*
X179028689Y-125465837D01*
X178998685Y-125395310D01*
X178977625Y-125348093D01*
X178938248Y-125257694D01*
X178901165Y-125166366D01*
X178872415Y-125089200D01*
X178864605Y-125065692D01*
X178842417Y-125002916D01*
X178820727Y-124954411D01*
X178808813Y-124936079D01*
X178782523Y-124924859D01*
X178725142Y-124908954D01*
X178644118Y-124890167D01*
X178546895Y-124870299D01*
X178503385Y-124862132D01*
X178392896Y-124841829D01*
X178286916Y-124822170D01*
X178195801Y-124805088D01*
X178129908Y-124792518D01*
X178117500Y-124790091D01*
X178014923Y-124769845D01*
X178014923Y-124342701D01*
X178015153Y-124202246D01*
X178016099Y-124095979D01*
X178018141Y-124019013D01*
X178021662Y-123966460D01*
X178027043Y-123933433D01*
X178034666Y-123915045D01*
X178044912Y-123906408D01*
X178049115Y-123904807D01*
X178074470Y-123899127D01*
X178130484Y-123887795D01*
X178209964Y-123872179D01*
X178305712Y-123853647D01*
X178410533Y-123833569D01*
X178517232Y-123813312D01*
X178618613Y-123794246D01*
X178707479Y-123777739D01*
X178776637Y-123765159D01*
X178818889Y-123757875D01*
X178828290Y-123756616D01*
X178836807Y-123739763D01*
X178855660Y-123694870D01*
X178881324Y-123630430D01*
X178891123Y-123605192D01*
X178930648Y-123507686D01*
X178977192Y-123399959D01*
X179018877Y-123309172D01*
X179049550Y-123239753D01*
X179069956Y-123182710D01*
X179076768Y-123147777D01*
X179075682Y-123143095D01*
X179061285Y-123120991D01*
X179028412Y-123071831D01*
X178980590Y-123000848D01*
X178921348Y-122913278D01*
X178854215Y-122814357D01*
X178840941Y-122794830D01*
X178763046Y-122679140D01*
X178705787Y-122591044D01*
X178666881Y-122526486D01*
X178644044Y-122481411D01*
X178634994Y-122451763D01*
X178637448Y-122433485D01*
X178637511Y-122433369D01*
X178656827Y-122409361D01*
X178699551Y-122362947D01*
X178761051Y-122298937D01*
X178836698Y-122222145D01*
X178921861Y-122137382D01*
X178931465Y-122127922D01*
X179038790Y-122023989D01*
X179121615Y-121947675D01*
X179181605Y-121897571D01*
X179220423Y-121872270D01*
X179237520Y-121869004D01*
X179262473Y-121883250D01*
X179314255Y-121916156D01*
X179387520Y-121964208D01*
X179476920Y-122023890D01*
X179577111Y-122091688D01*
X179600501Y-122107639D01*
X179932593Y-122334420D01*
X180082565Y-122266353D01*
X180173770Y-122226685D01*
X180271669Y-122186791D01*
X180355831Y-122154983D01*
X180359538Y-122153674D01*
X180425369Y-122129576D01*
X180476116Y-122109200D01*
X180500842Y-122096936D01*
X180500884Y-122096901D01*
X180508729Y-122074734D01*
X180522066Y-122020217D01*
X180539570Y-121939480D01*
X180559917Y-121838650D01*
X180581782Y-121723856D01*
X180583571Y-121714178D01*
X180605504Y-121595904D01*
X180625640Y-121488542D01*
X180642680Y-121398917D01*
X180655328Y-121333851D01*
X180662284Y-121300168D01*
X180662406Y-121299654D01*
X180666639Y-121285325D01*
X180674871Y-121274507D01*
X180692033Y-121266706D01*
X180723058Y-121261429D01*
X180772878Y-121258182D01*
X180846424Y-121256472D01*
X180948629Y-121255807D01*
X181084425Y-121255693D01*
X181102000Y-121255692D01*
X181241878Y-121255776D01*
G36*
X185347224Y-127615838D02*
G01*
X185424528Y-127666361D01*
X185461814Y-127711590D01*
X185491353Y-127793663D01*
X185493699Y-127858607D01*
X185488385Y-127945445D01*
X185288115Y-128033103D01*
X185190739Y-128077887D01*
X185127113Y-128113913D01*
X185094029Y-128145117D01*
X185088280Y-128175436D01*
X185106658Y-128208805D01*
X185126923Y-128230923D01*
X185185889Y-128266393D01*
X185250024Y-128268879D01*
X185308926Y-128241235D01*
X185352197Y-128186320D01*
X185359936Y-128166928D01*
X185397006Y-128106364D01*
X185439654Y-128080552D01*
X185498154Y-128058471D01*
X185498154Y-128142184D01*
X185492982Y-128199150D01*
X185472723Y-128247189D01*
X185430262Y-128302346D01*
X185423951Y-128309514D01*
X185376720Y-128358585D01*
X185336121Y-128384920D01*
X185285328Y-128397035D01*
X185243220Y-128401003D01*
X185167902Y-128401991D01*
X185114286Y-128389466D01*
X185080838Y-128370869D01*
X185028268Y-128329975D01*
X184991879Y-128285748D01*
X184968850Y-128230126D01*
X184956359Y-128155047D01*
X184951587Y-128052449D01*
X184951206Y-128000376D01*
X184952501Y-127937948D01*
X185070471Y-127937948D01*
X185071839Y-127971438D01*
X185075249Y-127976923D01*
X185097753Y-127969472D01*
X185146182Y-127949753D01*
X185210908Y-127921718D01*
X185224443Y-127915692D01*
X185306244Y-127874096D01*
X185351312Y-127837538D01*
X185361217Y-127803296D01*
X185337526Y-127768648D01*
X185317960Y-127753339D01*
X185247360Y-127722721D01*
X185181280Y-127727780D01*
X185125959Y-127765151D01*
X185087636Y-127831473D01*
X185075349Y-127884116D01*
X185070471Y-127937948D01*
X184952501Y-127937948D01*
X184953730Y-127878720D01*
X184963032Y-127788710D01*
X184981460Y-127723167D01*
X185011360Y-127674912D01*
X185055080Y-127636767D01*
X185074141Y-127624440D01*
X185160726Y-127592336D01*
X185255522Y-127590316D01*
X185347224Y-127615838D01*
G37*
X185347224Y-127615838D02*
X185424528Y-127666361D01*
X185461814Y-127711590D01*
X185491353Y-127793663D01*
X185493699Y-127858607D01*
X185488385Y-127945445D01*
X185288115Y-128033103D01*
X185190739Y-128077887D01*
X185127113Y-128113913D01*
X185094029Y-128145117D01*
X185088280Y-128175436D01*
X185106658Y-128208805D01*
X185126923Y-128230923D01*
X185185889Y-128266393D01*
X185250024Y-128268879D01*
X185308926Y-128241235D01*
X185352197Y-128186320D01*
X185359936Y-128166928D01*
X185397006Y-128106364D01*
X185439654Y-128080552D01*
X185498154Y-128058471D01*
X185498154Y-128142184D01*
X185492982Y-128199150D01*
X185472723Y-128247189D01*
X185430262Y-128302346D01*
X185423951Y-128309514D01*
X185376720Y-128358585D01*
X185336121Y-128384920D01*
X185285328Y-128397035D01*
X185243220Y-128401003D01*
X185167902Y-128401991D01*
X185114286Y-128389466D01*
X185080838Y-128370869D01*
X185028268Y-128329975D01*
X184991879Y-128285748D01*
X184968850Y-128230126D01*
X184956359Y-128155047D01*
X184951587Y-128052449D01*
X184951206Y-128000376D01*
X184952501Y-127937948D01*
X185070471Y-127937948D01*
X185071839Y-127971438D01*
X185075249Y-127976923D01*
X185097753Y-127969472D01*
X185146182Y-127949753D01*
X185210908Y-127921718D01*
X185224443Y-127915692D01*
X185306244Y-127874096D01*
X185351312Y-127837538D01*
X185361217Y-127803296D01*
X185337526Y-127768648D01*
X185317960Y-127753339D01*
X185247360Y-127722721D01*
X185181280Y-127727780D01*
X185125959Y-127765151D01*
X185087636Y-127831473D01*
X185075349Y-127884116D01*
X185070471Y-127937948D01*
X184952501Y-127937948D01*
X184953730Y-127878720D01*
X184963032Y-127788710D01*
X184981460Y-127723167D01*
X185011360Y-127674912D01*
X185055080Y-127636767D01*
X185074141Y-127624440D01*
X185160726Y-127592336D01*
X185255522Y-127590316D01*
X185347224Y-127615838D01*
G36*
X184672807Y-127604782D02*
G01*
X184696161Y-127614988D01*
X184751902Y-127659134D01*
X184799569Y-127722967D01*
X184829048Y-127791087D01*
X184833846Y-127824670D01*
X184817760Y-127871556D01*
X184782475Y-127896365D01*
X184744644Y-127911387D01*
X184727321Y-127914155D01*
X184718886Y-127894066D01*
X184702230Y-127850351D01*
X184694923Y-127830598D01*
X184653948Y-127762271D01*
X184594622Y-127728191D01*
X184518552Y-127729239D01*
X184512918Y-127730581D01*
X184472305Y-127749836D01*
X184442448Y-127787375D01*
X184422055Y-127847809D01*
X184409836Y-127935751D01*
X184404500Y-128055813D01*
X184404000Y-128119698D01*
X184403752Y-128220403D01*
X184402126Y-128289054D01*
X184397801Y-128332673D01*
X184389454Y-128358282D01*
X184375765Y-128372903D01*
X184355411Y-128383558D01*
X184354234Y-128384095D01*
X184315038Y-128400667D01*
X184295619Y-128406769D01*
X184292635Y-128388319D01*
X184290081Y-128337323D01*
X184288140Y-128260308D01*
X184286997Y-128163805D01*
X184286769Y-128093184D01*
X184287932Y-127956525D01*
X184292479Y-127852851D01*
X184301999Y-127776108D01*
X184318081Y-127720246D01*
X184342313Y-127679212D01*
X184376286Y-127646954D01*
X184409833Y-127624440D01*
X184490499Y-127594476D01*
X184584381Y-127587718D01*
X184672807Y-127604782D01*
G37*
X184672807Y-127604782D02*
X184696161Y-127614988D01*
X184751902Y-127659134D01*
X184799569Y-127722967D01*
X184829048Y-127791087D01*
X184833846Y-127824670D01*
X184817760Y-127871556D01*
X184782475Y-127896365D01*
X184744644Y-127911387D01*
X184727321Y-127914155D01*
X184718886Y-127894066D01*
X184702230Y-127850351D01*
X184694923Y-127830598D01*
X184653948Y-127762271D01*
X184594622Y-127728191D01*
X184518552Y-127729239D01*
X184512918Y-127730581D01*
X184472305Y-127749836D01*
X184442448Y-127787375D01*
X184422055Y-127847809D01*
X184409836Y-127935751D01*
X184404500Y-128055813D01*
X184404000Y-128119698D01*
X184403752Y-128220403D01*
X184402126Y-128289054D01*
X184397801Y-128332673D01*
X184389454Y-128358282D01*
X184375765Y-128372903D01*
X184355411Y-128383558D01*
X184354234Y-128384095D01*
X184315038Y-128400667D01*
X184295619Y-128406769D01*
X184292635Y-128388319D01*
X184290081Y-128337323D01*
X184288140Y-128260308D01*
X184286997Y-128163805D01*
X184286769Y-128093184D01*
X184287932Y-127956525D01*
X184292479Y-127852851D01*
X184301999Y-127776108D01*
X184318081Y-127720246D01*
X184342313Y-127679212D01*
X184376286Y-127646954D01*
X184409833Y-127624440D01*
X184490499Y-127594476D01*
X184584381Y-127587718D01*
X184672807Y-127604782D01*
G36*
X183989333Y-127601528D02*
G01*
X184045590Y-127627117D01*
X184089747Y-127658124D01*
X184122101Y-127692795D01*
X184144438Y-127737520D01*
X184158546Y-127798692D01*
X184166211Y-127882701D01*
X184169220Y-127995940D01*
X184169538Y-128070509D01*
X184169538Y-128361420D01*
X184119773Y-128384095D01*
X184080576Y-128400667D01*
X184061157Y-128406769D01*
X184057442Y-128388610D01*
X184054495Y-128339648D01*
X184052691Y-128268153D01*
X184052308Y-128211385D01*
X184050661Y-128129371D01*
X184046222Y-128064309D01*
X184039740Y-128024467D01*
X184034590Y-128016000D01*
X183999977Y-128024646D01*
X183945640Y-128046823D01*
X183882722Y-128076886D01*
X183822368Y-128109192D01*
X183775721Y-128138098D01*
X183753926Y-128157961D01*
X183753839Y-128158175D01*
X183755714Y-128194935D01*
X183772525Y-128230026D01*
X183802039Y-128258528D01*
X183845116Y-128268061D01*
X183881932Y-128266950D01*
X183934074Y-128266133D01*
X183961444Y-128278349D01*
X183977882Y-128310624D01*
X183979955Y-128316710D01*
X183987081Y-128362739D01*
X183968024Y-128390687D01*
X183918353Y-128404007D01*
X183864697Y-128406470D01*
X183768142Y-128388210D01*
X183718159Y-128362131D01*
X183656429Y-128300868D01*
X183623690Y-128225670D01*
X183620753Y-128146211D01*
X183648424Y-128072167D01*
X183690047Y-128025769D01*
X183731604Y-127999793D01*
X183796922Y-127966907D01*
X183873038Y-127933557D01*
X183885726Y-127928461D01*
X183969333Y-127891565D01*
X184017530Y-127859046D01*
X184033030Y-127826718D01*
X184018550Y-127790394D01*
X183993692Y-127762000D01*
X183934939Y-127727039D01*
X183870293Y-127724417D01*
X183811008Y-127751358D01*
X183768339Y-127805088D01*
X183762739Y-127818950D01*
X183730133Y-127869936D01*
X183682530Y-127907787D01*
X183622461Y-127938850D01*
X183622461Y-127850768D01*
X183625997Y-127796951D01*
X183641156Y-127754534D01*
X183674768Y-127709279D01*
X183707035Y-127674420D01*
X183757209Y-127625062D01*
X183796193Y-127598547D01*
X183838064Y-127587911D01*
X183885460Y-127586154D01*
X183989333Y-127601528D01*
G37*
X183989333Y-127601528D02*
X184045590Y-127627117D01*
X184089747Y-127658124D01*
X184122101Y-127692795D01*
X184144438Y-127737520D01*
X184158546Y-127798692D01*
X184166211Y-127882701D01*
X184169220Y-127995940D01*
X184169538Y-128070509D01*
X184169538Y-128361420D01*
X184119773Y-128384095D01*
X184080576Y-128400667D01*
X184061157Y-128406769D01*
X184057442Y-128388610D01*
X184054495Y-128339648D01*
X184052691Y-128268153D01*
X184052308Y-128211385D01*
X184050661Y-128129371D01*
X184046222Y-128064309D01*
X184039740Y-128024467D01*
X184034590Y-128016000D01*
X183999977Y-128024646D01*
X183945640Y-128046823D01*
X183882722Y-128076886D01*
X183822368Y-128109192D01*
X183775721Y-128138098D01*
X183753926Y-128157961D01*
X183753839Y-128158175D01*
X183755714Y-128194935D01*
X183772525Y-128230026D01*
X183802039Y-128258528D01*
X183845116Y-128268061D01*
X183881932Y-128266950D01*
X183934074Y-128266133D01*
X183961444Y-128278349D01*
X183977882Y-128310624D01*
X183979955Y-128316710D01*
X183987081Y-128362739D01*
X183968024Y-128390687D01*
X183918353Y-128404007D01*
X183864697Y-128406470D01*
X183768142Y-128388210D01*
X183718159Y-128362131D01*
X183656429Y-128300868D01*
X183623690Y-128225670D01*
X183620753Y-128146211D01*
X183648424Y-128072167D01*
X183690047Y-128025769D01*
X183731604Y-127999793D01*
X183796922Y-127966907D01*
X183873038Y-127933557D01*
X183885726Y-127928461D01*
X183969333Y-127891565D01*
X184017530Y-127859046D01*
X184033030Y-127826718D01*
X184018550Y-127790394D01*
X183993692Y-127762000D01*
X183934939Y-127727039D01*
X183870293Y-127724417D01*
X183811008Y-127751358D01*
X183768339Y-127805088D01*
X183762739Y-127818950D01*
X183730133Y-127869936D01*
X183682530Y-127907787D01*
X183622461Y-127938850D01*
X183622461Y-127850768D01*
X183625997Y-127796951D01*
X183641156Y-127754534D01*
X183674768Y-127709279D01*
X183707035Y-127674420D01*
X183757209Y-127625062D01*
X183796193Y-127598547D01*
X183838064Y-127587911D01*
X183885460Y-127586154D01*
X183989333Y-127601528D01*
G36*
X183497929Y-127604662D02*
G01*
X183500911Y-127656068D01*
X183503247Y-127734192D01*
X183504749Y-127832857D01*
X183505231Y-127936343D01*
X183505231Y-128286533D01*
X183443401Y-128348363D01*
X183400793Y-128386462D01*
X183363390Y-128401895D01*
X183312270Y-128400918D01*
X183291978Y-128398433D01*
X183228554Y-128391200D01*
X183176095Y-128387055D01*
X183163308Y-128386672D01*
X183120199Y-128389176D01*
X183058544Y-128395462D01*
X183034638Y-128398433D01*
X182975922Y-128403028D01*
X182936464Y-128393046D01*
X182897338Y-128362228D01*
X182883215Y-128348363D01*
X182821385Y-128286533D01*
X182821385Y-127631503D01*
X182871150Y-127608829D01*
X182914002Y-127592034D01*
X182939073Y-127586154D01*
X182945501Y-127604736D01*
X182951509Y-127656655D01*
X182956697Y-127736172D01*
X182960664Y-127837546D01*
X182962577Y-127923192D01*
X182967923Y-128260231D01*
X183014560Y-128266825D01*
X183056976Y-128262214D01*
X183077760Y-128247287D01*
X183083570Y-128219377D01*
X183088530Y-128159925D01*
X183092246Y-128076466D01*
X183094324Y-127976532D01*
X183094624Y-127925104D01*
X183094923Y-127629054D01*
X183156454Y-127607604D01*
X183200004Y-127593020D01*
X183223694Y-127586219D01*
X183224377Y-127586154D01*
X183226754Y-127604642D01*
X183229366Y-127655906D01*
X183231995Y-127733649D01*
X183234421Y-127831574D01*
X183236115Y-127923192D01*
X183241461Y-128260231D01*
X183358692Y-128260231D01*
X183364072Y-127952746D01*
X183369451Y-127645261D01*
X183426601Y-127615707D01*
X183468797Y-127595413D01*
X183493770Y-127586204D01*
X183494491Y-127586154D01*
X183497929Y-127604662D01*
G37*
X183497929Y-127604662D02*
X183500911Y-127656068D01*
X183503247Y-127734192D01*
X183504749Y-127832857D01*
X183505231Y-127936343D01*
X183505231Y-128286533D01*
X183443401Y-128348363D01*
X183400793Y-128386462D01*
X183363390Y-128401895D01*
X183312270Y-128400918D01*
X183291978Y-128398433D01*
X183228554Y-128391200D01*
X183176095Y-128387055D01*
X183163308Y-128386672D01*
X183120199Y-128389176D01*
X183058544Y-128395462D01*
X183034638Y-128398433D01*
X182975922Y-128403028D01*
X182936464Y-128393046D01*
X182897338Y-128362228D01*
X182883215Y-128348363D01*
X182821385Y-128286533D01*
X182821385Y-127631503D01*
X182871150Y-127608829D01*
X182914002Y-127592034D01*
X182939073Y-127586154D01*
X182945501Y-127604736D01*
X182951509Y-127656655D01*
X182956697Y-127736172D01*
X182960664Y-127837546D01*
X182962577Y-127923192D01*
X182967923Y-128260231D01*
X183014560Y-128266825D01*
X183056976Y-128262214D01*
X183077760Y-128247287D01*
X183083570Y-128219377D01*
X183088530Y-128159925D01*
X183092246Y-128076466D01*
X183094324Y-127976532D01*
X183094624Y-127925104D01*
X183094923Y-127629054D01*
X183156454Y-127607604D01*
X183200004Y-127593020D01*
X183223694Y-127586219D01*
X183224377Y-127586154D01*
X183226754Y-127604642D01*
X183229366Y-127655906D01*
X183231995Y-127733649D01*
X183234421Y-127831574D01*
X183236115Y-127923192D01*
X183241461Y-128260231D01*
X183358692Y-128260231D01*
X183364072Y-127952746D01*
X183369451Y-127645261D01*
X183426601Y-127615707D01*
X183468797Y-127595413D01*
X183493770Y-127586204D01*
X183494491Y-127586154D01*
X183497929Y-127604662D01*
G36*
X182704081Y-127748289D02*
G01*
X182703833Y-127894320D01*
X182702872Y-128006655D01*
X182700794Y-128090678D01*
X182697193Y-128151769D01*
X182691665Y-128195309D01*
X182683804Y-128226679D01*
X182673207Y-128251262D01*
X182665182Y-128265294D01*
X182598728Y-128341388D01*
X182514470Y-128389084D01*
X182421249Y-128406199D01*
X182327900Y-128390546D01*
X182272312Y-128362418D01*
X182213957Y-128313760D01*
X182174186Y-128254333D01*
X182150190Y-128176507D01*
X182139161Y-128072652D01*
X182137599Y-127996462D01*
X182137809Y-127990986D01*
X182274308Y-127990986D01*
X182275141Y-128078355D01*
X182278961Y-128136192D01*
X182287746Y-128174029D01*
X182303474Y-128201398D01*
X182322266Y-128222042D01*
X182385375Y-128261890D01*
X182453137Y-128265295D01*
X182517179Y-128232025D01*
X182522164Y-128227517D01*
X182543439Y-128204067D01*
X182556779Y-128176166D01*
X182564001Y-128134641D01*
X182566923Y-128070316D01*
X182567385Y-127999200D01*
X182566383Y-127909858D01*
X182562238Y-127850258D01*
X182553236Y-127811089D01*
X182537667Y-127783040D01*
X182524902Y-127768144D01*
X182465600Y-127730575D01*
X182397301Y-127726057D01*
X182332110Y-127754753D01*
X182319528Y-127765406D01*
X182298111Y-127789063D01*
X182284744Y-127817251D01*
X182277566Y-127859245D01*
X182274719Y-127924319D01*
X182274308Y-127990986D01*
X182137809Y-127990986D01*
X182142322Y-127873765D01*
X182158362Y-127781577D01*
X182188528Y-127712269D01*
X182235629Y-127658211D01*
X182272312Y-127630505D01*
X182338990Y-127600572D01*
X182416272Y-127586678D01*
X182488110Y-127590397D01*
X182528308Y-127605400D01*
X182544082Y-127609670D01*
X182554550Y-127593750D01*
X182561856Y-127551089D01*
X182567385Y-127486106D01*
X182573437Y-127413732D01*
X182581844Y-127370187D01*
X182597141Y-127345287D01*
X182623864Y-127328845D01*
X182640654Y-127321564D01*
X182704154Y-127294963D01*
X182704081Y-127748289D01*
G37*
X182704081Y-127748289D02*
X182703833Y-127894320D01*
X182702872Y-128006655D01*
X182700794Y-128090678D01*
X182697193Y-128151769D01*
X182691665Y-128195309D01*
X182683804Y-128226679D01*
X182673207Y-128251262D01*
X182665182Y-128265294D01*
X182598728Y-128341388D01*
X182514470Y-128389084D01*
X182421249Y-128406199D01*
X182327900Y-128390546D01*
X182272312Y-128362418D01*
X182213957Y-128313760D01*
X182174186Y-128254333D01*
X182150190Y-128176507D01*
X182139161Y-128072652D01*
X182137599Y-127996462D01*
X182137809Y-127990986D01*
X182274308Y-127990986D01*
X182275141Y-128078355D01*
X182278961Y-128136192D01*
X182287746Y-128174029D01*
X182303474Y-128201398D01*
X182322266Y-128222042D01*
X182385375Y-128261890D01*
X182453137Y-128265295D01*
X182517179Y-128232025D01*
X182522164Y-128227517D01*
X182543439Y-128204067D01*
X182556779Y-128176166D01*
X182564001Y-128134641D01*
X182566923Y-128070316D01*
X182567385Y-127999200D01*
X182566383Y-127909858D01*
X182562238Y-127850258D01*
X182553236Y-127811089D01*
X182537667Y-127783040D01*
X182524902Y-127768144D01*
X182465600Y-127730575D01*
X182397301Y-127726057D01*
X182332110Y-127754753D01*
X182319528Y-127765406D01*
X182298111Y-127789063D01*
X182284744Y-127817251D01*
X182277566Y-127859245D01*
X182274719Y-127924319D01*
X182274308Y-127990986D01*
X182137809Y-127990986D01*
X182142322Y-127873765D01*
X182158362Y-127781577D01*
X182188528Y-127712269D01*
X182235629Y-127658211D01*
X182272312Y-127630505D01*
X182338990Y-127600572D01*
X182416272Y-127586678D01*
X182488110Y-127590397D01*
X182528308Y-127605400D01*
X182544082Y-127609670D01*
X182554550Y-127593750D01*
X182561856Y-127551089D01*
X182567385Y-127486106D01*
X182573437Y-127413732D01*
X182581844Y-127370187D01*
X182597141Y-127345287D01*
X182623864Y-127328845D01*
X182640654Y-127321564D01*
X182704154Y-127294963D01*
X182704081Y-127748289D01*
G36*
X181815362Y-127592670D02*
G01*
X181904117Y-127625421D01*
X181976022Y-127683350D01*
X182004144Y-127724128D01*
X182034802Y-127798954D01*
X182034165Y-127853058D01*
X182001987Y-127889446D01*
X181990081Y-127895633D01*
X181938675Y-127914925D01*
X181912422Y-127909982D01*
X181903530Y-127877587D01*
X181903077Y-127859692D01*
X181886797Y-127793859D01*
X181844365Y-127747807D01*
X181785388Y-127725564D01*
X181719475Y-127731161D01*
X181665895Y-127760229D01*
X181647798Y-127776810D01*
X181634971Y-127796925D01*
X181626306Y-127827332D01*
X181620696Y-127874788D01*
X181617035Y-127946050D01*
X181614215Y-128047875D01*
X181613484Y-128080115D01*
X181610820Y-128190410D01*
X181607792Y-128268036D01*
X181603250Y-128319396D01*
X181596046Y-128350890D01*
X181585033Y-128368920D01*
X181569060Y-128379888D01*
X181558834Y-128384733D01*
X181515406Y-128401301D01*
X181489842Y-128406769D01*
X181481395Y-128388507D01*
X181476239Y-128333296D01*
X181474346Y-128240499D01*
X181475689Y-128109478D01*
X181476107Y-128089269D01*
X181479058Y-127969733D01*
X181482548Y-127882449D01*
X181487514Y-127820591D01*
X181494893Y-127777336D01*
X181505624Y-127745860D01*
X181520645Y-127719339D01*
X181528502Y-127707975D01*
X181573553Y-127657692D01*
X181623940Y-127618581D01*
X181630108Y-127615167D01*
X181720458Y-127588212D01*
X181815362Y-127592670D01*
G37*
X181815362Y-127592670D02*
X181904117Y-127625421D01*
X181976022Y-127683350D01*
X182004144Y-127724128D01*
X182034802Y-127798954D01*
X182034165Y-127853058D01*
X182001987Y-127889446D01*
X181990081Y-127895633D01*
X181938675Y-127914925D01*
X181912422Y-127909982D01*
X181903530Y-127877587D01*
X181903077Y-127859692D01*
X181886797Y-127793859D01*
X181844365Y-127747807D01*
X181785388Y-127725564D01*
X181719475Y-127731161D01*
X181665895Y-127760229D01*
X181647798Y-127776810D01*
X181634971Y-127796925D01*
X181626306Y-127827332D01*
X181620696Y-127874788D01*
X181617035Y-127946050D01*
X181614215Y-128047875D01*
X181613484Y-128080115D01*
X181610820Y-128190410D01*
X181607792Y-128268036D01*
X181603250Y-128319396D01*
X181596046Y-128350890D01*
X181585033Y-128368920D01*
X181569060Y-128379888D01*
X181558834Y-128384733D01*
X181515406Y-128401301D01*
X181489842Y-128406769D01*
X181481395Y-128388507D01*
X181476239Y-128333296D01*
X181474346Y-128240499D01*
X181475689Y-128109478D01*
X181476107Y-128089269D01*
X181479058Y-127969733D01*
X181482548Y-127882449D01*
X181487514Y-127820591D01*
X181494893Y-127777336D01*
X181505624Y-127745860D01*
X181520645Y-127719339D01*
X181528502Y-127707975D01*
X181573553Y-127657692D01*
X181623940Y-127618581D01*
X181630108Y-127615167D01*
X181720458Y-127588212D01*
X181815362Y-127592670D01*
G36*
X181155501Y-127594303D02*
G01*
X181232060Y-127622733D01*
X181232936Y-127623279D01*
X181280285Y-127658127D01*
X181315241Y-127698852D01*
X181339825Y-127751925D01*
X181356062Y-127823814D01*
X181365975Y-127920992D01*
X181371586Y-128049928D01*
X181372077Y-128068298D01*
X181379141Y-128345287D01*
X181319695Y-128376028D01*
X181276681Y-128396802D01*
X181250710Y-128406646D01*
X181249509Y-128406769D01*
X181245014Y-128388606D01*
X181241444Y-128339612D01*
X181239248Y-128268031D01*
X181238769Y-128210068D01*
X181238758Y-128116170D01*
X181234466Y-128057203D01*
X181219503Y-128029079D01*
X181187482Y-128027706D01*
X181132014Y-128048998D01*
X181048269Y-128088136D01*
X180986689Y-128120643D01*
X180955017Y-128148845D01*
X180945706Y-128179582D01*
X180945692Y-128181104D01*
X180961057Y-128234054D01*
X181006547Y-128262660D01*
X181076166Y-128266803D01*
X181126313Y-128266084D01*
X181152754Y-128280527D01*
X181169243Y-128315218D01*
X181178733Y-128359416D01*
X181165057Y-128384493D01*
X181159907Y-128388082D01*
X181111425Y-128402496D01*
X181043531Y-128404537D01*
X180973612Y-128394983D01*
X180924068Y-128377522D01*
X180855570Y-128319364D01*
X180816634Y-128238408D01*
X180808923Y-128175160D01*
X180814807Y-128118111D01*
X180836101Y-128071542D01*
X180878265Y-128030181D01*
X180946759Y-127988755D01*
X181047044Y-127941993D01*
X181053154Y-127939350D01*
X181143490Y-127897617D01*
X181199235Y-127863391D01*
X181223129Y-127832635D01*
X181217913Y-127801311D01*
X181186328Y-127765383D01*
X181176883Y-127757116D01*
X181113617Y-127725058D01*
X181048064Y-127726407D01*
X180990972Y-127757838D01*
X180953093Y-127816024D01*
X180949574Y-127827446D01*
X180915300Y-127882837D01*
X180871809Y-127909518D01*
X180808923Y-127935960D01*
X180808923Y-127867548D01*
X180828052Y-127768110D01*
X180884831Y-127676902D01*
X180914378Y-127646389D01*
X180981542Y-127607228D01*
X181066956Y-127589500D01*
X181155501Y-127594303D01*
G37*
X181155501Y-127594303D02*
X181232060Y-127622733D01*
X181232936Y-127623279D01*
X181280285Y-127658127D01*
X181315241Y-127698852D01*
X181339825Y-127751925D01*
X181356062Y-127823814D01*
X181365975Y-127920992D01*
X181371586Y-128049928D01*
X181372077Y-128068298D01*
X181379141Y-128345287D01*
X181319695Y-128376028D01*
X181276681Y-128396802D01*
X181250710Y-128406646D01*
X181249509Y-128406769D01*
X181245014Y-128388606D01*
X181241444Y-128339612D01*
X181239248Y-128268031D01*
X181238769Y-128210068D01*
X181238758Y-128116170D01*
X181234466Y-128057203D01*
X181219503Y-128029079D01*
X181187482Y-128027706D01*
X181132014Y-128048998D01*
X181048269Y-128088136D01*
X180986689Y-128120643D01*
X180955017Y-128148845D01*
X180945706Y-128179582D01*
X180945692Y-128181104D01*
X180961057Y-128234054D01*
X181006547Y-128262660D01*
X181076166Y-128266803D01*
X181126313Y-128266084D01*
X181152754Y-128280527D01*
X181169243Y-128315218D01*
X181178733Y-128359416D01*
X181165057Y-128384493D01*
X181159907Y-128388082D01*
X181111425Y-128402496D01*
X181043531Y-128404537D01*
X180973612Y-128394983D01*
X180924068Y-128377522D01*
X180855570Y-128319364D01*
X180816634Y-128238408D01*
X180808923Y-128175160D01*
X180814807Y-128118111D01*
X180836101Y-128071542D01*
X180878265Y-128030181D01*
X180946759Y-127988755D01*
X181047044Y-127941993D01*
X181053154Y-127939350D01*
X181143490Y-127897617D01*
X181199235Y-127863391D01*
X181223129Y-127832635D01*
X181217913Y-127801311D01*
X181186328Y-127765383D01*
X181176883Y-127757116D01*
X181113617Y-127725058D01*
X181048064Y-127726407D01*
X180990972Y-127757838D01*
X180953093Y-127816024D01*
X180949574Y-127827446D01*
X180915300Y-127882837D01*
X180871809Y-127909518D01*
X180808923Y-127935960D01*
X180808923Y-127867548D01*
X180828052Y-127768110D01*
X180884831Y-127676902D01*
X180914378Y-127646389D01*
X180981542Y-127607228D01*
X181066956Y-127589500D01*
X181155501Y-127594303D01*
G36*
X180261846Y-127460120D02*
G01*
X180267572Y-127539980D01*
X180274149Y-127587039D01*
X180283262Y-127607566D01*
X180296598Y-127607829D01*
X180300923Y-127605378D01*
X180358444Y-127587636D01*
X180433268Y-127588672D01*
X180509339Y-127606910D01*
X180556918Y-127630505D01*
X180605702Y-127668198D01*
X180641364Y-127710855D01*
X180665845Y-127765057D01*
X180681087Y-127837384D01*
X180689030Y-127934419D01*
X180691616Y-128062742D01*
X180691662Y-128087358D01*
X180691692Y-128363870D01*
X180630161Y-128385320D01*
X180586459Y-128399912D01*
X180562482Y-128406706D01*
X180561777Y-128406769D01*
X180559415Y-128388345D01*
X180557406Y-128337526D01*
X180555901Y-128260993D01*
X180555053Y-128165430D01*
X180554923Y-128107329D01*
X180554651Y-127992771D01*
X180553252Y-127910667D01*
X180549849Y-127854393D01*
X180543567Y-127817326D01*
X180533529Y-127792844D01*
X180518861Y-127774325D01*
X180509702Y-127765406D01*
X180446789Y-127729466D01*
X180378136Y-127726775D01*
X180315848Y-127757170D01*
X180304329Y-127768144D01*
X180287433Y-127788779D01*
X180275714Y-127813256D01*
X180268233Y-127848647D01*
X180264054Y-127902026D01*
X180262237Y-127980466D01*
X180261846Y-128088617D01*
X180261846Y-128363870D01*
X180200315Y-128385320D01*
X180156613Y-128399912D01*
X180132636Y-128406706D01*
X180131930Y-128406769D01*
X180130126Y-128388069D01*
X180128500Y-128335322D01*
X180127117Y-128253557D01*
X180126042Y-128147805D01*
X180125340Y-128023094D01*
X180125077Y-127884455D01*
X180125077Y-127349806D01*
X180252077Y-127296236D01*
X180261846Y-127460120D01*
G37*
X180261846Y-127460120D02*
X180267572Y-127539980D01*
X180274149Y-127587039D01*
X180283262Y-127607566D01*
X180296598Y-127607829D01*
X180300923Y-127605378D01*
X180358444Y-127587636D01*
X180433268Y-127588672D01*
X180509339Y-127606910D01*
X180556918Y-127630505D01*
X180605702Y-127668198D01*
X180641364Y-127710855D01*
X180665845Y-127765057D01*
X180681087Y-127837384D01*
X180689030Y-127934419D01*
X180691616Y-128062742D01*
X180691662Y-128087358D01*
X180691692Y-128363870D01*
X180630161Y-128385320D01*
X180586459Y-128399912D01*
X180562482Y-128406706D01*
X180561777Y-128406769D01*
X180559415Y-128388345D01*
X180557406Y-128337526D01*
X180555901Y-128260993D01*
X180555053Y-128165430D01*
X180554923Y-128107329D01*
X180554651Y-127992771D01*
X180553252Y-127910667D01*
X180549849Y-127854393D01*
X180543567Y-127817326D01*
X180533529Y-127792844D01*
X180518861Y-127774325D01*
X180509702Y-127765406D01*
X180446789Y-127729466D01*
X180378136Y-127726775D01*
X180315848Y-127757170D01*
X180304329Y-127768144D01*
X180287433Y-127788779D01*
X180275714Y-127813256D01*
X180268233Y-127848647D01*
X180264054Y-127902026D01*
X180262237Y-127980466D01*
X180261846Y-128088617D01*
X180261846Y-128363870D01*
X180200315Y-128385320D01*
X180156613Y-128399912D01*
X180132636Y-128406706D01*
X180131930Y-128406769D01*
X180130126Y-128388069D01*
X180128500Y-128335322D01*
X180127117Y-128253557D01*
X180126042Y-128147805D01*
X180125340Y-128023094D01*
X180125077Y-127884455D01*
X180125077Y-127349806D01*
X180252077Y-127296236D01*
X180261846Y-127460120D01*
G36*
X178636254Y-127567745D02*
G01*
X178713286Y-127619567D01*
X178772816Y-127694412D01*
X178808378Y-127789654D01*
X178815571Y-127859756D01*
X178814754Y-127889009D01*
X178807914Y-127911407D01*
X178789112Y-127931474D01*
X178752408Y-127953733D01*
X178691862Y-127982709D01*
X178601534Y-128022927D01*
X178601077Y-128023129D01*
X178517933Y-128061210D01*
X178449753Y-128095025D01*
X178403505Y-128120933D01*
X178386158Y-128135295D01*
X178386154Y-128135411D01*
X178401443Y-128166685D01*
X178437196Y-128201157D01*
X178478242Y-128225990D01*
X178499037Y-128230923D01*
X178555770Y-128213862D01*
X178604627Y-128171133D01*
X178628465Y-128124155D01*
X178651397Y-128089522D01*
X178696318Y-128050081D01*
X178749123Y-128016009D01*
X178795710Y-127997480D01*
X178805452Y-127996462D01*
X178816418Y-128013215D01*
X178817079Y-128056039D01*
X178809020Y-128113781D01*
X178793827Y-128175289D01*
X178773086Y-128229409D01*
X178772038Y-128231510D01*
X178709621Y-128318660D01*
X178628726Y-128377939D01*
X178536856Y-128407034D01*
X178441513Y-128403634D01*
X178350198Y-128365428D01*
X178346138Y-128362741D01*
X178274306Y-128297642D01*
X178227073Y-128212705D01*
X178200934Y-128101021D01*
X178197426Y-128069643D01*
X178191213Y-127921536D01*
X178198661Y-127852468D01*
X178386154Y-127852468D01*
X178388590Y-127895552D01*
X178401914Y-127908126D01*
X178435132Y-127898719D01*
X178487494Y-127876483D01*
X178546024Y-127848610D01*
X178547479Y-127847872D01*
X178597089Y-127821777D01*
X178617000Y-127804363D01*
X178612090Y-127786107D01*
X178591416Y-127762120D01*
X178538819Y-127727406D01*
X178482177Y-127724856D01*
X178431369Y-127750119D01*
X178396276Y-127798847D01*
X178386154Y-127852468D01*
X178198661Y-127852468D01*
X178203992Y-127803036D01*
X178236778Y-127709055D01*
X178282421Y-127643215D01*
X178364802Y-127576681D01*
X178455546Y-127543676D01*
X178548185Y-127541573D01*
X178636254Y-127567745D01*
G37*
X178636254Y-127567745D02*
X178713286Y-127619567D01*
X178772816Y-127694412D01*
X178808378Y-127789654D01*
X178815571Y-127859756D01*
X178814754Y-127889009D01*
X178807914Y-127911407D01*
X178789112Y-127931474D01*
X178752408Y-127953733D01*
X178691862Y-127982709D01*
X178601534Y-128022927D01*
X178601077Y-128023129D01*
X178517933Y-128061210D01*
X178449753Y-128095025D01*
X178403505Y-128120933D01*
X178386158Y-128135295D01*
X178386154Y-128135411D01*
X178401443Y-128166685D01*
X178437196Y-128201157D01*
X178478242Y-128225990D01*
X178499037Y-128230923D01*
X178555770Y-128213862D01*
X178604627Y-128171133D01*
X178628465Y-128124155D01*
X178651397Y-128089522D01*
X178696318Y-128050081D01*
X178749123Y-128016009D01*
X178795710Y-127997480D01*
X178805452Y-127996462D01*
X178816418Y-128013215D01*
X178817079Y-128056039D01*
X178809020Y-128113781D01*
X178793827Y-128175289D01*
X178773086Y-128229409D01*
X178772038Y-128231510D01*
X178709621Y-128318660D01*
X178628726Y-128377939D01*
X178536856Y-128407034D01*
X178441513Y-128403634D01*
X178350198Y-128365428D01*
X178346138Y-128362741D01*
X178274306Y-128297642D01*
X178227073Y-128212705D01*
X178200934Y-128101021D01*
X178197426Y-128069643D01*
X178191213Y-127921536D01*
X178198661Y-127852468D01*
X178386154Y-127852468D01*
X178388590Y-127895552D01*
X178401914Y-127908126D01*
X178435132Y-127898719D01*
X178487494Y-127876483D01*
X178546024Y-127848610D01*
X178547479Y-127847872D01*
X178597089Y-127821777D01*
X178617000Y-127804363D01*
X178612090Y-127786107D01*
X178591416Y-127762120D01*
X178538819Y-127727406D01*
X178482177Y-127724856D01*
X178431369Y-127750119D01*
X178396276Y-127798847D01*
X178386154Y-127852468D01*
X178198661Y-127852468D01*
X178203992Y-127803036D01*
X178236778Y-127709055D01*
X178282421Y-127643215D01*
X178364802Y-127576681D01*
X178455546Y-127543676D01*
X178548185Y-127541573D01*
X178636254Y-127567745D01*
G36*
X177118886Y-127555256D02*
G01*
X177210464Y-127603409D01*
X177278049Y-127680905D01*
X177302057Y-127730727D01*
X177320738Y-127805533D01*
X177330301Y-127900052D01*
X177331208Y-128003210D01*
X177323921Y-128103935D01*
X177308903Y-128191153D01*
X177286615Y-128253791D01*
X177279765Y-128264579D01*
X177198632Y-128345105D01*
X177102266Y-128393336D01*
X176997701Y-128407450D01*
X176891968Y-128385629D01*
X176862543Y-128372547D01*
X176805241Y-128332231D01*
X176754950Y-128278775D01*
X176750197Y-128271995D01*
X176730878Y-128239321D01*
X176718108Y-128204394D01*
X176710564Y-128158414D01*
X176706924Y-128092584D01*
X176705865Y-127998105D01*
X176705846Y-127976923D01*
X176705894Y-127970182D01*
X176901231Y-127970182D01*
X176902368Y-128059349D01*
X176906841Y-128118520D01*
X176916246Y-128156741D01*
X176932176Y-128183053D01*
X176940308Y-128191846D01*
X176987058Y-128225261D01*
X177032447Y-128223737D01*
X177078340Y-128194752D01*
X177105712Y-128163809D01*
X177121923Y-128118643D01*
X177131026Y-128047420D01*
X177131651Y-128039114D01*
X177133204Y-127910037D01*
X177116965Y-127814172D01*
X177083152Y-127752107D01*
X177031984Y-127724432D01*
X177013720Y-127722923D01*
X176965760Y-127730513D01*
X176932953Y-127756808D01*
X176912895Y-127807095D01*
X176903178Y-127886664D01*
X176901231Y-127970182D01*
X176705894Y-127970182D01*
X176706574Y-127876249D01*
X176709629Y-127805906D01*
X176716322Y-127757163D01*
X176727960Y-127721288D01*
X176745853Y-127689548D01*
X176749808Y-127683648D01*
X176816267Y-127604104D01*
X176888685Y-127557929D01*
X176976849Y-127539599D01*
X177006787Y-127538703D01*
X177118886Y-127555256D01*
G37*
X177118886Y-127555256D02*
X177210464Y-127603409D01*
X177278049Y-127680905D01*
X177302057Y-127730727D01*
X177320738Y-127805533D01*
X177330301Y-127900052D01*
X177331208Y-128003210D01*
X177323921Y-128103935D01*
X177308903Y-128191153D01*
X177286615Y-128253791D01*
X177279765Y-128264579D01*
X177198632Y-128345105D01*
X177102266Y-128393336D01*
X176997701Y-128407450D01*
X176891968Y-128385629D01*
X176862543Y-128372547D01*
X176805241Y-128332231D01*
X176754950Y-128278775D01*
X176750197Y-128271995D01*
X176730878Y-128239321D01*
X176718108Y-128204394D01*
X176710564Y-128158414D01*
X176706924Y-128092584D01*
X176705865Y-127998105D01*
X176705846Y-127976923D01*
X176705894Y-127970182D01*
X176901231Y-127970182D01*
X176902368Y-128059349D01*
X176906841Y-128118520D01*
X176916246Y-128156741D01*
X176932176Y-128183053D01*
X176940308Y-128191846D01*
X176987058Y-128225261D01*
X177032447Y-128223737D01*
X177078340Y-128194752D01*
X177105712Y-128163809D01*
X177121923Y-128118643D01*
X177131026Y-128047420D01*
X177131651Y-128039114D01*
X177133204Y-127910037D01*
X177116965Y-127814172D01*
X177083152Y-127752107D01*
X177031984Y-127724432D01*
X177013720Y-127722923D01*
X176965760Y-127730513D01*
X176932953Y-127756808D01*
X176912895Y-127807095D01*
X176903178Y-127886664D01*
X176901231Y-127970182D01*
X176705894Y-127970182D01*
X176706574Y-127876249D01*
X176709629Y-127805906D01*
X176716322Y-127757163D01*
X176727960Y-127721288D01*
X176745853Y-127689548D01*
X176749808Y-127683648D01*
X176816267Y-127604104D01*
X176888685Y-127557929D01*
X176976849Y-127539599D01*
X177006787Y-127538703D01*
X177118886Y-127555256D01*
G36*
X179373664Y-127563089D02*
G01*
X179436367Y-127599358D01*
X179479961Y-127635358D01*
X179511845Y-127673075D01*
X179533810Y-127719199D01*
X179547649Y-127780421D01*
X179555153Y-127863431D01*
X179558117Y-127974919D01*
X179558461Y-128055062D01*
X179558461Y-128350065D01*
X179392385Y-128424515D01*
X179382615Y-128101402D01*
X179378579Y-127980729D01*
X179374344Y-127893141D01*
X179369097Y-127832650D01*
X179362025Y-127793268D01*
X179352311Y-127769007D01*
X179339144Y-127753880D01*
X179334919Y-127750606D01*
X179270909Y-127725034D01*
X179206208Y-127735153D01*
X179167692Y-127762000D01*
X179152025Y-127781024D01*
X179141180Y-127805988D01*
X179134288Y-127843834D01*
X179130479Y-127901502D01*
X179128883Y-127985935D01*
X179128615Y-128073928D01*
X179128563Y-128184323D01*
X179126672Y-128262463D01*
X179120345Y-128315165D01*
X179106983Y-128349242D01*
X179083985Y-128371511D01*
X179048754Y-128388787D01*
X179001697Y-128406738D01*
X178950303Y-128426278D01*
X178956421Y-128079485D01*
X178958884Y-127954468D01*
X178961767Y-127862082D01*
X178965898Y-127795881D01*
X178972107Y-127749420D01*
X178981226Y-127716256D01*
X178994083Y-127689944D01*
X179009584Y-127666729D01*
X179084371Y-127592569D01*
X179175628Y-127549684D01*
X179274883Y-127539412D01*
X179373664Y-127563089D01*
G37*
X179373664Y-127563089D02*
X179436367Y-127599358D01*
X179479961Y-127635358D01*
X179511845Y-127673075D01*
X179533810Y-127719199D01*
X179547649Y-127780421D01*
X179555153Y-127863431D01*
X179558117Y-127974919D01*
X179558461Y-128055062D01*
X179558461Y-128350065D01*
X179392385Y-128424515D01*
X179382615Y-128101402D01*
X179378579Y-127980729D01*
X179374344Y-127893141D01*
X179369097Y-127832650D01*
X179362025Y-127793268D01*
X179352311Y-127769007D01*
X179339144Y-127753880D01*
X179334919Y-127750606D01*
X179270909Y-127725034D01*
X179206208Y-127735153D01*
X179167692Y-127762000D01*
X179152025Y-127781024D01*
X179141180Y-127805988D01*
X179134288Y-127843834D01*
X179130479Y-127901502D01*
X179128883Y-127985935D01*
X179128615Y-128073928D01*
X179128563Y-128184323D01*
X179126672Y-128262463D01*
X179120345Y-128315165D01*
X179106983Y-128349242D01*
X179083985Y-128371511D01*
X179048754Y-128388787D01*
X179001697Y-128406738D01*
X178950303Y-128426278D01*
X178956421Y-128079485D01*
X178958884Y-127954468D01*
X178961767Y-127862082D01*
X178965898Y-127795881D01*
X178972107Y-127749420D01*
X178981226Y-127716256D01*
X178994083Y-127689944D01*
X179009584Y-127666729D01*
X179084371Y-127592569D01*
X179175628Y-127549684D01*
X179274883Y-127539412D01*
X179373664Y-127563089D01*
G36*
X177870886Y-127552505D02*
G01*
X177945539Y-127589727D01*
X178011431Y-127658261D01*
X178029577Y-127683648D01*
X178049345Y-127716866D01*
X178062172Y-127752945D01*
X178069510Y-127801098D01*
X178072813Y-127870536D01*
X178073538Y-127962206D01*
X178070263Y-128087830D01*
X178058877Y-128182154D01*
X178037041Y-128252523D01*
X178002419Y-128306286D01*
X177952670Y-128350788D01*
X177949014Y-128353423D01*
X177899985Y-128380377D01*
X177840945Y-128393712D01*
X177765859Y-128397000D01*
X177643795Y-128397000D01*
X177643744Y-128515497D01*
X177642608Y-128581492D01*
X177635686Y-128620202D01*
X177617598Y-128643419D01*
X177582962Y-128662933D01*
X177574645Y-128666920D01*
X177535720Y-128685603D01*
X177505583Y-128697403D01*
X177483174Y-128698422D01*
X177467433Y-128684761D01*
X177457302Y-128652522D01*
X177451723Y-128597804D01*
X177449635Y-128516711D01*
X177449981Y-128405344D01*
X177451700Y-128259802D01*
X177452237Y-128216269D01*
X177454172Y-128066205D01*
X177455904Y-127968042D01*
X177643692Y-127968042D01*
X177644748Y-128051364D01*
X177649438Y-128105880D01*
X177660051Y-128141837D01*
X177678872Y-128169482D01*
X177691650Y-128182965D01*
X177743890Y-128222417D01*
X177790142Y-128225628D01*
X177837867Y-128193049D01*
X177839077Y-128191846D01*
X177858494Y-128166668D01*
X177870307Y-128132447D01*
X177876265Y-128079748D01*
X177878120Y-127999131D01*
X177878154Y-127981271D01*
X177873670Y-127870175D01*
X177859074Y-127793161D01*
X177832650Y-127746147D01*
X177792683Y-127725050D01*
X177769584Y-127722923D01*
X177714762Y-127732900D01*
X177677158Y-127765752D01*
X177654523Y-127825857D01*
X177644606Y-127917598D01*
X177643692Y-127968042D01*
X177455904Y-127968042D01*
X177456222Y-127950060D01*
X177458873Y-127862679D01*
X177462606Y-127798905D01*
X177467907Y-127753582D01*
X177475258Y-127721555D01*
X177485143Y-127697668D01*
X177498046Y-127676764D01*
X177503579Y-127668898D01*
X177576969Y-127594595D01*
X177669760Y-127552467D01*
X177777096Y-127540722D01*
X177870886Y-127552505D01*
G37*
X177870886Y-127552505D02*
X177945539Y-127589727D01*
X178011431Y-127658261D01*
X178029577Y-127683648D01*
X178049345Y-127716866D01*
X178062172Y-127752945D01*
X178069510Y-127801098D01*
X178072813Y-127870536D01*
X178073538Y-127962206D01*
X178070263Y-128087830D01*
X178058877Y-128182154D01*
X178037041Y-128252523D01*
X178002419Y-128306286D01*
X177952670Y-128350788D01*
X177949014Y-128353423D01*
X177899985Y-128380377D01*
X177840945Y-128393712D01*
X177765859Y-128397000D01*
X177643795Y-128397000D01*
X177643744Y-128515497D01*
X177642608Y-128581492D01*
X177635686Y-128620202D01*
X177617598Y-128643419D01*
X177582962Y-128662933D01*
X177574645Y-128666920D01*
X177535720Y-128685603D01*
X177505583Y-128697403D01*
X177483174Y-128698422D01*
X177467433Y-128684761D01*
X177457302Y-128652522D01*
X177451723Y-128597804D01*
X177449635Y-128516711D01*
X177449981Y-128405344D01*
X177451700Y-128259802D01*
X177452237Y-128216269D01*
X177454172Y-128066205D01*
X177455904Y-127968042D01*
X177643692Y-127968042D01*
X177644748Y-128051364D01*
X177649438Y-128105880D01*
X177660051Y-128141837D01*
X177678872Y-128169482D01*
X177691650Y-128182965D01*
X177743890Y-128222417D01*
X177790142Y-128225628D01*
X177837867Y-128193049D01*
X177839077Y-128191846D01*
X177858494Y-128166668D01*
X177870307Y-128132447D01*
X177876265Y-128079748D01*
X177878120Y-127999131D01*
X177878154Y-127981271D01*
X177873670Y-127870175D01*
X177859074Y-127793161D01*
X177832650Y-127746147D01*
X177792683Y-127725050D01*
X177769584Y-127722923D01*
X177714762Y-127732900D01*
X177677158Y-127765752D01*
X177654523Y-127825857D01*
X177644606Y-127917598D01*
X177643692Y-127968042D01*
X177455904Y-127968042D01*
X177456222Y-127950060D01*
X177458873Y-127862679D01*
X177462606Y-127798905D01*
X177467907Y-127753582D01*
X177475258Y-127721555D01*
X177485143Y-127697668D01*
X177498046Y-127676764D01*
X177503579Y-127668898D01*
X177576969Y-127594595D01*
X177669760Y-127552467D01*
X177777096Y-127540722D01*
X177870886Y-127552505D01*
%TO.C,G\u002A\u002A\u002A*%
G36*
X175037750Y-123602750D02*
G01*
X174085250Y-123602750D01*
X174085250Y-122840750D01*
X174275750Y-122840750D01*
X174275750Y-123412250D01*
X174847250Y-123412250D01*
X174847250Y-122840750D01*
X174275750Y-122840750D01*
X174085250Y-122840750D01*
X174085250Y-122650250D01*
X175037750Y-122650250D01*
X175037750Y-123602750D01*
G37*
X175037750Y-123602750D02*
X174085250Y-123602750D01*
X174085250Y-122840750D01*
X174275750Y-122840750D01*
X174275750Y-123412250D01*
X174847250Y-123412250D01*
X174847250Y-122840750D01*
X174275750Y-122840750D01*
X174085250Y-122840750D01*
X174085250Y-122650250D01*
X175037750Y-122650250D01*
X175037750Y-123602750D01*
G36*
X170846750Y-123602750D02*
G01*
X169894250Y-123602750D01*
X169894250Y-122840750D01*
X170084750Y-122840750D01*
X170084750Y-123412250D01*
X170656250Y-123412250D01*
X170656250Y-122840750D01*
X170084750Y-122840750D01*
X169894250Y-122840750D01*
X169894250Y-122650250D01*
X170846750Y-122650250D01*
X170846750Y-123602750D01*
G37*
X170846750Y-123602750D02*
X169894250Y-123602750D01*
X169894250Y-122840750D01*
X170084750Y-122840750D01*
X170084750Y-123412250D01*
X170656250Y-123412250D01*
X170656250Y-122840750D01*
X170084750Y-122840750D01*
X169894250Y-122840750D01*
X169894250Y-122650250D01*
X170846750Y-122650250D01*
X170846750Y-123602750D01*
G36*
X172914465Y-122658117D02*
G01*
X172939331Y-122695227D01*
X172942250Y-122745500D01*
X172934382Y-122812965D01*
X172897272Y-122837831D01*
X172847000Y-122840750D01*
X172779534Y-122832882D01*
X172754668Y-122795772D01*
X172751750Y-122745500D01*
X172759617Y-122678034D01*
X172796727Y-122653168D01*
X172847000Y-122650250D01*
X172914465Y-122658117D01*
G37*
X172914465Y-122658117D02*
X172939331Y-122695227D01*
X172942250Y-122745500D01*
X172934382Y-122812965D01*
X172897272Y-122837831D01*
X172847000Y-122840750D01*
X172779534Y-122832882D01*
X172754668Y-122795772D01*
X172751750Y-122745500D01*
X172759617Y-122678034D01*
X172796727Y-122653168D01*
X172847000Y-122650250D01*
X172914465Y-122658117D01*
G36*
X172342965Y-122658117D02*
G01*
X172367831Y-122695227D01*
X172370750Y-122745500D01*
X172362882Y-122812965D01*
X172325772Y-122837831D01*
X172275500Y-122840750D01*
X172208034Y-122832882D01*
X172183168Y-122795772D01*
X172180250Y-122745500D01*
X172188117Y-122678034D01*
X172225227Y-122653168D01*
X172275500Y-122650250D01*
X172342965Y-122658117D01*
G37*
X172342965Y-122658117D02*
X172367831Y-122695227D01*
X172370750Y-122745500D01*
X172362882Y-122812965D01*
X172325772Y-122837831D01*
X172275500Y-122840750D01*
X172208034Y-122832882D01*
X172183168Y-122795772D01*
X172180250Y-122745500D01*
X172188117Y-122678034D01*
X172225227Y-122653168D01*
X172275500Y-122650250D01*
X172342965Y-122658117D01*
G36*
X173866965Y-124182117D02*
G01*
X173891831Y-124219227D01*
X173894750Y-124269500D01*
X173886882Y-124336965D01*
X173849772Y-124361831D01*
X173799500Y-124364750D01*
X173732034Y-124356882D01*
X173707168Y-124319772D01*
X173704250Y-124269500D01*
X173712117Y-124202034D01*
X173749227Y-124177168D01*
X173799500Y-124174250D01*
X173866965Y-124182117D01*
G37*
X173866965Y-124182117D02*
X173891831Y-124219227D01*
X173894750Y-124269500D01*
X173886882Y-124336965D01*
X173849772Y-124361831D01*
X173799500Y-124364750D01*
X173732034Y-124356882D01*
X173707168Y-124319772D01*
X173704250Y-124269500D01*
X173712117Y-124202034D01*
X173749227Y-124177168D01*
X173799500Y-124174250D01*
X173866965Y-124182117D01*
G36*
X171009465Y-124182117D02*
G01*
X171034331Y-124219227D01*
X171037250Y-124269500D01*
X171029382Y-124336965D01*
X170992272Y-124361831D01*
X170942000Y-124364750D01*
X170874534Y-124356882D01*
X170849668Y-124319772D01*
X170846750Y-124269500D01*
X170854617Y-124202034D01*
X170891727Y-124177168D01*
X170942000Y-124174250D01*
X171009465Y-124182117D01*
G37*
X171009465Y-124182117D02*
X171034331Y-124219227D01*
X171037250Y-124269500D01*
X171029382Y-124336965D01*
X170992272Y-124361831D01*
X170942000Y-124364750D01*
X170874534Y-124356882D01*
X170849668Y-124319772D01*
X170846750Y-124269500D01*
X170854617Y-124202034D01*
X170891727Y-124177168D01*
X170942000Y-124174250D01*
X171009465Y-124182117D01*
G36*
X170656250Y-124555250D02*
G01*
X170465750Y-124555250D01*
X170465750Y-124174250D01*
X170656250Y-124174250D01*
X170656250Y-124555250D01*
G37*
X170656250Y-124555250D02*
X170465750Y-124555250D01*
X170465750Y-124174250D01*
X170656250Y-124174250D01*
X170656250Y-124555250D01*
G36*
X170275250Y-124555250D02*
G01*
X170180000Y-124555250D01*
X170112534Y-124547382D01*
X170087668Y-124510272D01*
X170084750Y-124460000D01*
X170076882Y-124392534D01*
X170039772Y-124367668D01*
X169989500Y-124364750D01*
X169922034Y-124356882D01*
X169897168Y-124319772D01*
X169894250Y-124269500D01*
X169894250Y-124174250D01*
X170275250Y-124174250D01*
X170275250Y-124555250D01*
G37*
X170275250Y-124555250D02*
X170180000Y-124555250D01*
X170112534Y-124547382D01*
X170087668Y-124510272D01*
X170084750Y-124460000D01*
X170076882Y-124392534D01*
X170039772Y-124367668D01*
X169989500Y-124364750D01*
X169922034Y-124356882D01*
X169897168Y-124319772D01*
X169894250Y-124269500D01*
X169894250Y-124174250D01*
X170275250Y-124174250D01*
X170275250Y-124555250D01*
G36*
X171009465Y-124563117D02*
G01*
X171034331Y-124600227D01*
X171037250Y-124650500D01*
X171029382Y-124717965D01*
X170992272Y-124742831D01*
X170942000Y-124745750D01*
X170874534Y-124737882D01*
X170849668Y-124700772D01*
X170846750Y-124650500D01*
X170854617Y-124583034D01*
X170891727Y-124558168D01*
X170942000Y-124555250D01*
X171009465Y-124563117D01*
G37*
X171009465Y-124563117D02*
X171034331Y-124600227D01*
X171037250Y-124650500D01*
X171029382Y-124717965D01*
X170992272Y-124742831D01*
X170942000Y-124745750D01*
X170874534Y-124737882D01*
X170849668Y-124700772D01*
X170846750Y-124650500D01*
X170854617Y-124583034D01*
X170891727Y-124558168D01*
X170942000Y-124555250D01*
X171009465Y-124563117D01*
G36*
X171227750Y-125888750D02*
G01*
X170846750Y-125888750D01*
X170846750Y-125698250D01*
X171227750Y-125698250D01*
X171227750Y-125888750D01*
G37*
X171227750Y-125888750D02*
X170846750Y-125888750D01*
X170846750Y-125698250D01*
X171227750Y-125698250D01*
X171227750Y-125888750D01*
G36*
X174466250Y-124364750D02*
G01*
X174561500Y-124364750D01*
X174628965Y-124372617D01*
X174653831Y-124409727D01*
X174656750Y-124460000D01*
X174664617Y-124527465D01*
X174701727Y-124552331D01*
X174752000Y-124555250D01*
X174847250Y-124555250D01*
X174847250Y-124936250D01*
X174942500Y-124936250D01*
X175009965Y-124944117D01*
X175034831Y-124981227D01*
X175037750Y-125031500D01*
X175029882Y-125098965D01*
X174992772Y-125123831D01*
X174942500Y-125126750D01*
X174847250Y-125126750D01*
X174847250Y-125698250D01*
X174942500Y-125698250D01*
X175009965Y-125706117D01*
X175034831Y-125743227D01*
X175037750Y-125793500D01*
X175029882Y-125860965D01*
X174992772Y-125885831D01*
X174942500Y-125888750D01*
X174875034Y-125880882D01*
X174850168Y-125843772D01*
X174847250Y-125793500D01*
X174839382Y-125726034D01*
X174802272Y-125701168D01*
X174752000Y-125698250D01*
X174656750Y-125698250D01*
X174656750Y-124745750D01*
X174466250Y-124745750D01*
X174466250Y-124364750D01*
G37*
X174466250Y-124364750D02*
X174561500Y-124364750D01*
X174628965Y-124372617D01*
X174653831Y-124409727D01*
X174656750Y-124460000D01*
X174664617Y-124527465D01*
X174701727Y-124552331D01*
X174752000Y-124555250D01*
X174847250Y-124555250D01*
X174847250Y-124936250D01*
X174942500Y-124936250D01*
X175009965Y-124944117D01*
X175034831Y-124981227D01*
X175037750Y-125031500D01*
X175029882Y-125098965D01*
X174992772Y-125123831D01*
X174942500Y-125126750D01*
X174847250Y-125126750D01*
X174847250Y-125698250D01*
X174942500Y-125698250D01*
X175009965Y-125706117D01*
X175034831Y-125743227D01*
X175037750Y-125793500D01*
X175029882Y-125860965D01*
X174992772Y-125885831D01*
X174942500Y-125888750D01*
X174875034Y-125880882D01*
X174850168Y-125843772D01*
X174847250Y-125793500D01*
X174839382Y-125726034D01*
X174802272Y-125701168D01*
X174752000Y-125698250D01*
X174656750Y-125698250D01*
X174656750Y-124745750D01*
X174466250Y-124745750D01*
X174466250Y-124364750D01*
G36*
X174466250Y-125126750D02*
G01*
X174371000Y-125126750D01*
X174303534Y-125134617D01*
X174278668Y-125171727D01*
X174275750Y-125222000D01*
X174283617Y-125289465D01*
X174320727Y-125314331D01*
X174371000Y-125317250D01*
X174466250Y-125317250D01*
X174466250Y-125888750D01*
X174085250Y-125888750D01*
X174085250Y-125984000D01*
X174077382Y-126051465D01*
X174040272Y-126076331D01*
X173990000Y-126079250D01*
X173922534Y-126071382D01*
X173897668Y-126034272D01*
X173894750Y-125984000D01*
X173902617Y-125916534D01*
X173939727Y-125891668D01*
X173990000Y-125888750D01*
X174057465Y-125880882D01*
X174082331Y-125843772D01*
X174085250Y-125793500D01*
X174093117Y-125726034D01*
X174130227Y-125701168D01*
X174180500Y-125698250D01*
X174247965Y-125690382D01*
X174272831Y-125653272D01*
X174275750Y-125603000D01*
X174267882Y-125535534D01*
X174230772Y-125510668D01*
X174180500Y-125507750D01*
X174085250Y-125507750D01*
X174085250Y-124745750D01*
X174466250Y-124745750D01*
X174466250Y-125126750D01*
G37*
X174466250Y-125126750D02*
X174371000Y-125126750D01*
X174303534Y-125134617D01*
X174278668Y-125171727D01*
X174275750Y-125222000D01*
X174283617Y-125289465D01*
X174320727Y-125314331D01*
X174371000Y-125317250D01*
X174466250Y-125317250D01*
X174466250Y-125888750D01*
X174085250Y-125888750D01*
X174085250Y-125984000D01*
X174077382Y-126051465D01*
X174040272Y-126076331D01*
X173990000Y-126079250D01*
X173922534Y-126071382D01*
X173897668Y-126034272D01*
X173894750Y-125984000D01*
X173902617Y-125916534D01*
X173939727Y-125891668D01*
X173990000Y-125888750D01*
X174057465Y-125880882D01*
X174082331Y-125843772D01*
X174085250Y-125793500D01*
X174093117Y-125726034D01*
X174130227Y-125701168D01*
X174180500Y-125698250D01*
X174247965Y-125690382D01*
X174272831Y-125653272D01*
X174275750Y-125603000D01*
X174267882Y-125535534D01*
X174230772Y-125510668D01*
X174180500Y-125507750D01*
X174085250Y-125507750D01*
X174085250Y-124745750D01*
X174466250Y-124745750D01*
X174466250Y-125126750D01*
G36*
X171037250Y-126269750D02*
G01*
X170656250Y-126269750D01*
X170656250Y-126079250D01*
X171037250Y-126079250D01*
X171037250Y-126269750D01*
G37*
X171037250Y-126269750D02*
X170656250Y-126269750D01*
X170656250Y-126079250D01*
X171037250Y-126079250D01*
X171037250Y-126269750D01*
G36*
X174275750Y-127031750D02*
G01*
X173704250Y-127031750D01*
X173704250Y-126746000D01*
X173894750Y-126746000D01*
X173902617Y-126813465D01*
X173939727Y-126838331D01*
X173990000Y-126841250D01*
X174057465Y-126833382D01*
X174082331Y-126796272D01*
X174085250Y-126746000D01*
X174077382Y-126678534D01*
X174040272Y-126653668D01*
X173990000Y-126650750D01*
X173922534Y-126658617D01*
X173897668Y-126695727D01*
X173894750Y-126746000D01*
X173704250Y-126746000D01*
X173704250Y-126460250D01*
X174275750Y-126460250D01*
X174275750Y-127031750D01*
G37*
X174275750Y-127031750D02*
X173704250Y-127031750D01*
X173704250Y-126746000D01*
X173894750Y-126746000D01*
X173902617Y-126813465D01*
X173939727Y-126838331D01*
X173990000Y-126841250D01*
X174057465Y-126833382D01*
X174082331Y-126796272D01*
X174085250Y-126746000D01*
X174077382Y-126678534D01*
X174040272Y-126653668D01*
X173990000Y-126650750D01*
X173922534Y-126658617D01*
X173897668Y-126695727D01*
X173894750Y-126746000D01*
X173704250Y-126746000D01*
X173704250Y-126460250D01*
X174275750Y-126460250D01*
X174275750Y-127031750D01*
G36*
X172370750Y-125507750D02*
G01*
X172370750Y-125888750D01*
X172466000Y-125888750D01*
X172533465Y-125880882D01*
X172558331Y-125843772D01*
X172561250Y-125793500D01*
X172569117Y-125726034D01*
X172606227Y-125701168D01*
X172656500Y-125698250D01*
X172723965Y-125706117D01*
X172748831Y-125743227D01*
X172751750Y-125793500D01*
X172759617Y-125860965D01*
X172796727Y-125885831D01*
X172847000Y-125888750D01*
X172914465Y-125880882D01*
X172939331Y-125843772D01*
X172942250Y-125793500D01*
X172942250Y-125698250D01*
X173704250Y-125698250D01*
X173704250Y-126079250D01*
X173132750Y-126079250D01*
X173132750Y-125984000D01*
X173124882Y-125916534D01*
X173087772Y-125891668D01*
X173037500Y-125888750D01*
X172942250Y-125888750D01*
X172942250Y-126269750D01*
X173323250Y-126269750D01*
X173323250Y-126650750D01*
X173228000Y-126650750D01*
X173160534Y-126642882D01*
X173135668Y-126605772D01*
X173132750Y-126555500D01*
X173124882Y-126488034D01*
X173087772Y-126463168D01*
X173037500Y-126460250D01*
X172970034Y-126452382D01*
X172945168Y-126415272D01*
X172942250Y-126365000D01*
X172934382Y-126297534D01*
X172897272Y-126272668D01*
X172847000Y-126269750D01*
X172751750Y-126269750D01*
X172751750Y-126650750D01*
X172847000Y-126650750D01*
X172914465Y-126658617D01*
X172939331Y-126695727D01*
X172942250Y-126746000D01*
X172942250Y-126841250D01*
X172561250Y-126841250D01*
X172561250Y-126746000D01*
X172553382Y-126678534D01*
X172516272Y-126653668D01*
X172466000Y-126650750D01*
X172398534Y-126658617D01*
X172373668Y-126695727D01*
X172370750Y-126746000D01*
X172362882Y-126813465D01*
X172325772Y-126838331D01*
X172275500Y-126841250D01*
X172208034Y-126833382D01*
X172183168Y-126796272D01*
X172180250Y-126746000D01*
X172188117Y-126678534D01*
X172225227Y-126653668D01*
X172275500Y-126650750D01*
X172342965Y-126642882D01*
X172367831Y-126605772D01*
X172370750Y-126555500D01*
X172362882Y-126488034D01*
X172325772Y-126463168D01*
X172275500Y-126460250D01*
X172208034Y-126452382D01*
X172183168Y-126415272D01*
X172180250Y-126365000D01*
X172172382Y-126297534D01*
X172135272Y-126272668D01*
X172085000Y-126269750D01*
X172017534Y-126277617D01*
X171992668Y-126314727D01*
X171989750Y-126365000D01*
X171981882Y-126432465D01*
X171944772Y-126457331D01*
X171894500Y-126460250D01*
X171827034Y-126468117D01*
X171802168Y-126505227D01*
X171799250Y-126555500D01*
X171791382Y-126622965D01*
X171754272Y-126647831D01*
X171704000Y-126650750D01*
X171636534Y-126658617D01*
X171611668Y-126695727D01*
X171608750Y-126746000D01*
X171608750Y-126841250D01*
X171989750Y-126841250D01*
X171989750Y-126936500D01*
X171981882Y-127003965D01*
X171944772Y-127028831D01*
X171894500Y-127031750D01*
X171827034Y-127039617D01*
X171802168Y-127076727D01*
X171799250Y-127127000D01*
X171791382Y-127194465D01*
X171754272Y-127219331D01*
X171704000Y-127222250D01*
X171636534Y-127214382D01*
X171611668Y-127177272D01*
X171608750Y-127127000D01*
X171600882Y-127059534D01*
X171563772Y-127034668D01*
X171513500Y-127031750D01*
X171418250Y-127031750D01*
X171418250Y-126650750D01*
X171608750Y-126650750D01*
X171608750Y-126269750D01*
X171989750Y-126269750D01*
X171989750Y-126079250D01*
X171608750Y-126079250D01*
X171608750Y-125984000D01*
X172180250Y-125984000D01*
X172188117Y-126051465D01*
X172225227Y-126076331D01*
X172275500Y-126079250D01*
X172342965Y-126071382D01*
X172367831Y-126034272D01*
X172370750Y-125984000D01*
X172362882Y-125916534D01*
X172325772Y-125891668D01*
X172275500Y-125888750D01*
X172208034Y-125896617D01*
X172183168Y-125933727D01*
X172180250Y-125984000D01*
X171608750Y-125984000D01*
X171600882Y-125916534D01*
X171563772Y-125891668D01*
X171513500Y-125888750D01*
X171446034Y-125880882D01*
X171421168Y-125843772D01*
X171418250Y-125793500D01*
X171426117Y-125726034D01*
X171463227Y-125701168D01*
X171513500Y-125698250D01*
X171580965Y-125690382D01*
X171605831Y-125653272D01*
X171608750Y-125603000D01*
X171600882Y-125535534D01*
X171563772Y-125510668D01*
X171513500Y-125507750D01*
X171799250Y-125507750D01*
X171799250Y-125888750D01*
X171989750Y-125888750D01*
X171989750Y-125507750D01*
X171799250Y-125507750D01*
X171513500Y-125507750D01*
X171446034Y-125499882D01*
X171421168Y-125462772D01*
X171418250Y-125412500D01*
X171410382Y-125345034D01*
X171373272Y-125320168D01*
X171323000Y-125317250D01*
X171255534Y-125325117D01*
X171230668Y-125362227D01*
X171227750Y-125412500D01*
X171227750Y-125507750D01*
X170656250Y-125507750D01*
X170656250Y-125126750D01*
X170846750Y-125126750D01*
X170846750Y-125317250D01*
X171227750Y-125317250D01*
X171227750Y-125126750D01*
X170846750Y-125126750D01*
X170656250Y-125126750D01*
X170656250Y-124936250D01*
X171227750Y-124936250D01*
X171227750Y-124841000D01*
X171235617Y-124773534D01*
X171272727Y-124748668D01*
X171323000Y-124745750D01*
X171390465Y-124737882D01*
X171415331Y-124700772D01*
X171418250Y-124650500D01*
X171799250Y-124650500D01*
X171807117Y-124717965D01*
X171844227Y-124742831D01*
X171894500Y-124745750D01*
X171961965Y-124737882D01*
X171986831Y-124700772D01*
X171989750Y-124650500D01*
X171981882Y-124583034D01*
X171944772Y-124558168D01*
X171894500Y-124555250D01*
X171827034Y-124563117D01*
X171802168Y-124600227D01*
X171799250Y-124650500D01*
X171418250Y-124650500D01*
X171410382Y-124583034D01*
X171373272Y-124558168D01*
X171323000Y-124555250D01*
X171227750Y-124555250D01*
X171227750Y-124460000D01*
X171418250Y-124460000D01*
X171426117Y-124527465D01*
X171463227Y-124552331D01*
X171513500Y-124555250D01*
X171580965Y-124547382D01*
X171605831Y-124510272D01*
X171608750Y-124460000D01*
X172180250Y-124460000D01*
X172188117Y-124527465D01*
X172225227Y-124552331D01*
X172275500Y-124555250D01*
X172342965Y-124547382D01*
X172367831Y-124510272D01*
X172370750Y-124460000D01*
X172362882Y-124392534D01*
X172325772Y-124367668D01*
X172275500Y-124364750D01*
X172208034Y-124372617D01*
X172183168Y-124409727D01*
X172180250Y-124460000D01*
X171608750Y-124460000D01*
X171600882Y-124392534D01*
X171563772Y-124367668D01*
X171513500Y-124364750D01*
X171446034Y-124372617D01*
X171421168Y-124409727D01*
X171418250Y-124460000D01*
X171227750Y-124460000D01*
X171227750Y-124174250D01*
X171323000Y-124174250D01*
X171390465Y-124166382D01*
X171415331Y-124129272D01*
X171418250Y-124079000D01*
X171426117Y-124011534D01*
X171463227Y-123986668D01*
X171513500Y-123983750D01*
X171608750Y-123983750D01*
X171608750Y-124364750D01*
X171989750Y-124364750D01*
X171989750Y-123983750D01*
X172370750Y-123983750D01*
X172370750Y-124364750D01*
X172561250Y-124364750D01*
X172561250Y-123983750D01*
X172751750Y-123983750D01*
X172751750Y-124555250D01*
X172656500Y-124555250D01*
X172589034Y-124563117D01*
X172564168Y-124600227D01*
X172561250Y-124650500D01*
X172569117Y-124717965D01*
X172606227Y-124742831D01*
X172656500Y-124745750D01*
X172751750Y-124745750D01*
X172751750Y-125126750D01*
X173323250Y-125126750D01*
X173323250Y-125031500D01*
X173315382Y-124964034D01*
X173278272Y-124939168D01*
X173228000Y-124936250D01*
X173160534Y-124928382D01*
X173135668Y-124891272D01*
X173132750Y-124841000D01*
X173140617Y-124773534D01*
X173177727Y-124748668D01*
X173228000Y-124745750D01*
X173295465Y-124753617D01*
X173320331Y-124790727D01*
X173323250Y-124841000D01*
X173331117Y-124908465D01*
X173368227Y-124933331D01*
X173418500Y-124936250D01*
X173485965Y-124944117D01*
X173510831Y-124981227D01*
X173513750Y-125031500D01*
X173513750Y-125126750D01*
X173894750Y-125126750D01*
X173894750Y-125317250D01*
X173513750Y-125317250D01*
X173513750Y-125507750D01*
X173132750Y-125507750D01*
X173132750Y-125317250D01*
X172751750Y-125317250D01*
X172751750Y-125412500D01*
X172743882Y-125479965D01*
X172706772Y-125504831D01*
X172656500Y-125507750D01*
X172561250Y-125507750D01*
X172561250Y-125126750D01*
X172466000Y-125126750D01*
X172398534Y-125134617D01*
X172373668Y-125171727D01*
X172370750Y-125222000D01*
X172362882Y-125289465D01*
X172325772Y-125314331D01*
X172275500Y-125317250D01*
X172208034Y-125309382D01*
X172183168Y-125272272D01*
X172180250Y-125222000D01*
X172188117Y-125154534D01*
X172225227Y-125129668D01*
X172275500Y-125126750D01*
X172342965Y-125118882D01*
X172367831Y-125081772D01*
X172370750Y-125031500D01*
X172362882Y-124964034D01*
X172325772Y-124939168D01*
X172275500Y-124936250D01*
X172208034Y-124928382D01*
X172183168Y-124891272D01*
X172180250Y-124841000D01*
X172172382Y-124773534D01*
X172135272Y-124748668D01*
X172085000Y-124745750D01*
X172017534Y-124753617D01*
X171992668Y-124790727D01*
X171989750Y-124841000D01*
X171981882Y-124908465D01*
X171944772Y-124933331D01*
X171894500Y-124936250D01*
X171827034Y-124944117D01*
X171802168Y-124981227D01*
X171799250Y-125031500D01*
X171791382Y-125098965D01*
X171754272Y-125123831D01*
X171704000Y-125126750D01*
X171636534Y-125134617D01*
X171611668Y-125171727D01*
X171608750Y-125222000D01*
X171608750Y-125317250D01*
X171989750Y-125317250D01*
X171989750Y-125507750D01*
X172370750Y-125507750D01*
G37*
X172370750Y-125507750D02*
X172370750Y-125888750D01*
X172466000Y-125888750D01*
X172533465Y-125880882D01*
X172558331Y-125843772D01*
X172561250Y-125793500D01*
X172569117Y-125726034D01*
X172606227Y-125701168D01*
X172656500Y-125698250D01*
X172723965Y-125706117D01*
X172748831Y-125743227D01*
X172751750Y-125793500D01*
X172759617Y-125860965D01*
X172796727Y-125885831D01*
X172847000Y-125888750D01*
X172914465Y-125880882D01*
X172939331Y-125843772D01*
X172942250Y-125793500D01*
X172942250Y-125698250D01*
X173704250Y-125698250D01*
X173704250Y-126079250D01*
X173132750Y-126079250D01*
X173132750Y-125984000D01*
X173124882Y-125916534D01*
X173087772Y-125891668D01*
X173037500Y-125888750D01*
X172942250Y-125888750D01*
X172942250Y-126269750D01*
X173323250Y-126269750D01*
X173323250Y-126650750D01*
X173228000Y-126650750D01*
X173160534Y-126642882D01*
X173135668Y-126605772D01*
X173132750Y-126555500D01*
X173124882Y-126488034D01*
X173087772Y-126463168D01*
X173037500Y-126460250D01*
X172970034Y-126452382D01*
X172945168Y-126415272D01*
X172942250Y-126365000D01*
X172934382Y-126297534D01*
X172897272Y-126272668D01*
X172847000Y-126269750D01*
X172751750Y-126269750D01*
X172751750Y-126650750D01*
X172847000Y-126650750D01*
X172914465Y-126658617D01*
X172939331Y-126695727D01*
X172942250Y-126746000D01*
X172942250Y-126841250D01*
X172561250Y-126841250D01*
X172561250Y-126746000D01*
X172553382Y-126678534D01*
X172516272Y-126653668D01*
X172466000Y-126650750D01*
X172398534Y-126658617D01*
X172373668Y-126695727D01*
X172370750Y-126746000D01*
X172362882Y-126813465D01*
X172325772Y-126838331D01*
X172275500Y-126841250D01*
X172208034Y-126833382D01*
X172183168Y-126796272D01*
X172180250Y-126746000D01*
X172188117Y-126678534D01*
X172225227Y-126653668D01*
X172275500Y-126650750D01*
X172342965Y-126642882D01*
X172367831Y-126605772D01*
X172370750Y-126555500D01*
X172362882Y-126488034D01*
X172325772Y-126463168D01*
X172275500Y-126460250D01*
X172208034Y-126452382D01*
X172183168Y-126415272D01*
X172180250Y-126365000D01*
X172172382Y-126297534D01*
X172135272Y-126272668D01*
X172085000Y-126269750D01*
X172017534Y-126277617D01*
X171992668Y-126314727D01*
X171989750Y-126365000D01*
X171981882Y-126432465D01*
X171944772Y-126457331D01*
X171894500Y-126460250D01*
X171827034Y-126468117D01*
X171802168Y-126505227D01*
X171799250Y-126555500D01*
X171791382Y-126622965D01*
X171754272Y-126647831D01*
X171704000Y-126650750D01*
X171636534Y-126658617D01*
X171611668Y-126695727D01*
X171608750Y-126746000D01*
X171608750Y-126841250D01*
X171989750Y-126841250D01*
X171989750Y-126936500D01*
X171981882Y-127003965D01*
X171944772Y-127028831D01*
X171894500Y-127031750D01*
X171827034Y-127039617D01*
X171802168Y-127076727D01*
X171799250Y-127127000D01*
X171791382Y-127194465D01*
X171754272Y-127219331D01*
X171704000Y-127222250D01*
X171636534Y-127214382D01*
X171611668Y-127177272D01*
X171608750Y-127127000D01*
X171600882Y-127059534D01*
X171563772Y-127034668D01*
X171513500Y-127031750D01*
X171418250Y-127031750D01*
X171418250Y-126650750D01*
X171608750Y-126650750D01*
X171608750Y-126269750D01*
X171989750Y-126269750D01*
X171989750Y-126079250D01*
X171608750Y-126079250D01*
X171608750Y-125984000D01*
X172180250Y-125984000D01*
X172188117Y-126051465D01*
X172225227Y-126076331D01*
X172275500Y-126079250D01*
X172342965Y-126071382D01*
X172367831Y-126034272D01*
X172370750Y-125984000D01*
X172362882Y-125916534D01*
X172325772Y-125891668D01*
X172275500Y-125888750D01*
X172208034Y-125896617D01*
X172183168Y-125933727D01*
X172180250Y-125984000D01*
X171608750Y-125984000D01*
X171600882Y-125916534D01*
X171563772Y-125891668D01*
X171513500Y-125888750D01*
X171446034Y-125880882D01*
X171421168Y-125843772D01*
X171418250Y-125793500D01*
X171426117Y-125726034D01*
X171463227Y-125701168D01*
X171513500Y-125698250D01*
X171580965Y-125690382D01*
X171605831Y-125653272D01*
X171608750Y-125603000D01*
X171600882Y-125535534D01*
X171563772Y-125510668D01*
X171513500Y-125507750D01*
X171799250Y-125507750D01*
X171799250Y-125888750D01*
X171989750Y-125888750D01*
X171989750Y-125507750D01*
X171799250Y-125507750D01*
X171513500Y-125507750D01*
X171446034Y-125499882D01*
X171421168Y-125462772D01*
X171418250Y-125412500D01*
X171410382Y-125345034D01*
X171373272Y-125320168D01*
X171323000Y-125317250D01*
X171255534Y-125325117D01*
X171230668Y-125362227D01*
X171227750Y-125412500D01*
X171227750Y-125507750D01*
X170656250Y-125507750D01*
X170656250Y-125126750D01*
X170846750Y-125126750D01*
X170846750Y-125317250D01*
X171227750Y-125317250D01*
X171227750Y-125126750D01*
X170846750Y-125126750D01*
X170656250Y-125126750D01*
X170656250Y-124936250D01*
X171227750Y-124936250D01*
X171227750Y-124841000D01*
X171235617Y-124773534D01*
X171272727Y-124748668D01*
X171323000Y-124745750D01*
X171390465Y-124737882D01*
X171415331Y-124700772D01*
X171418250Y-124650500D01*
X171799250Y-124650500D01*
X171807117Y-124717965D01*
X171844227Y-124742831D01*
X171894500Y-124745750D01*
X171961965Y-124737882D01*
X171986831Y-124700772D01*
X171989750Y-124650500D01*
X171981882Y-124583034D01*
X171944772Y-124558168D01*
X171894500Y-124555250D01*
X171827034Y-124563117D01*
X171802168Y-124600227D01*
X171799250Y-124650500D01*
X171418250Y-124650500D01*
X171410382Y-124583034D01*
X171373272Y-124558168D01*
X171323000Y-124555250D01*
X171227750Y-124555250D01*
X171227750Y-124460000D01*
X171418250Y-124460000D01*
X171426117Y-124527465D01*
X171463227Y-124552331D01*
X171513500Y-124555250D01*
X171580965Y-124547382D01*
X171605831Y-124510272D01*
X171608750Y-124460000D01*
X172180250Y-124460000D01*
X172188117Y-124527465D01*
X172225227Y-124552331D01*
X172275500Y-124555250D01*
X172342965Y-124547382D01*
X172367831Y-124510272D01*
X172370750Y-124460000D01*
X172362882Y-124392534D01*
X172325772Y-124367668D01*
X172275500Y-124364750D01*
X172208034Y-124372617D01*
X172183168Y-124409727D01*
X172180250Y-124460000D01*
X171608750Y-124460000D01*
X171600882Y-124392534D01*
X171563772Y-124367668D01*
X171513500Y-124364750D01*
X171446034Y-124372617D01*
X171421168Y-124409727D01*
X171418250Y-124460000D01*
X171227750Y-124460000D01*
X171227750Y-124174250D01*
X171323000Y-124174250D01*
X171390465Y-124166382D01*
X171415331Y-124129272D01*
X171418250Y-124079000D01*
X171426117Y-124011534D01*
X171463227Y-123986668D01*
X171513500Y-123983750D01*
X171608750Y-123983750D01*
X171608750Y-124364750D01*
X171989750Y-124364750D01*
X171989750Y-123983750D01*
X172370750Y-123983750D01*
X172370750Y-124364750D01*
X172561250Y-124364750D01*
X172561250Y-123983750D01*
X172751750Y-123983750D01*
X172751750Y-124555250D01*
X172656500Y-124555250D01*
X172589034Y-124563117D01*
X172564168Y-124600227D01*
X172561250Y-124650500D01*
X172569117Y-124717965D01*
X172606227Y-124742831D01*
X172656500Y-124745750D01*
X172751750Y-124745750D01*
X172751750Y-125126750D01*
X173323250Y-125126750D01*
X173323250Y-125031500D01*
X173315382Y-124964034D01*
X173278272Y-124939168D01*
X173228000Y-124936250D01*
X173160534Y-124928382D01*
X173135668Y-124891272D01*
X173132750Y-124841000D01*
X173140617Y-124773534D01*
X173177727Y-124748668D01*
X173228000Y-124745750D01*
X173295465Y-124753617D01*
X173320331Y-124790727D01*
X173323250Y-124841000D01*
X173331117Y-124908465D01*
X173368227Y-124933331D01*
X173418500Y-124936250D01*
X173485965Y-124944117D01*
X173510831Y-124981227D01*
X173513750Y-125031500D01*
X173513750Y-125126750D01*
X173894750Y-125126750D01*
X173894750Y-125317250D01*
X173513750Y-125317250D01*
X173513750Y-125507750D01*
X173132750Y-125507750D01*
X173132750Y-125317250D01*
X172751750Y-125317250D01*
X172751750Y-125412500D01*
X172743882Y-125479965D01*
X172706772Y-125504831D01*
X172656500Y-125507750D01*
X172561250Y-125507750D01*
X172561250Y-125126750D01*
X172466000Y-125126750D01*
X172398534Y-125134617D01*
X172373668Y-125171727D01*
X172370750Y-125222000D01*
X172362882Y-125289465D01*
X172325772Y-125314331D01*
X172275500Y-125317250D01*
X172208034Y-125309382D01*
X172183168Y-125272272D01*
X172180250Y-125222000D01*
X172188117Y-125154534D01*
X172225227Y-125129668D01*
X172275500Y-125126750D01*
X172342965Y-125118882D01*
X172367831Y-125081772D01*
X172370750Y-125031500D01*
X172362882Y-124964034D01*
X172325772Y-124939168D01*
X172275500Y-124936250D01*
X172208034Y-124928382D01*
X172183168Y-124891272D01*
X172180250Y-124841000D01*
X172172382Y-124773534D01*
X172135272Y-124748668D01*
X172085000Y-124745750D01*
X172017534Y-124753617D01*
X171992668Y-124790727D01*
X171989750Y-124841000D01*
X171981882Y-124908465D01*
X171944772Y-124933331D01*
X171894500Y-124936250D01*
X171827034Y-124944117D01*
X171802168Y-124981227D01*
X171799250Y-125031500D01*
X171791382Y-125098965D01*
X171754272Y-125123831D01*
X171704000Y-125126750D01*
X171636534Y-125134617D01*
X171611668Y-125171727D01*
X171608750Y-125222000D01*
X171608750Y-125317250D01*
X171989750Y-125317250D01*
X171989750Y-125507750D01*
X172370750Y-125507750D01*
G36*
X173704250Y-125603000D02*
G01*
X173712117Y-125535534D01*
X173749227Y-125510668D01*
X173799500Y-125507750D01*
X173866965Y-125515617D01*
X173891831Y-125552727D01*
X173894750Y-125603000D01*
X173886882Y-125670465D01*
X173849772Y-125695331D01*
X173799500Y-125698250D01*
X173704250Y-125698250D01*
X173704250Y-125603000D01*
G37*
X173704250Y-125603000D02*
X173712117Y-125535534D01*
X173749227Y-125510668D01*
X173799500Y-125507750D01*
X173866965Y-125515617D01*
X173891831Y-125552727D01*
X173894750Y-125603000D01*
X173886882Y-125670465D01*
X173849772Y-125695331D01*
X173799500Y-125698250D01*
X173704250Y-125698250D01*
X173704250Y-125603000D01*
G36*
X171799250Y-123983750D02*
G01*
X171799250Y-123602750D01*
X171704000Y-123602750D01*
X171636534Y-123610617D01*
X171611668Y-123647727D01*
X171608750Y-123698000D01*
X171600882Y-123765465D01*
X171563772Y-123790331D01*
X171513500Y-123793250D01*
X171446034Y-123785382D01*
X171421168Y-123748272D01*
X171418250Y-123698000D01*
X171426117Y-123630534D01*
X171463227Y-123605668D01*
X171513500Y-123602750D01*
X171580965Y-123594882D01*
X171605831Y-123557772D01*
X171608750Y-123507500D01*
X172180250Y-123507500D01*
X172188117Y-123574965D01*
X172225227Y-123599831D01*
X172275500Y-123602750D01*
X172342965Y-123594882D01*
X172367831Y-123557772D01*
X172370750Y-123507500D01*
X172362882Y-123440034D01*
X172325772Y-123415168D01*
X172275500Y-123412250D01*
X172208034Y-123420117D01*
X172183168Y-123457227D01*
X172180250Y-123507500D01*
X171608750Y-123507500D01*
X171616617Y-123440034D01*
X171653727Y-123415168D01*
X171704000Y-123412250D01*
X171771465Y-123404382D01*
X171796331Y-123367272D01*
X171799250Y-123317000D01*
X171807117Y-123249534D01*
X171844227Y-123224668D01*
X171894500Y-123221750D01*
X171961965Y-123213882D01*
X171986831Y-123176772D01*
X171989750Y-123126500D01*
X171981882Y-123059034D01*
X171944772Y-123034168D01*
X171894500Y-123031250D01*
X171827034Y-123023382D01*
X171802168Y-122986272D01*
X171799250Y-122936000D01*
X171807117Y-122868534D01*
X171844227Y-122843668D01*
X171894500Y-122840750D01*
X171961965Y-122848617D01*
X171986831Y-122885727D01*
X171989750Y-122936000D01*
X171997617Y-123003465D01*
X172034727Y-123028331D01*
X172085000Y-123031250D01*
X172152465Y-123039117D01*
X172177331Y-123076227D01*
X172180250Y-123126500D01*
X172188117Y-123193965D01*
X172225227Y-123218831D01*
X172275500Y-123221750D01*
X172342965Y-123229617D01*
X172367831Y-123266727D01*
X172370750Y-123317000D01*
X172378617Y-123384465D01*
X172415727Y-123409331D01*
X172466000Y-123412250D01*
X172533465Y-123420117D01*
X172558331Y-123457227D01*
X172561250Y-123507500D01*
X172569117Y-123574965D01*
X172606227Y-123599831D01*
X172656500Y-123602750D01*
X172723965Y-123610617D01*
X172748831Y-123647727D01*
X172751750Y-123698000D01*
X172743882Y-123765465D01*
X172706772Y-123790331D01*
X172656500Y-123793250D01*
X172589034Y-123785382D01*
X172564168Y-123748272D01*
X172561250Y-123698000D01*
X172553382Y-123630534D01*
X172516272Y-123605668D01*
X172466000Y-123602750D01*
X172398534Y-123610617D01*
X172373668Y-123647727D01*
X172370750Y-123698000D01*
X172362882Y-123765465D01*
X172325772Y-123790331D01*
X172275500Y-123793250D01*
X172208034Y-123785382D01*
X172183168Y-123748272D01*
X172180250Y-123698000D01*
X172172382Y-123630534D01*
X172135272Y-123605668D01*
X172085000Y-123602750D01*
X171989750Y-123602750D01*
X171989750Y-123983750D01*
X171799250Y-123983750D01*
G37*
X171799250Y-123983750D02*
X171799250Y-123602750D01*
X171704000Y-123602750D01*
X171636534Y-123610617D01*
X171611668Y-123647727D01*
X171608750Y-123698000D01*
X171600882Y-123765465D01*
X171563772Y-123790331D01*
X171513500Y-123793250D01*
X171446034Y-123785382D01*
X171421168Y-123748272D01*
X171418250Y-123698000D01*
X171426117Y-123630534D01*
X171463227Y-123605668D01*
X171513500Y-123602750D01*
X171580965Y-123594882D01*
X171605831Y-123557772D01*
X171608750Y-123507500D01*
X172180250Y-123507500D01*
X172188117Y-123574965D01*
X172225227Y-123599831D01*
X172275500Y-123602750D01*
X172342965Y-123594882D01*
X172367831Y-123557772D01*
X172370750Y-123507500D01*
X172362882Y-123440034D01*
X172325772Y-123415168D01*
X172275500Y-123412250D01*
X172208034Y-123420117D01*
X172183168Y-123457227D01*
X172180250Y-123507500D01*
X171608750Y-123507500D01*
X171616617Y-123440034D01*
X171653727Y-123415168D01*
X171704000Y-123412250D01*
X171771465Y-123404382D01*
X171796331Y-123367272D01*
X171799250Y-123317000D01*
X171807117Y-123249534D01*
X171844227Y-123224668D01*
X171894500Y-123221750D01*
X171961965Y-123213882D01*
X171986831Y-123176772D01*
X171989750Y-123126500D01*
X171981882Y-123059034D01*
X171944772Y-123034168D01*
X171894500Y-123031250D01*
X171827034Y-123023382D01*
X171802168Y-122986272D01*
X171799250Y-122936000D01*
X171807117Y-122868534D01*
X171844227Y-122843668D01*
X171894500Y-122840750D01*
X171961965Y-122848617D01*
X171986831Y-122885727D01*
X171989750Y-122936000D01*
X171997617Y-123003465D01*
X172034727Y-123028331D01*
X172085000Y-123031250D01*
X172152465Y-123039117D01*
X172177331Y-123076227D01*
X172180250Y-123126500D01*
X172188117Y-123193965D01*
X172225227Y-123218831D01*
X172275500Y-123221750D01*
X172342965Y-123229617D01*
X172367831Y-123266727D01*
X172370750Y-123317000D01*
X172378617Y-123384465D01*
X172415727Y-123409331D01*
X172466000Y-123412250D01*
X172533465Y-123420117D01*
X172558331Y-123457227D01*
X172561250Y-123507500D01*
X172569117Y-123574965D01*
X172606227Y-123599831D01*
X172656500Y-123602750D01*
X172723965Y-123610617D01*
X172748831Y-123647727D01*
X172751750Y-123698000D01*
X172743882Y-123765465D01*
X172706772Y-123790331D01*
X172656500Y-123793250D01*
X172589034Y-123785382D01*
X172564168Y-123748272D01*
X172561250Y-123698000D01*
X172553382Y-123630534D01*
X172516272Y-123605668D01*
X172466000Y-123602750D01*
X172398534Y-123610617D01*
X172373668Y-123647727D01*
X172370750Y-123698000D01*
X172362882Y-123765465D01*
X172325772Y-123790331D01*
X172275500Y-123793250D01*
X172208034Y-123785382D01*
X172183168Y-123748272D01*
X172180250Y-123698000D01*
X172172382Y-123630534D01*
X172135272Y-123605668D01*
X172085000Y-123602750D01*
X171989750Y-123602750D01*
X171989750Y-123983750D01*
X171799250Y-123983750D01*
G36*
X170275250Y-124936250D02*
G01*
X170275250Y-124745750D01*
X170656250Y-124745750D01*
X170656250Y-124936250D01*
X170275250Y-124936250D01*
G37*
X170275250Y-124936250D02*
X170275250Y-124745750D01*
X170656250Y-124745750D01*
X170656250Y-124936250D01*
X170275250Y-124936250D01*
G36*
X174847250Y-127222250D02*
G01*
X174752000Y-127222250D01*
X174684534Y-127230117D01*
X174659668Y-127267227D01*
X174656750Y-127317500D01*
X174648882Y-127384965D01*
X174611772Y-127409831D01*
X174561500Y-127412750D01*
X174466250Y-127412750D01*
X174466250Y-127031750D01*
X174656750Y-127031750D01*
X174656750Y-126650750D01*
X174847250Y-126650750D01*
X174847250Y-127222250D01*
G37*
X174847250Y-127222250D02*
X174752000Y-127222250D01*
X174684534Y-127230117D01*
X174659668Y-127267227D01*
X174656750Y-127317500D01*
X174648882Y-127384965D01*
X174611772Y-127409831D01*
X174561500Y-127412750D01*
X174466250Y-127412750D01*
X174466250Y-127031750D01*
X174656750Y-127031750D01*
X174656750Y-126650750D01*
X174847250Y-126650750D01*
X174847250Y-127222250D01*
G36*
X173513750Y-127412750D02*
G01*
X173418500Y-127412750D01*
X173351034Y-127420617D01*
X173326168Y-127457727D01*
X173323250Y-127508000D01*
X173315382Y-127575465D01*
X173278272Y-127600331D01*
X173228000Y-127603250D01*
X173160534Y-127595382D01*
X173135668Y-127558272D01*
X173132750Y-127508000D01*
X173140617Y-127440534D01*
X173177727Y-127415668D01*
X173228000Y-127412750D01*
X173295465Y-127404882D01*
X173320331Y-127367772D01*
X173323250Y-127317500D01*
X173323250Y-127222250D01*
X172942250Y-127222250D01*
X172942250Y-127031750D01*
X173323250Y-127031750D01*
X173323250Y-126936500D01*
X173331117Y-126869034D01*
X173368227Y-126844168D01*
X173418500Y-126841250D01*
X173513750Y-126841250D01*
X173513750Y-127412750D01*
G37*
X173513750Y-127412750D02*
X173418500Y-127412750D01*
X173351034Y-127420617D01*
X173326168Y-127457727D01*
X173323250Y-127508000D01*
X173315382Y-127575465D01*
X173278272Y-127600331D01*
X173228000Y-127603250D01*
X173160534Y-127595382D01*
X173135668Y-127558272D01*
X173132750Y-127508000D01*
X173140617Y-127440534D01*
X173177727Y-127415668D01*
X173228000Y-127412750D01*
X173295465Y-127404882D01*
X173320331Y-127367772D01*
X173323250Y-127317500D01*
X173323250Y-127222250D01*
X172942250Y-127222250D01*
X172942250Y-127031750D01*
X173323250Y-127031750D01*
X173323250Y-126936500D01*
X173331117Y-126869034D01*
X173368227Y-126844168D01*
X173418500Y-126841250D01*
X173513750Y-126841250D01*
X173513750Y-127412750D01*
G36*
X170846750Y-127793750D02*
G01*
X169894250Y-127793750D01*
X169894250Y-127031750D01*
X170084750Y-127031750D01*
X170084750Y-127603250D01*
X170656250Y-127603250D01*
X170656250Y-127031750D01*
X170084750Y-127031750D01*
X169894250Y-127031750D01*
X169894250Y-126841250D01*
X170846750Y-126841250D01*
X170846750Y-127793750D01*
G37*
X170846750Y-127793750D02*
X169894250Y-127793750D01*
X169894250Y-127031750D01*
X170084750Y-127031750D01*
X170084750Y-127603250D01*
X170656250Y-127603250D01*
X170656250Y-127031750D01*
X170084750Y-127031750D01*
X169894250Y-127031750D01*
X169894250Y-126841250D01*
X170846750Y-126841250D01*
X170846750Y-127793750D01*
G36*
X175641000Y-128397000D02*
G01*
X169291000Y-128397000D01*
X169291000Y-126650750D01*
X169703750Y-126650750D01*
X169703750Y-127984250D01*
X171037250Y-127984250D01*
X171037250Y-126650750D01*
X169703750Y-126650750D01*
X169291000Y-126650750D01*
X169291000Y-125984000D01*
X169703750Y-125984000D01*
X169711617Y-126051465D01*
X169748727Y-126076331D01*
X169799000Y-126079250D01*
X169866465Y-126087117D01*
X169891331Y-126124227D01*
X169894250Y-126174500D01*
X169886382Y-126241965D01*
X169849272Y-126266831D01*
X169799000Y-126269750D01*
X169731534Y-126277617D01*
X169706668Y-126314727D01*
X169703750Y-126365000D01*
X169711617Y-126432465D01*
X169748727Y-126457331D01*
X169799000Y-126460250D01*
X169866465Y-126452382D01*
X169891331Y-126415272D01*
X169894250Y-126365000D01*
X169902117Y-126297534D01*
X169939227Y-126272668D01*
X169989500Y-126269750D01*
X170056965Y-126277617D01*
X170081831Y-126314727D01*
X170084750Y-126365000D01*
X170092617Y-126432465D01*
X170129727Y-126457331D01*
X170180000Y-126460250D01*
X170247465Y-126452382D01*
X170272331Y-126415272D01*
X170275250Y-126365000D01*
X170267382Y-126297534D01*
X170230272Y-126272668D01*
X170180000Y-126269750D01*
X170112534Y-126261882D01*
X170087668Y-126224772D01*
X170084750Y-126174500D01*
X170084750Y-126079250D01*
X169989500Y-126079250D01*
X169922034Y-126071382D01*
X169897168Y-126034272D01*
X169894250Y-125984000D01*
X169886382Y-125916534D01*
X169849272Y-125891668D01*
X169799000Y-125888750D01*
X169731534Y-125896617D01*
X169706668Y-125933727D01*
X169703750Y-125984000D01*
X169291000Y-125984000D01*
X169291000Y-125317250D01*
X169703750Y-125317250D01*
X169703750Y-125698250D01*
X169894250Y-125698250D01*
X169894250Y-125317250D01*
X169703750Y-125317250D01*
X169291000Y-125317250D01*
X169291000Y-123983750D01*
X169703750Y-123983750D01*
X169703750Y-124555250D01*
X169799000Y-124555250D01*
X169866465Y-124563117D01*
X169891331Y-124600227D01*
X169894250Y-124650500D01*
X169902117Y-124717965D01*
X169939227Y-124742831D01*
X169989500Y-124745750D01*
X170056965Y-124753617D01*
X170081831Y-124790727D01*
X170084750Y-124841000D01*
X170084750Y-124936250D01*
X169703750Y-124936250D01*
X169703750Y-125126750D01*
X170084750Y-125126750D01*
X170084750Y-125317250D01*
X170465750Y-125317250D01*
X170465750Y-125698250D01*
X170561000Y-125698250D01*
X170628465Y-125706117D01*
X170653331Y-125743227D01*
X170656250Y-125793500D01*
X170656250Y-125888750D01*
X170275250Y-125888750D01*
X170275250Y-125793500D01*
X170267382Y-125726034D01*
X170230272Y-125701168D01*
X170180000Y-125698250D01*
X170084750Y-125698250D01*
X170084750Y-126079250D01*
X170465750Y-126079250D01*
X170465750Y-126174500D01*
X170473617Y-126241965D01*
X170510727Y-126266831D01*
X170561000Y-126269750D01*
X170628465Y-126277617D01*
X170653331Y-126314727D01*
X170656250Y-126365000D01*
X170656250Y-126460250D01*
X171037250Y-126460250D01*
X171037250Y-126365000D01*
X171045117Y-126297534D01*
X171082227Y-126272668D01*
X171132500Y-126269750D01*
X171199965Y-126261882D01*
X171224831Y-126224772D01*
X171227750Y-126174500D01*
X171235617Y-126107034D01*
X171272727Y-126082168D01*
X171323000Y-126079250D01*
X171418250Y-126079250D01*
X171418250Y-126460250D01*
X171227750Y-126460250D01*
X171227750Y-127222250D01*
X171323000Y-127222250D01*
X171390465Y-127230117D01*
X171415331Y-127267227D01*
X171418250Y-127317500D01*
X171410382Y-127384965D01*
X171373272Y-127409831D01*
X171323000Y-127412750D01*
X171227750Y-127412750D01*
X171227750Y-127984250D01*
X171418250Y-127984250D01*
X171418250Y-127412750D01*
X171608750Y-127412750D01*
X171608750Y-127984250D01*
X171704000Y-127984250D01*
X171771465Y-127976382D01*
X171796331Y-127939272D01*
X171799250Y-127889000D01*
X171807117Y-127821534D01*
X171844227Y-127796668D01*
X171894500Y-127793750D01*
X171961965Y-127801617D01*
X171986831Y-127838727D01*
X171989750Y-127889000D01*
X171997617Y-127956465D01*
X172034727Y-127981331D01*
X172085000Y-127984250D01*
X172152465Y-127976382D01*
X172177331Y-127939272D01*
X172180250Y-127889000D01*
X172172382Y-127821534D01*
X172135272Y-127796668D01*
X172085000Y-127793750D01*
X172017534Y-127785882D01*
X171992668Y-127748772D01*
X171989750Y-127698500D01*
X171981882Y-127631034D01*
X171944772Y-127606168D01*
X171894500Y-127603250D01*
X171827034Y-127595382D01*
X171802168Y-127558272D01*
X171799250Y-127508000D01*
X171807117Y-127440534D01*
X171844227Y-127415668D01*
X171894500Y-127412750D01*
X171989750Y-127412750D01*
X171989750Y-127031750D01*
X172370750Y-127031750D01*
X172370750Y-127412750D01*
X172275500Y-127412750D01*
X172208034Y-127420617D01*
X172183168Y-127457727D01*
X172180250Y-127508000D01*
X172188117Y-127575465D01*
X172225227Y-127600331D01*
X172275500Y-127603250D01*
X172342965Y-127595382D01*
X172367831Y-127558272D01*
X172370750Y-127508000D01*
X172378617Y-127440534D01*
X172415727Y-127415668D01*
X172466000Y-127412750D01*
X172561250Y-127412750D01*
X172561250Y-127031750D01*
X172751750Y-127031750D01*
X172751750Y-127603250D01*
X172656500Y-127603250D01*
X172589034Y-127611117D01*
X172564168Y-127648227D01*
X172561250Y-127698500D01*
X172569117Y-127765965D01*
X172606227Y-127790831D01*
X172656500Y-127793750D01*
X172723965Y-127801617D01*
X172748831Y-127838727D01*
X172751750Y-127889000D01*
X172759617Y-127956465D01*
X172796727Y-127981331D01*
X172847000Y-127984250D01*
X172914465Y-127976382D01*
X172939331Y-127939272D01*
X172942250Y-127889000D01*
X172942250Y-127793750D01*
X173323250Y-127793750D01*
X173323250Y-127984250D01*
X173894750Y-127984250D01*
X173894750Y-127603250D01*
X173513750Y-127603250D01*
X173513750Y-127508000D01*
X173521617Y-127440534D01*
X173558727Y-127415668D01*
X173609000Y-127412750D01*
X173676465Y-127404882D01*
X173701331Y-127367772D01*
X173704250Y-127317500D01*
X173704250Y-127222250D01*
X174085250Y-127222250D01*
X174085250Y-127603250D01*
X174180500Y-127603250D01*
X174247965Y-127611117D01*
X174272831Y-127648227D01*
X174275750Y-127698500D01*
X174267882Y-127765965D01*
X174230772Y-127790831D01*
X174180500Y-127793750D01*
X174113034Y-127801617D01*
X174088168Y-127838727D01*
X174085250Y-127889000D01*
X174085250Y-127984250D01*
X174466250Y-127984250D01*
X174466250Y-127603250D01*
X174561500Y-127603250D01*
X174628965Y-127595382D01*
X174653831Y-127558272D01*
X174656750Y-127508000D01*
X174656750Y-127412750D01*
X175037750Y-127412750D01*
X175037750Y-127508000D01*
X175029882Y-127575465D01*
X174992772Y-127600331D01*
X174942500Y-127603250D01*
X174847250Y-127603250D01*
X174847250Y-127984250D01*
X175228250Y-127984250D01*
X175228250Y-127889000D01*
X175220382Y-127821534D01*
X175183272Y-127796668D01*
X175133000Y-127793750D01*
X175065534Y-127785882D01*
X175040668Y-127748772D01*
X175037750Y-127698500D01*
X175045617Y-127631034D01*
X175082727Y-127606168D01*
X175133000Y-127603250D01*
X175228250Y-127603250D01*
X175228250Y-127031750D01*
X175133000Y-127031750D01*
X175065534Y-127023882D01*
X175040668Y-126986772D01*
X175037750Y-126936500D01*
X175045617Y-126869034D01*
X175082727Y-126844168D01*
X175133000Y-126841250D01*
X175228250Y-126841250D01*
X175228250Y-126460250D01*
X174656750Y-126460250D01*
X174656750Y-126555500D01*
X174648882Y-126622965D01*
X174611772Y-126647831D01*
X174561500Y-126650750D01*
X174466250Y-126650750D01*
X174466250Y-126269750D01*
X174561500Y-126269750D01*
X174628965Y-126261882D01*
X174653831Y-126224772D01*
X174656750Y-126174500D01*
X174648882Y-126107034D01*
X174611772Y-126082168D01*
X174561500Y-126079250D01*
X174494034Y-126071382D01*
X174469168Y-126034272D01*
X174466250Y-125984000D01*
X174466250Y-125888750D01*
X174847250Y-125888750D01*
X174847250Y-126269750D01*
X174942500Y-126269750D01*
X175009965Y-126261882D01*
X175034831Y-126224772D01*
X175037750Y-126174500D01*
X175045617Y-126107034D01*
X175082727Y-126082168D01*
X175133000Y-126079250D01*
X175228250Y-126079250D01*
X175228250Y-125507750D01*
X175133000Y-125507750D01*
X175065534Y-125499882D01*
X175040668Y-125462772D01*
X175037750Y-125412500D01*
X175045617Y-125345034D01*
X175082727Y-125320168D01*
X175133000Y-125317250D01*
X175228250Y-125317250D01*
X175228250Y-124745750D01*
X175133000Y-124745750D01*
X175065534Y-124737882D01*
X175040668Y-124700772D01*
X175037750Y-124650500D01*
X175045617Y-124583034D01*
X175082727Y-124558168D01*
X175133000Y-124555250D01*
X175228250Y-124555250D01*
X175228250Y-124174250D01*
X175133000Y-124174250D01*
X175065534Y-124182117D01*
X175040668Y-124219227D01*
X175037750Y-124269500D01*
X175037750Y-124364750D01*
X174656750Y-124364750D01*
X174656750Y-124269500D01*
X174664617Y-124202034D01*
X174701727Y-124177168D01*
X174752000Y-124174250D01*
X174819465Y-124166382D01*
X174844331Y-124129272D01*
X174847250Y-124079000D01*
X174839382Y-124011534D01*
X174802272Y-123986668D01*
X174752000Y-123983750D01*
X174684534Y-123991617D01*
X174659668Y-124028727D01*
X174656750Y-124079000D01*
X174648882Y-124146465D01*
X174611772Y-124171331D01*
X174561500Y-124174250D01*
X174494034Y-124182117D01*
X174469168Y-124219227D01*
X174466250Y-124269500D01*
X174458382Y-124336965D01*
X174421272Y-124361831D01*
X174371000Y-124364750D01*
X174303534Y-124372617D01*
X174278668Y-124409727D01*
X174275750Y-124460000D01*
X174267882Y-124527465D01*
X174230772Y-124552331D01*
X174180500Y-124555250D01*
X174085250Y-124555250D01*
X174085250Y-124745750D01*
X173513750Y-124745750D01*
X173513750Y-124650500D01*
X173505882Y-124583034D01*
X173468772Y-124558168D01*
X173418500Y-124555250D01*
X173351034Y-124547382D01*
X173326168Y-124510272D01*
X173323250Y-124460000D01*
X173315382Y-124392534D01*
X173278272Y-124367668D01*
X173228000Y-124364750D01*
X173160534Y-124372617D01*
X173135668Y-124409727D01*
X173132750Y-124460000D01*
X173124882Y-124527465D01*
X173087772Y-124552331D01*
X173037500Y-124555250D01*
X172942250Y-124555250D01*
X172942250Y-124174250D01*
X173132750Y-124174250D01*
X173132750Y-123983750D01*
X173513750Y-123983750D01*
X173513750Y-124364750D01*
X173609000Y-124364750D01*
X173676465Y-124372617D01*
X173701331Y-124409727D01*
X173704250Y-124460000D01*
X173704250Y-124555250D01*
X174085250Y-124555250D01*
X174085250Y-123983750D01*
X173513750Y-123983750D01*
X173132750Y-123983750D01*
X173132750Y-123793250D01*
X173228000Y-123793250D01*
X173295465Y-123785382D01*
X173320331Y-123748272D01*
X173323250Y-123698000D01*
X173331117Y-123630534D01*
X173368227Y-123605668D01*
X173418500Y-123602750D01*
X173485965Y-123610617D01*
X173510831Y-123647727D01*
X173513750Y-123698000D01*
X173521617Y-123765465D01*
X173558727Y-123790331D01*
X173609000Y-123793250D01*
X173704250Y-123793250D01*
X173704250Y-123412250D01*
X173513750Y-123412250D01*
X173513750Y-123031250D01*
X173132750Y-123031250D01*
X173132750Y-123412250D01*
X173228000Y-123412250D01*
X173295465Y-123420117D01*
X173320331Y-123457227D01*
X173323250Y-123507500D01*
X173315382Y-123574965D01*
X173278272Y-123599831D01*
X173228000Y-123602750D01*
X173160534Y-123610617D01*
X173135668Y-123647727D01*
X173132750Y-123698000D01*
X173124882Y-123765465D01*
X173087772Y-123790331D01*
X173037500Y-123793250D01*
X172942250Y-123793250D01*
X172942250Y-123412250D01*
X172847000Y-123412250D01*
X172779534Y-123404382D01*
X172754668Y-123367272D01*
X172751750Y-123317000D01*
X172759617Y-123249534D01*
X172796727Y-123224668D01*
X172847000Y-123221750D01*
X172942250Y-123221750D01*
X172942250Y-122840750D01*
X173704250Y-122840750D01*
X173704250Y-122459750D01*
X173894750Y-122459750D01*
X173894750Y-123793250D01*
X175228250Y-123793250D01*
X175228250Y-122459750D01*
X173894750Y-122459750D01*
X173704250Y-122459750D01*
X172751750Y-122459750D01*
X172751750Y-122555000D01*
X172743882Y-122622465D01*
X172706772Y-122647331D01*
X172656500Y-122650250D01*
X172589034Y-122642382D01*
X172564168Y-122605272D01*
X172561250Y-122555000D01*
X172561250Y-122459750D01*
X171989750Y-122459750D01*
X171989750Y-122650250D01*
X171608750Y-122650250D01*
X171608750Y-122555000D01*
X171600882Y-122487534D01*
X171563772Y-122462668D01*
X171513500Y-122459750D01*
X171446034Y-122467617D01*
X171421168Y-122504727D01*
X171418250Y-122555000D01*
X171426117Y-122622465D01*
X171463227Y-122647331D01*
X171513500Y-122650250D01*
X171580965Y-122658117D01*
X171605831Y-122695227D01*
X171608750Y-122745500D01*
X171608750Y-122840750D01*
X171227750Y-122840750D01*
X171227750Y-122936000D01*
X171235617Y-123003465D01*
X171272727Y-123028331D01*
X171323000Y-123031250D01*
X171390465Y-123039117D01*
X171415331Y-123076227D01*
X171418250Y-123126500D01*
X171426117Y-123193965D01*
X171463227Y-123218831D01*
X171513500Y-123221750D01*
X171580965Y-123229617D01*
X171605831Y-123266727D01*
X171608750Y-123317000D01*
X171600882Y-123384465D01*
X171563772Y-123409331D01*
X171513500Y-123412250D01*
X171446034Y-123420117D01*
X171421168Y-123457227D01*
X171418250Y-123507500D01*
X171410382Y-123574965D01*
X171373272Y-123599831D01*
X171323000Y-123602750D01*
X171227750Y-123602750D01*
X171227750Y-123983750D01*
X170465750Y-123983750D01*
X170465750Y-124079000D01*
X170457882Y-124146465D01*
X170420772Y-124171331D01*
X170370500Y-124174250D01*
X170303034Y-124166382D01*
X170278168Y-124129272D01*
X170275250Y-124079000D01*
X170275250Y-123983750D01*
X169703750Y-123983750D01*
X169291000Y-123983750D01*
X169291000Y-122459750D01*
X169703750Y-122459750D01*
X169703750Y-123793250D01*
X171037250Y-123793250D01*
X171037250Y-122459750D01*
X169703750Y-122459750D01*
X169291000Y-122459750D01*
X169291000Y-122047000D01*
X175641000Y-122047000D01*
X175641000Y-128397000D01*
G37*
X175641000Y-128397000D02*
X169291000Y-128397000D01*
X169291000Y-126650750D01*
X169703750Y-126650750D01*
X169703750Y-127984250D01*
X171037250Y-127984250D01*
X171037250Y-126650750D01*
X169703750Y-126650750D01*
X169291000Y-126650750D01*
X169291000Y-125984000D01*
X169703750Y-125984000D01*
X169711617Y-126051465D01*
X169748727Y-126076331D01*
X169799000Y-126079250D01*
X169866465Y-126087117D01*
X169891331Y-126124227D01*
X169894250Y-126174500D01*
X169886382Y-126241965D01*
X169849272Y-126266831D01*
X169799000Y-126269750D01*
X169731534Y-126277617D01*
X169706668Y-126314727D01*
X169703750Y-126365000D01*
X169711617Y-126432465D01*
X169748727Y-126457331D01*
X169799000Y-126460250D01*
X169866465Y-126452382D01*
X169891331Y-126415272D01*
X169894250Y-126365000D01*
X169902117Y-126297534D01*
X169939227Y-126272668D01*
X169989500Y-126269750D01*
X170056965Y-126277617D01*
X170081831Y-126314727D01*
X170084750Y-126365000D01*
X170092617Y-126432465D01*
X170129727Y-126457331D01*
X170180000Y-126460250D01*
X170247465Y-126452382D01*
X170272331Y-126415272D01*
X170275250Y-126365000D01*
X170267382Y-126297534D01*
X170230272Y-126272668D01*
X170180000Y-126269750D01*
X170112534Y-126261882D01*
X170087668Y-126224772D01*
X170084750Y-126174500D01*
X170084750Y-126079250D01*
X169989500Y-126079250D01*
X169922034Y-126071382D01*
X169897168Y-126034272D01*
X169894250Y-125984000D01*
X169886382Y-125916534D01*
X169849272Y-125891668D01*
X169799000Y-125888750D01*
X169731534Y-125896617D01*
X169706668Y-125933727D01*
X169703750Y-125984000D01*
X169291000Y-125984000D01*
X169291000Y-125317250D01*
X169703750Y-125317250D01*
X169703750Y-125698250D01*
X169894250Y-125698250D01*
X169894250Y-125317250D01*
X169703750Y-125317250D01*
X169291000Y-125317250D01*
X169291000Y-123983750D01*
X169703750Y-123983750D01*
X169703750Y-124555250D01*
X169799000Y-124555250D01*
X169866465Y-124563117D01*
X169891331Y-124600227D01*
X169894250Y-124650500D01*
X169902117Y-124717965D01*
X169939227Y-124742831D01*
X169989500Y-124745750D01*
X170056965Y-124753617D01*
X170081831Y-124790727D01*
X170084750Y-124841000D01*
X170084750Y-124936250D01*
X169703750Y-124936250D01*
X169703750Y-125126750D01*
X170084750Y-125126750D01*
X170084750Y-125317250D01*
X170465750Y-125317250D01*
X170465750Y-125698250D01*
X170561000Y-125698250D01*
X170628465Y-125706117D01*
X170653331Y-125743227D01*
X170656250Y-125793500D01*
X170656250Y-125888750D01*
X170275250Y-125888750D01*
X170275250Y-125793500D01*
X170267382Y-125726034D01*
X170230272Y-125701168D01*
X170180000Y-125698250D01*
X170084750Y-125698250D01*
X170084750Y-126079250D01*
X170465750Y-126079250D01*
X170465750Y-126174500D01*
X170473617Y-126241965D01*
X170510727Y-126266831D01*
X170561000Y-126269750D01*
X170628465Y-126277617D01*
X170653331Y-126314727D01*
X170656250Y-126365000D01*
X170656250Y-126460250D01*
X171037250Y-126460250D01*
X171037250Y-126365000D01*
X171045117Y-126297534D01*
X171082227Y-126272668D01*
X171132500Y-126269750D01*
X171199965Y-126261882D01*
X171224831Y-126224772D01*
X171227750Y-126174500D01*
X171235617Y-126107034D01*
X171272727Y-126082168D01*
X171323000Y-126079250D01*
X171418250Y-126079250D01*
X171418250Y-126460250D01*
X171227750Y-126460250D01*
X171227750Y-127222250D01*
X171323000Y-127222250D01*
X171390465Y-127230117D01*
X171415331Y-127267227D01*
X171418250Y-127317500D01*
X171410382Y-127384965D01*
X171373272Y-127409831D01*
X171323000Y-127412750D01*
X171227750Y-127412750D01*
X171227750Y-127984250D01*
X171418250Y-127984250D01*
X171418250Y-127412750D01*
X171608750Y-127412750D01*
X171608750Y-127984250D01*
X171704000Y-127984250D01*
X171771465Y-127976382D01*
X171796331Y-127939272D01*
X171799250Y-127889000D01*
X171807117Y-127821534D01*
X171844227Y-127796668D01*
X171894500Y-127793750D01*
X171961965Y-127801617D01*
X171986831Y-127838727D01*
X171989750Y-127889000D01*
X171997617Y-127956465D01*
X172034727Y-127981331D01*
X172085000Y-127984250D01*
X172152465Y-127976382D01*
X172177331Y-127939272D01*
X172180250Y-127889000D01*
X172172382Y-127821534D01*
X172135272Y-127796668D01*
X172085000Y-127793750D01*
X172017534Y-127785882D01*
X171992668Y-127748772D01*
X171989750Y-127698500D01*
X171981882Y-127631034D01*
X171944772Y-127606168D01*
X171894500Y-127603250D01*
X171827034Y-127595382D01*
X171802168Y-127558272D01*
X171799250Y-127508000D01*
X171807117Y-127440534D01*
X171844227Y-127415668D01*
X171894500Y-127412750D01*
X171989750Y-127412750D01*
X171989750Y-127031750D01*
X172370750Y-127031750D01*
X172370750Y-127412750D01*
X172275500Y-127412750D01*
X172208034Y-127420617D01*
X172183168Y-127457727D01*
X172180250Y-127508000D01*
X172188117Y-127575465D01*
X172225227Y-127600331D01*
X172275500Y-127603250D01*
X172342965Y-127595382D01*
X172367831Y-127558272D01*
X172370750Y-127508000D01*
X172378617Y-127440534D01*
X172415727Y-127415668D01*
X172466000Y-127412750D01*
X172561250Y-127412750D01*
X172561250Y-127031750D01*
X172751750Y-127031750D01*
X172751750Y-127603250D01*
X172656500Y-127603250D01*
X172589034Y-127611117D01*
X172564168Y-127648227D01*
X172561250Y-127698500D01*
X172569117Y-127765965D01*
X172606227Y-127790831D01*
X172656500Y-127793750D01*
X172723965Y-127801617D01*
X172748831Y-127838727D01*
X172751750Y-127889000D01*
X172759617Y-127956465D01*
X172796727Y-127981331D01*
X172847000Y-127984250D01*
X172914465Y-127976382D01*
X172939331Y-127939272D01*
X172942250Y-127889000D01*
X172942250Y-127793750D01*
X173323250Y-127793750D01*
X173323250Y-127984250D01*
X173894750Y-127984250D01*
X173894750Y-127603250D01*
X173513750Y-127603250D01*
X173513750Y-127508000D01*
X173521617Y-127440534D01*
X173558727Y-127415668D01*
X173609000Y-127412750D01*
X173676465Y-127404882D01*
X173701331Y-127367772D01*
X173704250Y-127317500D01*
X173704250Y-127222250D01*
X174085250Y-127222250D01*
X174085250Y-127603250D01*
X174180500Y-127603250D01*
X174247965Y-127611117D01*
X174272831Y-127648227D01*
X174275750Y-127698500D01*
X174267882Y-127765965D01*
X174230772Y-127790831D01*
X174180500Y-127793750D01*
X174113034Y-127801617D01*
X174088168Y-127838727D01*
X174085250Y-127889000D01*
X174085250Y-127984250D01*
X174466250Y-127984250D01*
X174466250Y-127603250D01*
X174561500Y-127603250D01*
X174628965Y-127595382D01*
X174653831Y-127558272D01*
X174656750Y-127508000D01*
X174656750Y-127412750D01*
X175037750Y-127412750D01*
X175037750Y-127508000D01*
X175029882Y-127575465D01*
X174992772Y-127600331D01*
X174942500Y-127603250D01*
X174847250Y-127603250D01*
X174847250Y-127984250D01*
X175228250Y-127984250D01*
X175228250Y-127889000D01*
X175220382Y-127821534D01*
X175183272Y-127796668D01*
X175133000Y-127793750D01*
X175065534Y-127785882D01*
X175040668Y-127748772D01*
X175037750Y-127698500D01*
X175045617Y-127631034D01*
X175082727Y-127606168D01*
X175133000Y-127603250D01*
X175228250Y-127603250D01*
X175228250Y-127031750D01*
X175133000Y-127031750D01*
X175065534Y-127023882D01*
X175040668Y-126986772D01*
X175037750Y-126936500D01*
X175045617Y-126869034D01*
X175082727Y-126844168D01*
X175133000Y-126841250D01*
X175228250Y-126841250D01*
X175228250Y-126460250D01*
X174656750Y-126460250D01*
X174656750Y-126555500D01*
X174648882Y-126622965D01*
X174611772Y-126647831D01*
X174561500Y-126650750D01*
X174466250Y-126650750D01*
X174466250Y-126269750D01*
X174561500Y-126269750D01*
X174628965Y-126261882D01*
X174653831Y-126224772D01*
X174656750Y-126174500D01*
X174648882Y-126107034D01*
X174611772Y-126082168D01*
X174561500Y-126079250D01*
X174494034Y-126071382D01*
X174469168Y-126034272D01*
X174466250Y-125984000D01*
X174466250Y-125888750D01*
X174847250Y-125888750D01*
X174847250Y-126269750D01*
X174942500Y-126269750D01*
X175009965Y-126261882D01*
X175034831Y-126224772D01*
X175037750Y-126174500D01*
X175045617Y-126107034D01*
X175082727Y-126082168D01*
X175133000Y-126079250D01*
X175228250Y-126079250D01*
X175228250Y-125507750D01*
X175133000Y-125507750D01*
X175065534Y-125499882D01*
X175040668Y-125462772D01*
X175037750Y-125412500D01*
X175045617Y-125345034D01*
X175082727Y-125320168D01*
X175133000Y-125317250D01*
X175228250Y-125317250D01*
X175228250Y-124745750D01*
X175133000Y-124745750D01*
X175065534Y-124737882D01*
X175040668Y-124700772D01*
X175037750Y-124650500D01*
X175045617Y-124583034D01*
X175082727Y-124558168D01*
X175133000Y-124555250D01*
X175228250Y-124555250D01*
X175228250Y-124174250D01*
X175133000Y-124174250D01*
X175065534Y-124182117D01*
X175040668Y-124219227D01*
X175037750Y-124269500D01*
X175037750Y-124364750D01*
X174656750Y-124364750D01*
X174656750Y-124269500D01*
X174664617Y-124202034D01*
X174701727Y-124177168D01*
X174752000Y-124174250D01*
X174819465Y-124166382D01*
X174844331Y-124129272D01*
X174847250Y-124079000D01*
X174839382Y-124011534D01*
X174802272Y-123986668D01*
X174752000Y-123983750D01*
X174684534Y-123991617D01*
X174659668Y-124028727D01*
X174656750Y-124079000D01*
X174648882Y-124146465D01*
X174611772Y-124171331D01*
X174561500Y-124174250D01*
X174494034Y-124182117D01*
X174469168Y-124219227D01*
X174466250Y-124269500D01*
X174458382Y-124336965D01*
X174421272Y-124361831D01*
X174371000Y-124364750D01*
X174303534Y-124372617D01*
X174278668Y-124409727D01*
X174275750Y-124460000D01*
X174267882Y-124527465D01*
X174230772Y-124552331D01*
X174180500Y-124555250D01*
X174085250Y-124555250D01*
X174085250Y-124745750D01*
X173513750Y-124745750D01*
X173513750Y-124650500D01*
X173505882Y-124583034D01*
X173468772Y-124558168D01*
X173418500Y-124555250D01*
X173351034Y-124547382D01*
X173326168Y-124510272D01*
X173323250Y-124460000D01*
X173315382Y-124392534D01*
X173278272Y-124367668D01*
X173228000Y-124364750D01*
X173160534Y-124372617D01*
X173135668Y-124409727D01*
X173132750Y-124460000D01*
X173124882Y-124527465D01*
X173087772Y-124552331D01*
X173037500Y-124555250D01*
X172942250Y-124555250D01*
X172942250Y-124174250D01*
X173132750Y-124174250D01*
X173132750Y-123983750D01*
X173513750Y-123983750D01*
X173513750Y-124364750D01*
X173609000Y-124364750D01*
X173676465Y-124372617D01*
X173701331Y-124409727D01*
X173704250Y-124460000D01*
X173704250Y-124555250D01*
X174085250Y-124555250D01*
X174085250Y-123983750D01*
X173513750Y-123983750D01*
X173132750Y-123983750D01*
X173132750Y-123793250D01*
X173228000Y-123793250D01*
X173295465Y-123785382D01*
X173320331Y-123748272D01*
X173323250Y-123698000D01*
X173331117Y-123630534D01*
X173368227Y-123605668D01*
X173418500Y-123602750D01*
X173485965Y-123610617D01*
X173510831Y-123647727D01*
X173513750Y-123698000D01*
X173521617Y-123765465D01*
X173558727Y-123790331D01*
X173609000Y-123793250D01*
X173704250Y-123793250D01*
X173704250Y-123412250D01*
X173513750Y-123412250D01*
X173513750Y-123031250D01*
X173132750Y-123031250D01*
X173132750Y-123412250D01*
X173228000Y-123412250D01*
X173295465Y-123420117D01*
X173320331Y-123457227D01*
X173323250Y-123507500D01*
X173315382Y-123574965D01*
X173278272Y-123599831D01*
X173228000Y-123602750D01*
X173160534Y-123610617D01*
X173135668Y-123647727D01*
X173132750Y-123698000D01*
X173124882Y-123765465D01*
X173087772Y-123790331D01*
X173037500Y-123793250D01*
X172942250Y-123793250D01*
X172942250Y-123412250D01*
X172847000Y-123412250D01*
X172779534Y-123404382D01*
X172754668Y-123367272D01*
X172751750Y-123317000D01*
X172759617Y-123249534D01*
X172796727Y-123224668D01*
X172847000Y-123221750D01*
X172942250Y-123221750D01*
X172942250Y-122840750D01*
X173704250Y-122840750D01*
X173704250Y-122459750D01*
X173894750Y-122459750D01*
X173894750Y-123793250D01*
X175228250Y-123793250D01*
X175228250Y-122459750D01*
X173894750Y-122459750D01*
X173704250Y-122459750D01*
X172751750Y-122459750D01*
X172751750Y-122555000D01*
X172743882Y-122622465D01*
X172706772Y-122647331D01*
X172656500Y-122650250D01*
X172589034Y-122642382D01*
X172564168Y-122605272D01*
X172561250Y-122555000D01*
X172561250Y-122459750D01*
X171989750Y-122459750D01*
X171989750Y-122650250D01*
X171608750Y-122650250D01*
X171608750Y-122555000D01*
X171600882Y-122487534D01*
X171563772Y-122462668D01*
X171513500Y-122459750D01*
X171446034Y-122467617D01*
X171421168Y-122504727D01*
X171418250Y-122555000D01*
X171426117Y-122622465D01*
X171463227Y-122647331D01*
X171513500Y-122650250D01*
X171580965Y-122658117D01*
X171605831Y-122695227D01*
X171608750Y-122745500D01*
X171608750Y-122840750D01*
X171227750Y-122840750D01*
X171227750Y-122936000D01*
X171235617Y-123003465D01*
X171272727Y-123028331D01*
X171323000Y-123031250D01*
X171390465Y-123039117D01*
X171415331Y-123076227D01*
X171418250Y-123126500D01*
X171426117Y-123193965D01*
X171463227Y-123218831D01*
X171513500Y-123221750D01*
X171580965Y-123229617D01*
X171605831Y-123266727D01*
X171608750Y-123317000D01*
X171600882Y-123384465D01*
X171563772Y-123409331D01*
X171513500Y-123412250D01*
X171446034Y-123420117D01*
X171421168Y-123457227D01*
X171418250Y-123507500D01*
X171410382Y-123574965D01*
X171373272Y-123599831D01*
X171323000Y-123602750D01*
X171227750Y-123602750D01*
X171227750Y-123983750D01*
X170465750Y-123983750D01*
X170465750Y-124079000D01*
X170457882Y-124146465D01*
X170420772Y-124171331D01*
X170370500Y-124174250D01*
X170303034Y-124166382D01*
X170278168Y-124129272D01*
X170275250Y-124079000D01*
X170275250Y-123983750D01*
X169703750Y-123983750D01*
X169291000Y-123983750D01*
X169291000Y-122459750D01*
X169703750Y-122459750D01*
X169703750Y-123793250D01*
X171037250Y-123793250D01*
X171037250Y-122459750D01*
X169703750Y-122459750D01*
X169291000Y-122459750D01*
X169291000Y-122047000D01*
X175641000Y-122047000D01*
X175641000Y-128397000D01*
D12*
%TO.C,A1*%
X170180000Y-79756000D02*
X170180000Y-77216000D01*
X170180000Y-77216000D02*
X167510000Y-77216000D01*
X167510000Y-79756000D02*
X167510000Y-117986000D01*
X167510000Y-74546000D02*
X167510000Y-77216000D01*
X182880000Y-77216000D02*
X185550000Y-77216000D01*
X182880000Y-77216000D02*
X182880000Y-115316000D01*
X182880000Y-115316000D02*
X185550000Y-115316000D01*
X170180000Y-79756000D02*
X167510000Y-79756000D01*
X170180000Y-79756000D02*
X170180000Y-115316000D01*
X170180000Y-115316000D02*
X167510000Y-115316000D01*
X167510000Y-117986000D02*
X185550000Y-117986000D01*
X185550000Y-117986000D02*
X185550000Y-74546000D01*
X185550000Y-74546000D02*
X167510000Y-74546000D01*
%TO.C,J1*%
X90670000Y-131590000D02*
X90170000Y-131040000D01*
X89670000Y-131590000D02*
X90670000Y-131590000D01*
X90170000Y-131040000D02*
X89670000Y-131590000D01*
D10*
X84370000Y-118740000D02*
X92120000Y-118740000D01*
X96470000Y-118740000D02*
X98870000Y-118740000D01*
X98870000Y-118740000D02*
X98870000Y-130540000D01*
X98870000Y-130540000D02*
X98770000Y-130540000D01*
X96170000Y-130540000D02*
X92420000Y-130540000D01*
X87920000Y-130540000D02*
X84370000Y-130540000D01*
X84370000Y-130540000D02*
X84370000Y-118740000D01*
X84370000Y-121840000D02*
X80770000Y-121840000D01*
X80770000Y-121840000D02*
X80770000Y-128040000D01*
X80770000Y-128040000D02*
X84370000Y-128040000D01*
D12*
%TO.C,R1*%
X117070000Y-119380000D02*
X113760000Y-119380000D01*
X103910000Y-119380000D02*
X107220000Y-119380000D01*
X113760000Y-118010000D02*
X107220000Y-118010000D01*
X113760000Y-120750000D02*
X113760000Y-118010000D01*
X107220000Y-120750000D02*
X113760000Y-120750000D01*
X107220000Y-118010000D02*
X107220000Y-120750000D01*
%TO.C,R2*%
X107220000Y-123090000D02*
X107220000Y-125830000D01*
X107220000Y-125830000D02*
X113760000Y-125830000D01*
X113760000Y-125830000D02*
X113760000Y-123090000D01*
X113760000Y-123090000D02*
X107220000Y-123090000D01*
X103910000Y-124460000D02*
X107220000Y-124460000D01*
X117070000Y-124460000D02*
X113760000Y-124460000D01*
%TO.C,R3*%
X113760000Y-130910000D02*
X113760000Y-128170000D01*
X113760000Y-128170000D02*
X107220000Y-128170000D01*
X107220000Y-128170000D02*
X107220000Y-130910000D01*
X107220000Y-130910000D02*
X113760000Y-130910000D01*
X117070000Y-129540000D02*
X113760000Y-129540000D01*
X103910000Y-129540000D02*
X107220000Y-129540000D01*
%TO.C,R4*%
X126270000Y-118010000D02*
X126270000Y-120750000D01*
X126270000Y-120750000D02*
X132810000Y-120750000D01*
X132810000Y-120750000D02*
X132810000Y-118010000D01*
X132810000Y-118010000D02*
X126270000Y-118010000D01*
X122960000Y-119380000D02*
X126270000Y-119380000D01*
X136120000Y-119380000D02*
X132810000Y-119380000D01*
%TO.C,R5*%
X136120000Y-124460000D02*
X132810000Y-124460000D01*
X122960000Y-124460000D02*
X126270000Y-124460000D01*
X132810000Y-123090000D02*
X126270000Y-123090000D01*
X132810000Y-125830000D02*
X132810000Y-123090000D01*
X126270000Y-125830000D02*
X132810000Y-125830000D01*
X126270000Y-123090000D02*
X126270000Y-125830000D01*
%TO.C,SW1*%
X143240000Y-124880000D02*
X147740000Y-124880000D01*
X141990000Y-120880000D02*
X141990000Y-122380000D01*
X147740000Y-118380000D02*
X143240000Y-118380000D01*
X148990000Y-122380000D02*
X148990000Y-120880000D01*
%TO.C,U1*%
X80760000Y-110856000D02*
X161040000Y-110856000D01*
X161040000Y-110856000D02*
X161040000Y-74576000D01*
X161040000Y-74576000D02*
X81560000Y-74576000D01*
X80760000Y-74576000D02*
X80760000Y-110856000D01*
X80770000Y-74576000D02*
X81560000Y-74576000D01*
X87400000Y-74216000D02*
X90400000Y-74216000D01*
X89100000Y-85216000D02*
X152600000Y-85216000D01*
X88600280Y-99715320D02*
X88600280Y-85716000D01*
X152600660Y-100216000D02*
X89100000Y-100216000D01*
X153100000Y-85716000D02*
X153100000Y-99716000D01*
X83900000Y-80216000D02*
X156900000Y-80216000D01*
X156900000Y-80216000D02*
X156900000Y-105216000D01*
X156900000Y-105216000D02*
X83900000Y-105216000D01*
X83900000Y-105216000D02*
X83900000Y-80216000D01*
X153100000Y-85716000D02*
G75*
G03*
X152600000Y-85216000I-500000J0D01*
G01*
X152600660Y-100215700D02*
G75*
G03*
X153101040Y-99715320I0J500380D01*
G01*
X88600280Y-99715320D02*
G75*
G03*
X89100660Y-100215700I500380J0D01*
G01*
X89100660Y-85214460D02*
G75*
G03*
X88600280Y-85714840I0J-500380D01*
G01*
%TO.C,BZ1*%
X163750000Y-122555000D02*
G75*
G03*
X163750000Y-122555000I-6230000J0D01*
G01*
X163920000Y-121055001D02*
G75*
G02*
X163920000Y-124055000I-6400000J-1499999D01*
G01*
%TO.C,A1*%
D10*
X172005714Y-77382666D02*
X172481904Y-77382666D01*
X171910476Y-77668380D02*
X172243809Y-76668380D01*
X172577142Y-77668380D01*
X173434285Y-77668380D02*
X172862857Y-77668380D01*
X173148571Y-77668380D02*
X173148571Y-76668380D01*
X173053333Y-76811238D01*
X172958095Y-76906476D01*
X172862857Y-76954095D01*
%TO.C,J1*%
X86026666Y-116292380D02*
X86026666Y-117006666D01*
X85979047Y-117149523D01*
X85883809Y-117244761D01*
X85740952Y-117292380D01*
X85645714Y-117292380D01*
X87026666Y-117292380D02*
X86455238Y-117292380D01*
X86740952Y-117292380D02*
X86740952Y-116292380D01*
X86645714Y-116435238D01*
X86550476Y-116530476D01*
X86455238Y-116578095D01*
%TO.C,R1*%
X110323333Y-117462380D02*
X109990000Y-116986190D01*
X109751904Y-117462380D02*
X109751904Y-116462380D01*
X110132857Y-116462380D01*
X110228095Y-116510000D01*
X110275714Y-116557619D01*
X110323333Y-116652857D01*
X110323333Y-116795714D01*
X110275714Y-116890952D01*
X110228095Y-116938571D01*
X110132857Y-116986190D01*
X109751904Y-116986190D01*
X111275714Y-117462380D02*
X110704285Y-117462380D01*
X110990000Y-117462380D02*
X110990000Y-116462380D01*
X110894761Y-116605238D01*
X110799523Y-116700476D01*
X110704285Y-116748095D01*
%TO.C,R2*%
X110323333Y-122542380D02*
X109990000Y-122066190D01*
X109751904Y-122542380D02*
X109751904Y-121542380D01*
X110132857Y-121542380D01*
X110228095Y-121590000D01*
X110275714Y-121637619D01*
X110323333Y-121732857D01*
X110323333Y-121875714D01*
X110275714Y-121970952D01*
X110228095Y-122018571D01*
X110132857Y-122066190D01*
X109751904Y-122066190D01*
X110704285Y-121637619D02*
X110751904Y-121590000D01*
X110847142Y-121542380D01*
X111085238Y-121542380D01*
X111180476Y-121590000D01*
X111228095Y-121637619D01*
X111275714Y-121732857D01*
X111275714Y-121828095D01*
X111228095Y-121970952D01*
X110656666Y-122542380D01*
X111275714Y-122542380D01*
%TO.C,R3*%
X110323333Y-127452380D02*
X109990000Y-126976190D01*
X109751904Y-127452380D02*
X109751904Y-126452380D01*
X110132857Y-126452380D01*
X110228095Y-126500000D01*
X110275714Y-126547619D01*
X110323333Y-126642857D01*
X110323333Y-126785714D01*
X110275714Y-126880952D01*
X110228095Y-126928571D01*
X110132857Y-126976190D01*
X109751904Y-126976190D01*
X110656666Y-126452380D02*
X111275714Y-126452380D01*
X110942380Y-126833333D01*
X111085238Y-126833333D01*
X111180476Y-126880952D01*
X111228095Y-126928571D01*
X111275714Y-127023809D01*
X111275714Y-127261904D01*
X111228095Y-127357142D01*
X111180476Y-127404761D01*
X111085238Y-127452380D01*
X110799523Y-127452380D01*
X110704285Y-127404761D01*
X110656666Y-127357142D01*
%TO.C,R4*%
X129373333Y-117462380D02*
X129040000Y-116986190D01*
X128801904Y-117462380D02*
X128801904Y-116462380D01*
X129182857Y-116462380D01*
X129278095Y-116510000D01*
X129325714Y-116557619D01*
X129373333Y-116652857D01*
X129373333Y-116795714D01*
X129325714Y-116890952D01*
X129278095Y-116938571D01*
X129182857Y-116986190D01*
X128801904Y-116986190D01*
X130230476Y-116795714D02*
X130230476Y-117462380D01*
X129992380Y-116414761D02*
X129754285Y-117129047D01*
X130373333Y-117129047D01*
%TO.C,R5*%
X129373333Y-122542380D02*
X129040000Y-122066190D01*
X128801904Y-122542380D02*
X128801904Y-121542380D01*
X129182857Y-121542380D01*
X129278095Y-121590000D01*
X129325714Y-121637619D01*
X129373333Y-121732857D01*
X129373333Y-121875714D01*
X129325714Y-121970952D01*
X129278095Y-122018571D01*
X129182857Y-122066190D01*
X128801904Y-122066190D01*
X130278095Y-121542380D02*
X129801904Y-121542380D01*
X129754285Y-122018571D01*
X129801904Y-121970952D01*
X129897142Y-121923333D01*
X130135238Y-121923333D01*
X130230476Y-121970952D01*
X130278095Y-122018571D01*
X130325714Y-122113809D01*
X130325714Y-122351904D01*
X130278095Y-122447142D01*
X130230476Y-122494761D01*
X130135238Y-122542380D01*
X129897142Y-122542380D01*
X129801904Y-122494761D01*
X129754285Y-122447142D01*
%TO.C,SW1*%
X144208666Y-122070761D02*
X144351523Y-122118380D01*
X144589619Y-122118380D01*
X144684857Y-122070761D01*
X144732476Y-122023142D01*
X144780095Y-121927904D01*
X144780095Y-121832666D01*
X144732476Y-121737428D01*
X144684857Y-121689809D01*
X144589619Y-121642190D01*
X144399142Y-121594571D01*
X144303904Y-121546952D01*
X144256285Y-121499333D01*
X144208666Y-121404095D01*
X144208666Y-121308857D01*
X144256285Y-121213619D01*
X144303904Y-121166000D01*
X144399142Y-121118380D01*
X144637238Y-121118380D01*
X144780095Y-121166000D01*
X145113428Y-121118380D02*
X145351523Y-122118380D01*
X145542000Y-121404095D01*
X145732476Y-122118380D01*
X145970571Y-121118380D01*
X146875333Y-122118380D02*
X146303904Y-122118380D01*
X146589619Y-122118380D02*
X146589619Y-121118380D01*
X146494380Y-121261238D01*
X146399142Y-121356476D01*
X146303904Y-121404095D01*
%TO.C,U1*%
X90678095Y-86828380D02*
X90678095Y-87637904D01*
X90725714Y-87733142D01*
X90773333Y-87780761D01*
X90868571Y-87828380D01*
X91059047Y-87828380D01*
X91154285Y-87780761D01*
X91201904Y-87733142D01*
X91249523Y-87637904D01*
X91249523Y-86828380D01*
X92249523Y-87828380D02*
X91678095Y-87828380D01*
X91963809Y-87828380D02*
X91963809Y-86828380D01*
X91868571Y-86971238D01*
X91773333Y-87066476D01*
X91678095Y-87114095D01*
%TO.C,BZ1*%
X156639047Y-129653571D02*
X156781904Y-129701190D01*
X156829523Y-129748809D01*
X156877142Y-129844047D01*
X156877142Y-129986904D01*
X156829523Y-130082142D01*
X156781904Y-130129761D01*
X156686666Y-130177380D01*
X156305714Y-130177380D01*
X156305714Y-129177380D01*
X156639047Y-129177380D01*
X156734285Y-129225000D01*
X156781904Y-129272619D01*
X156829523Y-129367857D01*
X156829523Y-129463095D01*
X156781904Y-129558333D01*
X156734285Y-129605952D01*
X156639047Y-129653571D01*
X156305714Y-129653571D01*
X157210476Y-129177380D02*
X157877142Y-129177380D01*
X157210476Y-130177380D01*
X157877142Y-130177380D01*
X158781904Y-130177380D02*
X158210476Y-130177380D01*
X158496190Y-130177380D02*
X158496190Y-129177380D01*
X158400952Y-129320238D01*
X158305714Y-129415476D01*
X158210476Y-129463095D01*
%TD*%
M02*
