%TF.GenerationSoftware,KiCad,Pcbnew,5.1.6*%
%TF.CreationDate,2020-06-14T13:39:51+02:00*%
%TF.ProjectId,pcb,7063622e-6b69-4636-9164-5f7063625858,rev?*%
%TF.SameCoordinates,Original*%
%TF.FileFunction,Soldermask,Top*%
%TF.FilePolarity,Negative*%
%FSLAX46Y46*%
G04 Gerber Fmt 4.6, Leading zero omitted, Abs format (unit mm)*
G04 Created by KiCad (PCBNEW 5.1.6) date 2020-06-14 13:39:51*
%MOMM*%
%LPD*%
G01*
G04 APERTURE LIST*
%ADD10R,1.700000X1.700000*%
%ADD11O,1.700000X1.700000*%
%ADD12R,4.100000X2.300000*%
%ADD13O,2.300000X4.100000*%
%ADD14O,4.100000X2.300000*%
%ADD15C,1.700000*%
%ADD16C,2.100000*%
%ADD17R,1.900000X2.700000*%
%ADD18O,1.900000X2.700000*%
%ADD19C,3.100000*%
%ADD20R,2.100000X2.100000*%
G04 APERTURE END LIST*
D10*
%TO.C,A1*%
X168910000Y-78486000D03*
D11*
X184150000Y-111506000D03*
X168910000Y-81026000D03*
X184150000Y-108966000D03*
X168910000Y-83566000D03*
X184150000Y-106426000D03*
X168910000Y-86106000D03*
X184150000Y-103886000D03*
X168910000Y-88646000D03*
X184150000Y-101346000D03*
X168910000Y-91186000D03*
X184150000Y-98806000D03*
X168910000Y-93726000D03*
X184150000Y-96266000D03*
X168910000Y-96266000D03*
X184150000Y-93726000D03*
X168910000Y-98806000D03*
X184150000Y-91186000D03*
X168910000Y-101346000D03*
X184150000Y-88646000D03*
X168910000Y-103886000D03*
X184150000Y-86106000D03*
X168910000Y-106426000D03*
X184150000Y-83566000D03*
X168910000Y-108966000D03*
X184150000Y-81026000D03*
X168910000Y-111506000D03*
X184150000Y-78486000D03*
X168910000Y-114046000D03*
X184150000Y-114046000D03*
%TD*%
D12*
%TO.C,J1*%
X90170000Y-129540000D03*
D13*
X97470000Y-129040000D03*
D14*
X93070000Y-122440000D03*
X94270000Y-119740000D03*
D13*
X86270000Y-124940000D03*
%TD*%
D11*
%TO.C,R1*%
X118110000Y-119380000D03*
D15*
X102870000Y-119380000D03*
%TD*%
%TO.C,R2*%
X102870000Y-124460000D03*
D11*
X118110000Y-124460000D03*
%TD*%
D15*
%TO.C,R3*%
X118110000Y-129540000D03*
D11*
X102870000Y-129540000D03*
%TD*%
D15*
%TO.C,R4*%
X121920000Y-119380000D03*
D11*
X137160000Y-119380000D03*
%TD*%
%TO.C,R5*%
X137160000Y-124460000D03*
D15*
X121920000Y-124460000D03*
%TD*%
D16*
%TO.C,SW1*%
X142240000Y-123880000D03*
X142240000Y-119380000D03*
X148740000Y-123880000D03*
X148740000Y-119380000D03*
%TD*%
D17*
%TO.C,U1*%
X88900000Y-77216000D03*
D18*
X91440000Y-77216000D03*
X93980000Y-77216000D03*
X96520000Y-77216000D03*
X99060000Y-77216000D03*
X101600000Y-77216000D03*
X104140000Y-77216000D03*
X106680000Y-77216000D03*
X109220000Y-77216000D03*
X111760000Y-77216000D03*
X114300000Y-77216000D03*
X116840000Y-77216000D03*
X119380000Y-77216000D03*
X121920000Y-77216000D03*
X124460000Y-77216000D03*
X127000000Y-77216000D03*
D19*
X83400900Y-77216000D03*
X83400900Y-108216700D03*
X158399480Y-108216700D03*
X158400000Y-77216000D03*
%TD*%
D20*
%TO.C,BZ1*%
X160020000Y-122555000D03*
D16*
X155020000Y-122555000D03*
%TD*%
M02*
