M48
; DRILL file {KiCad 5.1.6} date Sun Jun 14 13:39:40 2020
; FORMAT={-:-/ absolute / inch / decimal}
; #@! TF.CreationDate,2020-06-14T13:39:40+02:00
; #@! TF.GenerationSoftware,Kicad,Pcbnew,5.1.6
; #@! TF.FileFunction,Plated,1,2,PTH
FMAT,2
INCH
T1C0.0157
T2C0.0315
T3C0.0394
T4C0.0433
T5C0.0472
T6C0.0512
T7C0.0984
%
G90
G05
T1
X4.05Y-2.9928
X4.05Y-3.4
X4.7Y-4.8
X4.75Y-3.15
X4.75Y-3.2
X4.75Y-3.25
X4.75Y-3.3
X4.75Y-3.35
X4.85Y-4.8
X4.95Y-3.15
X5.05Y-3.2
X5.2Y-3.25
X5.35Y-3.3
X5.5Y-3.35
X5.5Y-4.85
X5.5Y-4.95
X5.5Y-5.05
X5.5Y-5.15
X5.7Y-5.05
X5.7Y-5.15
X6.5Y-4.25
X6.55Y-3.75
X6.55Y-4.25
T2
X4.8Y-4.9
X5.4Y-4.9
X5.4Y-4.7
X4.05Y-4.7
X4.65Y-4.7
X4.05Y-4.9
X4.65Y-4.9
X4.8Y-4.7
X4.05Y-5.1
X4.65Y-5.1
T3
X6.65Y-3.09
X6.65Y-3.19
X6.65Y-3.29
X6.65Y-3.39
X6.65Y-3.49
X6.65Y-3.59
X6.65Y-3.69
X6.65Y-3.79
X6.65Y-3.89
X6.65Y-3.99
X6.65Y-4.09
X6.65Y-4.19
X6.65Y-4.29
X6.65Y-4.39
X6.65Y-4.49
X7.25Y-3.09
X7.25Y-3.19
X7.25Y-3.29
X7.25Y-3.39
X7.25Y-3.49
X7.25Y-3.59
X7.25Y-3.69
X7.25Y-3.79
X7.25Y-3.89
X7.25Y-3.99
X7.25Y-4.09
X7.25Y-4.19
X7.25Y-4.29
X7.25Y-4.39
X7.25Y-4.49
X6.1031Y-4.825
X6.3Y-4.825
T4
X5.6Y-4.7
X5.6Y-4.8772
X5.8559Y-4.7
X5.8559Y-4.8772
T5
X3.5Y-3.04
X3.6Y-3.04
X3.7Y-3.04
X3.8Y-3.04
X3.9Y-3.04
X4.0Y-3.04
X4.1Y-3.04
X4.2Y-3.04
X4.3Y-3.04
X4.4Y-3.04
X4.5Y-3.04
X4.6Y-3.04
X4.7Y-3.04
X4.8Y-3.04
X4.9Y-3.04
X5.0Y-3.04
T6
X3.3965Y-4.9189
X3.55Y-5.1
X3.6642Y-4.8205
X3.7114Y-4.7142
X3.8374Y-5.0803
T7
X3.2835Y-3.04
X3.2835Y-4.2605
X6.2362Y-4.2605
X6.2362Y-3.04
T0
M30
