%TF.GenerationSoftware,KiCad,Pcbnew,5.1.6*%
%TF.CreationDate,2020-06-14T13:39:51+02:00*%
%TF.ProjectId,pcb,7063622e-6b69-4636-9164-5f7063625858,rev?*%
%TF.SameCoordinates,Original*%
%TF.FileFunction,Copper,L1,Top*%
%TF.FilePolarity,Positive*%
%FSLAX46Y46*%
G04 Gerber Fmt 4.6, Leading zero omitted, Abs format (unit mm)*
G04 Created by KiCad (PCBNEW 5.1.6) date 2020-06-14 13:39:51*
%MOMM*%
%LPD*%
G01*
G04 APERTURE LIST*
%TA.AperFunction,ComponentPad*%
%ADD10R,1.600000X1.600000*%
%TD*%
%TA.AperFunction,ComponentPad*%
%ADD11O,1.600000X1.600000*%
%TD*%
%TA.AperFunction,ComponentPad*%
%ADD12R,4.000000X2.200000*%
%TD*%
%TA.AperFunction,ComponentPad*%
%ADD13O,2.200000X4.000000*%
%TD*%
%TA.AperFunction,ComponentPad*%
%ADD14O,4.000000X2.200000*%
%TD*%
%TA.AperFunction,ComponentPad*%
%ADD15C,1.600000*%
%TD*%
%TA.AperFunction,ComponentPad*%
%ADD16C,2.000000*%
%TD*%
%TA.AperFunction,ComponentPad*%
%ADD17R,1.800000X2.600000*%
%TD*%
%TA.AperFunction,ComponentPad*%
%ADD18O,1.800000X2.600000*%
%TD*%
%TA.AperFunction,ComponentPad*%
%ADD19C,3.000000*%
%TD*%
%TA.AperFunction,ComponentPad*%
%ADD20R,2.000000X2.000000*%
%TD*%
%TA.AperFunction,ViaPad*%
%ADD21C,0.800000*%
%TD*%
%TA.AperFunction,Conductor*%
%ADD22C,0.250000*%
%TD*%
G04 APERTURE END LIST*
D10*
%TO.P,A1,1*%
%TO.N,Net-(A1-Pad1)*%
X168910000Y-78486000D03*
D11*
%TO.P,A1,17*%
%TO.N,Net-(A1-Pad17)*%
X184150000Y-111506000D03*
%TO.P,A1,2*%
%TO.N,Net-(A1-Pad2)*%
X168910000Y-81026000D03*
%TO.P,A1,18*%
%TO.N,Net-(A1-Pad18)*%
X184150000Y-108966000D03*
%TO.P,A1,3*%
%TO.N,Net-(A1-Pad3)*%
X168910000Y-83566000D03*
%TO.P,A1,19*%
%TO.N,Net-(A1-Pad19)*%
X184150000Y-106426000D03*
%TO.P,A1,4*%
%TO.N,Net-(A1-Pad4)*%
X168910000Y-86106000D03*
%TO.P,A1,20*%
%TO.N,Net-(A1-Pad20)*%
X184150000Y-103886000D03*
%TO.P,A1,5*%
%TO.N,Net-(A1-Pad5)*%
X168910000Y-88646000D03*
%TO.P,A1,21*%
%TO.N,Net-(A1-Pad21)*%
X184150000Y-101346000D03*
%TO.P,A1,6*%
%TO.N,Net-(A1-Pad6)*%
X168910000Y-91186000D03*
%TO.P,A1,22*%
%TO.N,Net-(A1-Pad22)*%
X184150000Y-98806000D03*
%TO.P,A1,7*%
%TO.N,KEY_POS*%
X168910000Y-93726000D03*
%TO.P,A1,23*%
%TO.N,Net-(A1-Pad23)*%
X184150000Y-96266000D03*
%TO.P,A1,8*%
%TO.N,Net-(A1-Pad8)*%
X168910000Y-96266000D03*
%TO.P,A1,24*%
%TO.N,Net-(A1-Pad24)*%
X184150000Y-93726000D03*
%TO.P,A1,9*%
%TO.N,Net-(A1-Pad9)*%
X168910000Y-98806000D03*
%TO.P,A1,25*%
%TO.N,Net-(A1-Pad25)*%
X184150000Y-91186000D03*
%TO.P,A1,10*%
%TO.N,Net-(A1-Pad10)*%
X168910000Y-101346000D03*
%TO.P,A1,26*%
%TO.N,Net-(A1-Pad26)*%
X184150000Y-88646000D03*
%TO.P,A1,11*%
%TO.N,Net-(A1-Pad11)*%
X168910000Y-103886000D03*
%TO.P,A1,27*%
%TO.N,+5V*%
X184150000Y-86106000D03*
%TO.P,A1,12*%
%TO.N,Net-(A1-Pad12)*%
X168910000Y-106426000D03*
%TO.P,A1,28*%
%TO.N,Net-(A1-Pad28)*%
X184150000Y-83566000D03*
%TO.P,A1,13*%
%TO.N,Net-(A1-Pad13)*%
X168910000Y-108966000D03*
%TO.P,A1,29*%
%TO.N,GND*%
X184150000Y-81026000D03*
%TO.P,A1,14*%
%TO.N,Net-(A1-Pad14)*%
X168910000Y-111506000D03*
%TO.P,A1,30*%
%TO.N,Net-(A1-Pad30)*%
X184150000Y-78486000D03*
%TO.P,A1,15*%
%TO.N,Net-(A1-Pad15)*%
X168910000Y-114046000D03*
%TO.P,A1,16*%
%TO.N,Net-(A1-Pad16)*%
X184150000Y-114046000D03*
%TD*%
D12*
%TO.P,J1,T*%
%TO.N,KEY_POS*%
X90170000Y-129540000D03*
D13*
%TO.P,J1,TN*%
%TO.N,N/C*%
X97470000Y-129040000D03*
D14*
%TO.P,J1,RN*%
X93070000Y-122440000D03*
%TO.P,J1,R*%
X94270000Y-119740000D03*
D13*
%TO.P,J1,S*%
%TO.N,GND*%
X86270000Y-124940000D03*
%TD*%
D11*
%TO.P,R1,2*%
%TO.N,GND*%
X118110000Y-119380000D03*
D15*
%TO.P,R1,1*%
%TO.N,Net-(R1-Pad1)*%
X102870000Y-119380000D03*
%TD*%
%TO.P,R2,1*%
%TO.N,Net-(R2-Pad1)*%
X102870000Y-124460000D03*
D11*
%TO.P,R2,2*%
%TO.N,+5V*%
X118110000Y-124460000D03*
%TD*%
D15*
%TO.P,R3,1*%
%TO.N,Net-(BZ1-Pad2)*%
X118110000Y-129540000D03*
D11*
%TO.P,R3,2*%
%TO.N,GND*%
X102870000Y-129540000D03*
%TD*%
D15*
%TO.P,R4,1*%
%TO.N,KEY_POS*%
X121920000Y-119380000D03*
D11*
%TO.P,R4,2*%
%TO.N,+5V*%
X137160000Y-119380000D03*
%TD*%
%TO.P,R5,2*%
%TO.N,Net-(A1-Pad6)*%
X137160000Y-124460000D03*
D15*
%TO.P,R5,1*%
%TO.N,+5V*%
X121920000Y-124460000D03*
%TD*%
D16*
%TO.P,SW1,2*%
%TO.N,Net-(A1-Pad6)*%
X142240000Y-123880000D03*
%TO.P,SW1,1*%
%TO.N,GND*%
X142240000Y-119380000D03*
%TO.P,SW1,2*%
%TO.N,Net-(A1-Pad6)*%
X148740000Y-123880000D03*
%TO.P,SW1,1*%
%TO.N,GND*%
X148740000Y-119380000D03*
%TD*%
D17*
%TO.P,U1,1*%
%TO.N,GND*%
X88900000Y-77216000D03*
D18*
%TO.P,U1,2*%
%TO.N,+5V*%
X91440000Y-77216000D03*
%TO.P,U1,3*%
%TO.N,Net-(R1-Pad1)*%
X93980000Y-77216000D03*
%TO.P,U1,4*%
%TO.N,Net-(A1-Pad8)*%
X96520000Y-77216000D03*
%TO.P,U1,5*%
%TO.N,GND*%
X99060000Y-77216000D03*
%TO.P,U1,6*%
%TO.N,Net-(A1-Pad9)*%
X101600000Y-77216000D03*
%TO.P,U1,7*%
%TO.N,Net-(U1-Pad7)*%
X104140000Y-77216000D03*
%TO.P,U1,8*%
%TO.N,Net-(U1-Pad8)*%
X106680000Y-77216000D03*
%TO.P,U1,9*%
%TO.N,Net-(U1-Pad9)*%
X109220000Y-77216000D03*
%TO.P,U1,10*%
%TO.N,Net-(U1-Pad10)*%
X111760000Y-77216000D03*
%TO.P,U1,11*%
%TO.N,Net-(A1-Pad10)*%
X114300000Y-77216000D03*
%TO.P,U1,12*%
%TO.N,Net-(A1-Pad11)*%
X116840000Y-77216000D03*
%TO.P,U1,13*%
%TO.N,Net-(A1-Pad12)*%
X119380000Y-77216000D03*
%TO.P,U1,14*%
%TO.N,Net-(A1-Pad13)*%
X121920000Y-77216000D03*
%TO.P,U1,15*%
%TO.N,Net-(R2-Pad1)*%
X124460000Y-77216000D03*
%TO.P,U1,16*%
%TO.N,GND*%
X127000000Y-77216000D03*
D19*
%TO.P,U1,*%
%TO.N,*%
X83400900Y-77216000D03*
X83400900Y-108216700D03*
X158399480Y-108216700D03*
X158400000Y-77216000D03*
%TD*%
D20*
%TO.P,BZ1,1*%
%TO.N,Net-(A1-Pad5)*%
X160020000Y-122555000D03*
D16*
%TO.P,BZ1,2*%
%TO.N,Net-(BZ1-Pad2)*%
X155020000Y-122555000D03*
%TD*%
D21*
%TO.N,Net-(A1-Pad6)*%
X166370000Y-107950000D03*
X166370000Y-95250000D03*
%TO.N,KEY_POS*%
X165100000Y-107950000D03*
%TO.N,Net-(A1-Pad8)*%
X120650000Y-85090000D03*
X139700000Y-85090000D03*
%TO.N,Net-(A1-Pad9)*%
X120650000Y-83820000D03*
X135890000Y-83820000D03*
%TO.N,Net-(A1-Pad10)*%
X120650000Y-82550000D03*
X132080000Y-82550000D03*
%TO.N,Net-(A1-Pad11)*%
X120650000Y-81280000D03*
X128270000Y-81280000D03*
%TO.N,Net-(A1-Pad12)*%
X120650000Y-80010000D03*
X125730000Y-80010000D03*
%TO.N,GND*%
X144780000Y-128270000D03*
X144780000Y-130810000D03*
X119380000Y-121920000D03*
X123190000Y-121920000D03*
X139700000Y-123190000D03*
X139700000Y-125730000D03*
X139700000Y-128270000D03*
X139700000Y-130810000D03*
%TO.N,Net-(R2-Pad1)*%
X102870000Y-76017814D03*
X102870000Y-86360000D03*
%TD*%
D22*
%TO.N,Net-(A1-Pad5)*%
X171450000Y-115570000D02*
X164465000Y-122555000D01*
X171450000Y-92060998D02*
X171450000Y-115570000D01*
X168910000Y-89520998D02*
X171450000Y-92060998D01*
X164465000Y-122555000D02*
X160020000Y-122555000D01*
X168910000Y-88646000D02*
X168910000Y-89520998D01*
%TO.N,Net-(A1-Pad6)*%
X141660000Y-124460000D02*
X142240000Y-123880000D01*
X137160000Y-124460000D02*
X141660000Y-124460000D01*
X166370000Y-93726000D02*
X168910000Y-91186000D01*
X166370000Y-95250000D02*
X166370000Y-93726000D01*
X139700000Y-121340000D02*
X142240000Y-123880000D01*
X139700000Y-118110000D02*
X139700000Y-121340000D01*
X140970000Y-116840000D02*
X139700000Y-118110000D01*
X153670000Y-116840000D02*
X140970000Y-116840000D01*
X154940000Y-115570000D02*
X153670000Y-116840000D01*
X165100000Y-115570000D02*
X154940000Y-115570000D01*
X166370000Y-114300000D02*
X165100000Y-115570000D01*
X166370000Y-107950000D02*
X166370000Y-114300000D01*
%TO.N,KEY_POS*%
X90170000Y-129540000D02*
X90170000Y-128270000D01*
X91725010Y-126714990D02*
X118395010Y-126714990D01*
X90170000Y-128270000D02*
X91725010Y-126714990D01*
X120794999Y-120505001D02*
X121920000Y-119380000D01*
X120794999Y-124315001D02*
X120794999Y-120505001D01*
X118395010Y-126714990D02*
X120794999Y-124315001D01*
X121920000Y-119380000D02*
X121920000Y-118110000D01*
X121920000Y-118110000D02*
X124460000Y-115570000D01*
X124460000Y-115570000D02*
X153670000Y-115570000D01*
X153670000Y-115570000D02*
X154940000Y-114300000D01*
X154940000Y-114300000D02*
X163830000Y-114300000D01*
X165100000Y-113030000D02*
X165100000Y-107950000D01*
X163830000Y-114300000D02*
X165100000Y-113030000D01*
%TO.N,Net-(A1-Pad8)*%
X104394000Y-85090000D02*
X120650000Y-85090000D01*
X96520000Y-77216000D02*
X104394000Y-85090000D01*
X139700000Y-85090000D02*
X140970000Y-85090000D01*
X152146000Y-96266000D02*
X168910000Y-96266000D01*
X140970000Y-85090000D02*
X152146000Y-96266000D01*
%TO.N,Net-(A1-Pad9)*%
X108204000Y-83820000D02*
X120650000Y-83820000D01*
X101600000Y-77216000D02*
X108204000Y-83820000D01*
X135890000Y-83820000D02*
X137160000Y-83820000D01*
X137160000Y-83820000D02*
X153670000Y-100330000D01*
X167386000Y-100330000D02*
X168910000Y-98806000D01*
X153670000Y-100330000D02*
X167386000Y-100330000D01*
%TO.N,Net-(A1-Pad10)*%
X114300000Y-77216000D02*
X114300000Y-78740000D01*
X118110000Y-82550000D02*
X120650000Y-82550000D01*
X114300000Y-78740000D02*
X118110000Y-82550000D01*
X132080000Y-82550000D02*
X133350000Y-82550000D01*
X152146000Y-101346000D02*
X168910000Y-101346000D01*
X133350000Y-82550000D02*
X152146000Y-101346000D01*
%TO.N,Net-(A1-Pad11)*%
X116840000Y-77216000D02*
X116840000Y-78740000D01*
X119380000Y-81280000D02*
X120650000Y-81280000D01*
X116840000Y-78740000D02*
X119380000Y-81280000D01*
X128270000Y-81280000D02*
X129540000Y-81280000D01*
X129540000Y-81280000D02*
X151130000Y-102870000D01*
X167894000Y-102870000D02*
X168910000Y-103886000D01*
X151130000Y-102870000D02*
X167894000Y-102870000D01*
%TO.N,Net-(A1-Pad12)*%
X119380000Y-77216000D02*
X119380000Y-78740000D01*
X119380000Y-78740000D02*
X120650000Y-80010000D01*
X166624000Y-104140000D02*
X168910000Y-106426000D01*
X149860000Y-104140000D02*
X166624000Y-104140000D01*
X125730000Y-80010000D02*
X149860000Y-104140000D01*
%TO.N,Net-(A1-Pad13)*%
X121920000Y-77216000D02*
X121920000Y-78740000D01*
X166335699Y-106391699D02*
X168910000Y-108966000D01*
X149571699Y-106391699D02*
X166335699Y-106391699D01*
X121920000Y-78740000D02*
X149571699Y-106391699D01*
%TO.N,GND*%
X184150000Y-81026000D02*
X186690000Y-78486000D01*
X186690000Y-78486000D02*
X186690000Y-73660000D01*
X186690000Y-73660000D02*
X185420000Y-72390000D01*
X185420000Y-72390000D02*
X129540000Y-72390000D01*
X129540000Y-72390000D02*
X127000000Y-74930000D01*
X127000000Y-74930000D02*
X127000000Y-77216000D01*
X99060000Y-77216000D02*
X99060000Y-73660000D01*
X99060000Y-73660000D02*
X100330000Y-72390000D01*
X100330000Y-72390000D02*
X129540000Y-72390000D01*
X88900000Y-77216000D02*
X88900000Y-73660000D01*
X88900000Y-73660000D02*
X90170000Y-72390000D01*
X90170000Y-72390000D02*
X100330000Y-72390000D01*
X144780000Y-121920000D02*
X144780000Y-128270000D01*
X142240000Y-119380000D02*
X144780000Y-121920000D01*
X144780000Y-130810000D02*
X144780000Y-132080000D01*
X118110000Y-120650000D02*
X119380000Y-121920000D01*
X118110000Y-119380000D02*
X118110000Y-120650000D01*
X138430000Y-121920000D02*
X139700000Y-123190000D01*
X123190000Y-121920000D02*
X138430000Y-121920000D01*
X139700000Y-125730000D02*
X139700000Y-128270000D01*
X139700000Y-130810000D02*
X140970000Y-132080000D01*
X102870000Y-129540000D02*
X105410000Y-132080000D01*
X105410000Y-132080000D02*
X140970000Y-132080000D01*
X86270000Y-124940000D02*
X86270000Y-130720000D01*
X86270000Y-130720000D02*
X87630000Y-132080000D01*
X87630000Y-132080000D02*
X105410000Y-132080000D01*
X186690000Y-83566000D02*
X184150000Y-81026000D01*
X186690000Y-130810000D02*
X186690000Y-83566000D01*
X185420000Y-132080000D02*
X186690000Y-130810000D01*
X140970000Y-132080000D02*
X185420000Y-132080000D01*
%TO.N,Net-(BZ1-Pad2)*%
X148035000Y-129540000D02*
X155020000Y-122555000D01*
X118110000Y-129540000D02*
X148035000Y-129540000D01*
%TO.N,Net-(R1-Pad1)*%
X93980000Y-77216000D02*
X96520000Y-79756000D01*
X96520000Y-113030000D02*
X102870000Y-119380000D01*
X96520000Y-79756000D02*
X96520000Y-113030000D01*
%TO.N,Net-(R2-Pad1)*%
X124460000Y-77216000D02*
X124460000Y-74930000D01*
X124460000Y-74930000D02*
X123190000Y-73660000D01*
X123190000Y-73660000D02*
X104140000Y-73660000D01*
X102870000Y-74930000D02*
X102870000Y-76017814D01*
X104140000Y-73660000D02*
X102870000Y-74930000D01*
X103995001Y-123334999D02*
X102870000Y-124460000D01*
X103995001Y-87485001D02*
X103995001Y-123334999D01*
X102870000Y-86360000D02*
X103995001Y-87485001D01*
%TD*%
M02*
